<mxfile host="65bd71144e">
    <diagram id="O9RJ5X_MLRD1uZ9hZGCI" name="Page-1">
        <mxGraphModel dx="1114" dy="798" grid="1" gridSize="10" guides="1" tooltips="1" connect="1" arrows="1" fold="1" page="1" pageScale="1" pageWidth="850" pageHeight="1100" math="0" shadow="0">
            <root>
                <mxCell id="0"/>
                <mxCell id="1" parent="0"/>
                <object label="" Internet="" id="2">
                    <mxCell style="html=1;outlineConnect=0;fillColor=#1ba1e2;strokeColor=#006EAF;gradientDirection=north;strokeWidth=2;shape=mxgraph.networks.cloud;fontColor=#ffffff;" parent="1" vertex="1">
                        <mxGeometry x="345" y="230" width="160" height="85" as="geometry"/>
                    </mxCell>
                </object>
                <mxCell id="3" value="" style="verticalAlign=top;verticalLabelPosition=bottom;labelPosition=center;align=center;html=1;outlineConnect=0;fillColor=#bac8d3;strokeColor=#23445d;gradientDirection=north;strokeWidth=2;shape=mxgraph.networks.radio_tower;" parent="1" vertex="1">
                    <mxGeometry x="560" y="380" width="55" height="100" as="geometry"/>
                </mxCell>
                <mxCell id="4" value="" style="verticalAlign=top;verticalLabelPosition=bottom;labelPosition=center;align=center;html=1;outlineConnect=0;fillColor=#008a00;strokeColor=#005700;gradientDirection=north;strokeWidth=2;shape=mxgraph.networks.virtual_server;fontColor=#ffffff;" parent="1" vertex="1">
                    <mxGeometry x="670" y="60" width="110" height="120" as="geometry"/>
                </mxCell>
                <mxCell id="5" value="" style="verticalAlign=top;verticalLabelPosition=bottom;labelPosition=center;align=center;html=1;outlineConnect=0;gradientDirection=north;strokeWidth=2;shape=mxgraph.networks.tablet;" parent="1" vertex="1">
                    <mxGeometry x="690" y="590" width="100" height="70" as="geometry"/>
                </mxCell>
                <mxCell id="8" value="" style="fontColor=#ffffff;verticalAlign=top;verticalLabelPosition=bottom;labelPosition=center;align=center;html=1;outlineConnect=0;fillColor=#6a00ff;strokeColor=#3700CC;gradientDirection=north;strokeWidth=2;shape=mxgraph.networks.laptop;" parent="1" vertex="1">
                    <mxGeometry x="50" y="60" width="170" height="100" as="geometry"/>
                </mxCell>
                <mxCell id="10" value="" style="fontColor=#000000;verticalAlign=top;verticalLabelPosition=bottom;labelPosition=center;align=center;html=1;outlineConnect=0;fillColor=#e3c800;strokeColor=#B09500;gradientDirection=north;strokeWidth=2;shape=mxgraph.networks.satellite;" parent="1" vertex="1">
                    <mxGeometry x="110" y="340" width="100" height="100" as="geometry"/>
                </mxCell>
                <mxCell id="14" value="" style="verticalLabelPosition=bottom;verticalAlign=top;html=1;shadow=0;dashed=0;strokeWidth=1;shape=mxgraph.android.phone2;strokeColor=#A50040;fillColor=#d80073;fontColor=#ffffff;" parent="1" vertex="1">
                    <mxGeometry x="470" y="600" width="30" height="60" as="geometry"/>
                </mxCell>
                <mxCell id="15" value="" style="verticalAlign=top;verticalLabelPosition=bottom;labelPosition=center;align=center;html=1;outlineConnect=0;fillColor=#76608a;strokeColor=#432D57;gradientDirection=north;strokeWidth=2;shape=mxgraph.networks.wireless_modem;fontColor=#ffffff;" parent="1" vertex="1">
                    <mxGeometry x="50" y="570" width="100" height="85" as="geometry"/>
                </mxCell>
                <mxCell id="18" value="" style="endArrow=none;dashed=1;html=1;dashPattern=1 3;strokeWidth=2;entryX=0.88;entryY=1;entryDx=0;entryDy=0;entryPerimeter=0;" parent="1" source="3" target="2" edge="1">
                    <mxGeometry width="50" height="50" relative="1" as="geometry">
                        <mxPoint x="590" y="380" as="sourcePoint"/>
                        <mxPoint x="640" y="330" as="targetPoint"/>
                    </mxGeometry>
                </mxCell>
                <mxCell id="19" value="" style="endArrow=none;dashed=1;html=1;dashPattern=1 3;strokeWidth=2;exitX=1.033;exitY=0.217;exitDx=0;exitDy=0;exitPerimeter=0;" parent="1" source="14" target="3" edge="1">
                    <mxGeometry width="50" height="50" relative="1" as="geometry">
                        <mxPoint x="590" y="380" as="sourcePoint"/>
                        <mxPoint x="640" y="330" as="targetPoint"/>
                    </mxGeometry>
                </mxCell>
                <mxCell id="20" value="" style="endArrow=none;dashed=1;html=1;dashPattern=1 3;strokeWidth=2;" parent="1" source="3" target="5" edge="1">
                    <mxGeometry width="50" height="50" relative="1" as="geometry">
                        <mxPoint x="590" y="380" as="sourcePoint"/>
                        <mxPoint x="640" y="330" as="targetPoint"/>
                    </mxGeometry>
                </mxCell>
                <mxCell id="21" value="" style="endArrow=none;dashed=1;html=1;dashPattern=1 3;strokeWidth=2;" parent="1" source="10" target="2" edge="1">
                    <mxGeometry width="50" height="50" relative="1" as="geometry">
                        <mxPoint x="590" y="380" as="sourcePoint"/>
                        <mxPoint x="360" y="130" as="targetPoint"/>
                    </mxGeometry>
                </mxCell>
                <mxCell id="22" value="" style="endArrow=none;dashed=1;html=1;dashPattern=1 3;strokeWidth=2;" parent="1" source="10" target="15" edge="1">
                    <mxGeometry width="50" height="50" relative="1" as="geometry">
                        <mxPoint x="140" y="470" as="sourcePoint"/>
                        <mxPoint x="200" y="490" as="targetPoint"/>
                    </mxGeometry>
                </mxCell>
                <mxCell id="25" value="" style="endArrow=none;dashed=1;html=1;dashPattern=1 3;strokeWidth=2;entryX=0;entryY=0.5;entryDx=0;entryDy=0;entryPerimeter=0;" parent="1" source="2" target="4" edge="1">
                    <mxGeometry width="50" height="50" relative="1" as="geometry">
                        <mxPoint x="550" y="110" as="sourcePoint"/>
                        <mxPoint x="640" y="330" as="targetPoint"/>
                    </mxGeometry>
                </mxCell>
                <mxCell id="26" value="" style="endArrow=none;dashed=1;html=1;dashPattern=1 3;strokeWidth=2;" parent="1" source="2" target="8" edge="1">
                    <mxGeometry width="50" height="50" relative="1" as="geometry">
                        <mxPoint x="590" y="380" as="sourcePoint"/>
                        <mxPoint x="640" y="330" as="targetPoint"/>
                    </mxGeometry>
                </mxCell>
                <mxCell id="49" value="" style="shape=image;imageAspect=0;aspect=fixed;verticalLabelPosition=bottom;verticalAlign=top;image=data:image/png,iVBORw0KGgoAAAANSUhEUgAAAggAAAD6CAYAAADEOb9YAAAAAXNSR0IArs4c6QAAIABJREFUeF7svQmYJOdVJXpij8h9q6y9uqv3Ra3WYnWrZW22JIyNZcBgM358MGDwe4DfMBgM9gPemHU8MGIM32BgDBhshgfYyMJYCFlCm7XY6lar1ep9r649s7Jyz9iX990b2W1ZaqklY2NjZeordVdXZGTEjai45z/33HOFRqMVLSwsQ5JEDF7f2AgEQYjt2zfxThcXq2g2WxBF4Rv7IYO9wfMC7NixeRCJQQQGERhEYBCBb2AEhOXllWh4uPQN3OVgVxci0Gq1kc1m+NuDB49i585tg+B8EyJgmhYSCeObsOfBLgcRGERgEIHXbwReAhDMxhLe8a4fQRiGSI9uxuf/+o/j6LRncOMd74GaSuHX/+gTmLLP4Yd++iNI6Ap+/08+DaF2BL/4kd9FecsN+Phdv47amb14///9i/jQ7/8Zbrny9bm6eyWA8Gs//17c/IFP4qbkObzrP74fYnoMf/HpP0NWjsNttZbxEz/6XmS2vRkf/+gHYdbm8WPv/Wlsvfmd+K0P/jiWzuzHT/3cf8Ft7/5pvP/dt+KOt76D3xcpWTzyxXteV3f0ACC8ri734GQHERhE4N8oAi/LIPQWn8evfvyf8bHf/lB8KI0T+P6f/RP8zq99ABvWTeH0V/4BH3uwiQ+/706sGS2iXqsinS/hkT//FTSmvhd33rQN7TOP4VlzCm+7fue/0el8e33MywGEpz//CfzJp/4R3/u79+J717rwIeHg/Z/G/5q9An/6M9fxSdz96T/E1Xe+DwsPfAzHlZtRWPwHvPFHfwMP/eEvQLvtF/F3P3Un/tdTz+L3Pvif8ZN3/RGmDSC06viF//f38LG7fvvbKxDf5KMZAIRvcoAHux9EYBCB12UELgIEx2yj2bGRL5WhSsCffeT/wvD3/D+4c9faODC9Zfz6XZ+E3TiHTXf8BN661cCff/ZBzOx/ED/0i3+A26/bAt818Us/+cP4sd/4M1y5tgjz9AN4tDY8AAgvKDG4vQZ++X/egz3aGUh3/ja+bwPwiY/9Lj73wGP4vb/8LLYPJzjcf/77H8JP/NzvoHX+IP7n556GfPiv8bN//AiWn/kkPv30EFbv+2/4kf/xl/jT3/w53PzLX8CPXCXjy3/7Wzgg3oyfeffNr6ubeQAQXleXe3CygwgMIvBvFIGLAOH5h/8Of/GFr+Cnf/Vj2FQE3vnen8fdn/wfeLGkzrN7+Mlf/QQ+ddcH+oe4irv+4il88Me+Bx//0I/g5v/0B9gxGWsaBgDhpRqEQw/+Bd7+vt+A22th5MrbsPeBz0CRBDQWn8M7/9Pf45G7f4tj9+k//W/40fd9GEtH78NfP9ZBcfEevOuX/wqnv/DbeEB4J37h+zfjvnvvw94vPogfuOuPcFUywlve/m58/t7PQv83unm+XT5mABC+Xa7E4DgGERhE4DspApcsMXgrz+FPH67gZ37oLTBbK/jg79+Dj7xnJz7wkY/BcX28/1f+K3LNw/jdT3wWruvgI//9D3HukU/hAx+7BzdctQnv+88fxtq0gw9/+JdQcXT86q//d9y2+/Un0HslDcLdH/sVZhB2uQ/iwx/9FCzHw/s/8gfYYZzH4yd6uGY6g1/4L78HSdZw18f/BO7CfvzqRz8Bycjj43/0MZx56OO466+exLYb34Zf+ZkfQeDU8V/+/BH89s/8wHfS/fmqzmUAEF5VmAYbDSIwiMAgAq8pAoMuhtcUrte28aCL4bXF6+vdegAQvt7IDd43iMAgAoMIvHwEGCCUy0UIwqA//xt9ozQaLeTzWd7twYPHcOWVWwZx/kYHGUC320Mqlfwm7Hmwy0EEBhEYROD1GwGh1epEJ06cg66rr98ofJPO3Pd9XH31dt57rVbHzMwCNG0Q5290uC3Lxq5dr89OmW90LAf7G0RgEIFBBC5EQJhpdKK987VBRAYRGETgOykCUYTI8xGaNiI/BIIQQc9GJACiIEDOpyAQWJVFCJIEfBsyiNbx8zDWjQGKfInji/pX66vMpywAGUWEKkVIKz40SYQQuegGIlRRRMUS0Hbj7dOqCEkIsS7vQlFdBKEPVdCgCUmIoYIwChHRlxDCFJqIhAAUPEmQ+M+UVIAsSHB9F7IkIYoASZA5voAIP3QReBFECZAFGX7kwg9CqLICCTIghtD1AtqdKuhMeL8QIAqxo20YBSwQ9xEgRAgJEiKEUEUVYQg8X/dQsULelq6zN78CUZIQ+h4ERYFUzEA0NISNDgLLhTJWjGMYhsiGHjYVDJTyCSAK43MNQ9TmWxAlEaWxPMyuhdmj85BkCZIioTCSQ66c5WMIwwgQQvhhgIiOXowQ+CEEQeSYhEIEu20jjCIokozlcytQRBnFiQL0hAZZlVFbrKNeaWLdFVOQVAlCXw4viiJOnjwDVTOQKxhIJVNwAwdu6EIWFZDhL3287Vscx57fhRf6kAS67io0RYMoAh2zi55nQhN1hE4EJdB4X6qh4b4/fQC3/h83YuHEIvREEslUAueOzCBTSqM0VYIsyei0O0gn0njsni9hwxXrkSnlUJ2vYMs1W2C2e5g5fg5brtmGJ+97EsNTI5BlETvfeCVOHTqLsU0jOPDIc8jkM9i0cz2efeQg30dX37iT43r60FnMnpjD9/2fb4ecABT+/YuvZRgK7LYr0Y2DqM84C4iigONJ9wnFwwsC1O0GkqoOXTI4fpqs8XvoPoro9x8hbM+lb+EGHgRLwvLpCiauHIUbejBkHRHfsCFvCyHi60TnL0QC/CjEACB8JyWFwbkMIvBKEaAsRl/0BP138LJPzEHfOH7J4yXHckoUL3xNJkVszir8oKMHnBs04AdtiKIBCDrckM47CYgBkhI4eXuw4MPlx2qIAClkEQghxEBBhBgUUNKi9xCwihO5yGlbhAA/8KHKGidKUVQQ+BEEMYTlWQh9F4IgQZEoqQegdKrLKhAR4AlhGHl0u6tfBQQCgRapf3kEeAElRUp4IgMYL/A5mUSQ8OyKg1U7TirwA7hzVYgJDVImCcGgRNF/hRGcswtQR0vQFBETCRHTQylomsygwKPEIYoMcvwg4M+ncxEQweo4/HctoYNyGOMCTj5hnND5GgQIGGQAiiAzmKGfeaEN0zeRUXPw/QhWw0JtYZUgEKavnEK33cPpZ89i/bVrkcmnGRhRkqLz63ZtmJYJI60xMAqFAFZgwZASEMUIoRjC8zx0nF48IiASGJyokgw3cCGJIoMYyzfh+QFkSYTc0qGmFEAR8aW/+jLe+mO3Y+l8Bd2ajdMHTmP9letQq9Sw5brNHO9GrYFMNoPZk3PYsH0dVitNdMw2rtlzNQ48+hyufdNVSKQN3P3Hn8c73nsnHvjMv+DWd9yC04dPY82mKSycWcD+R5/Fbe96M84cOoM9b9uNs4fPobnSxrbdW/HI3Y/gxre/EXqG7gW6dzitw/RsjoUhG4hd+cWLv64U4yCIULdXYcgagy+KNf07gTy6dnQdKcZx0qd3E4j14UceWnNdRFKE0ngeAXyIIgHbGPBRHIOQrr8IWZT4XvdDfwAQ/h08JweHOIjA6zIC9slZ6BsmXjWgWZuSsTYtQRHj9WgQ+QiCLic5RU4ioiQURLxCCgQbkqAiiFz0hDZkUDKS+dGKQAVEsi+jBzDthx6+CkLBgyrI8BAwAJEllR/qUSgBBDgiytU+PZXheDY8x4WiqLzSTmlpXsGHoUf5HF7ooZgZQbtbIUoHAdEC/XW0JMqc5OgsaH/xg5ySA9D0ApxpBmj7tFiMEJk23KU65EIaYj79VY0Tg6cYEIrtHoxeD9ddM4ZkgnxW6N+JVCKWJEJAq1MEUEQFoiDzeyhpkC5NFGUGAfQGP3BpncnHRmwJIooWoYYIfujFbMbF1asPL3KRknMMbogBcJsuFs+sYGLjCJbPryCVT6BMK3aRkiSBMZGPg4iOIIxhmB9G8Hn1HMTbiTGzQz93QwdEuIQBHW8AM7AYRPWcLlRF4+P0GiG0SIfn+ChOZvmaPvTJJ7H7bdfh7KFzuPqmq/HsYwewdtsUMqUMPN/DyvkVtKotrNm+BgunFzEyNYyhkSE0Gg1UZ1fgOR7WbJxCabyEh//+Ebz9x74HD372Idzw3Xtw9sgMzG4XE9NjePQfvoTrv2s3luaWsectu3Dq+TPoNUwURvPY+/A+7L5tFxRNYOCSzNDxSnA8Fwk1EbM6fEfQ7S9BYIZBQBD4CEIB9XodlW4F5aEiMlqG7zFN0uG4LgMqAg+mZyGv5/keoneffnYWE9NDyJRSsAIbqqByDOn3ge4DYmIIeBAIEUS6H9SXAgRJEFBO6Rzcy73cIEC1a19us8HPBxEYRGAQgdccAff0AtR1o68IEFSRqFBKS8C2nIKyIfZXXvHHRZGPMPIBQeaVGa2uKPESjUvAwUQzXrkKMUDgRAkdZtiGhhRvHUQRZFrOiSH/nf5KyVWiByv9CQWSRIxDyFQ7rcTswIQXhNAklVd2ikxJX+DVHD356YGdSRVRa89CEXUItFYWxJiRUDRAchnAhGHMQpys+1joRnDDmESOghD+wgo/2OWhHJcT+pAA6FlIBQ5G8wYEP0I+L6M938b09smL501xIABFSTlevdNOiWamFWnAByhKMg48dhjNlQb0lIHdd1zLCZmAQxj6eO6JY7hyz3ZmFzyB4hyiu2Ihm8ui3Wij1+mhNJGDK9oIgwBhV8KRJ45jbM0IcsN5DI0XEcGFKKgQ6DoGNseFSkVe5EEICYQITIfLErE3MpzQguXZIBBleSZ02WDWouN2mHGhLwJTWSPD29fOt1Bam4EmGFAEhWNUXWwh8H0Ml8tIZhKAL6CysAIimgrFPKpzNai6imQhAd8KYLcd6EkDjulAL6nQRBmtag/5cg5mr4vicAmtWhuZQhq26cDxHJh1C3pKQyqbRK9rQtUUZmToXvScAHpCh++4SBRk2KaL0I9QGskxGJUJjEYEjgIuqRC4EiMRqqzGK/tAwJkzs1A1DSOjubhkKMrMBh3few6CLMB3fRRHCyivKTLg890AJ/eeR3E4C1EVoBU0JNMGVzYYHkY+cRVQJAW2Z/O+uXTxYg3CWNqArsgwbQ+tjvOyv9SphIJ0UoPl+VjqWK/5l3/whkEEBhEYROCVIvBqAMLVRQWqGMEJgKIegwORywAx7coULNfNiQUQmYrmujkzA/QAFjg50TY+bMiIEz0lKA1JTsCUkiPR5xo4rVTDyKOCAidu1h4w80CrvIi1CrTSp/fR59N/9DNecUsuxDDWEND6y0jkYFotBhlE5144Lk7YQgBNIVBD1L+AR+Yc+P2SCrEG9kINaiENKR8zE6ppwbAsjI0aSEgyUkkNWlLmRE4lj4UTq0hnMyiOFWL6mRb+nOgv1Lnj1SrVubl+TayJrODRu5/EFbu344t/+yDe9f4fwNkjZ9Bt9rD9+q145uED2P2W6/D8k4f5valsGvnhArLFNOZPz2Pp/DLWbJpAdjIJ0+2hd95DfbmJXDHNn7HhqmkGIQTViHVhNiP0eLVMMfNpJRuJDAqYLpcELt0QiCKAQImRrw+xDILHmgOmzBEhoSTQ65hwHQ/FoQKkSMaqvYKUSqBP4vNMyIm4/BOFDOiabpPIEAwZw0y515p1OJUAuVIaUlJg9oU0IJqs8GeIEZWDRP5MxwugKHTfxQCR2AC695zAZ82ATkySF6Bd78KnsgfdLxBRGKXuKxFzc8vIJXNIF5KQCHFFdE/H+ZdKXVxqQYilzhJKiWF0Gh2+dqUh6kCM72Xf93D0qdNI5Az+8hoBymuLSGY1rCw3sHS0Cj1twPMd1h5MbRlHImsww8MFMNbdEHsgIqEk8djDT74UIKwrpOG4AT77xaMMEl7uRb9Y333jeowPZ3C23hk86QYRGERgEIFvaAS80wtQXoFBoAfjDWUZhhTXryn508qLxYK8TOcs2F8h9+l2UeKHKYm+aLVGNCqzCQJxBy4QCghFeu5RAtD4oaxGKiAFLDKkB6nrrSISNBhyhrcXaWUqEgihEjcJEqmMQAk/FpbJosorPGJno5DTIdfSjUQBttniFVwUxknZDm1OBpKooGL76LgCkkqEk834dCLXg3VqHvraUdYcCFGEYcHBprLOnWiCGAvZLugDIviciBZPr0KUVIyvG+6XGCilE2VNsaCkQMcWJwcGRELIgOj+//0w8qUczp+cxW3vvg1f+eJXUCwXkR/OozJfweZrNuPY3mO47vZr8cwjz2JywxTK42U88LdfxPod67BwZhE3vOsN6HW7OP9MBdfcvAOyKuDkc2eRTCcxsWGMazOWazFboyoyl18o+dFKmo7RCUy0vDbyeo5XubH2JGRKvL7YBnWL5aeSHNuO02YQoZHmpOlDzApI6ylklAyWe8tM38uQmVrPG+T4G6HrtXm/HafD1zetZmH5PZgLHozQQGlzlksXXa+HjJpGSk3ySpvZF2ZUItgkFI0cZohUUYIuJ2EHNh+bKBHDJfHKXFd0FsMS2qO7SdUlBI4A2/R41Z8tZ/HYo0/wOU5MjGHjRhp1QHCEmKwAbaeNnJ7hEgtdQUXU0O51cebMOazdOIHVhQZWF+tYu20S1gqxT8DImhLmji/xPZkuGihM5nDywDlkRzKQcwKySo4BF7MIgsix0RUDjzz41KUBwuFTVTz13Pxlf9lHSync+aZNA4Bw2UgNNhhEYBCB1xqB4NwyxKkyBOJZL/EituDGYUrU8c+5Nt1X/FNiv/Cihz+tSkMSHEqUYDwIUVx3pQTRQ4eZBD+0oEoJLiNQMpdCmWvwrMyPQni+j57XgSK48CnpC4Aq6zjb0LAuQyUEAh8ewoCaQ8RY2BeGsIIeVEHnMkNEtDnnZg/JRAmWVUcUxAwGrWydIETPC7FgBli2LnAKXz35sN1DZDqQRgpcqF8jWlg/qccrWUqqEokgY8AEOs/+Snbp7Cpc08fU1jFIdBwsOKTVb6w3oNhRIpJklRkNAgoUq0fueRLX3nwNHvrsQ9h9x26cOHACO/ZcgXQug6f/5Wlsu24bnnn4GbzhTdfgyN5jmNxIAGEIj9/7ON5w67Us5NNTKhbPVDB7ahbXv+0NEKIQZ5+f426Gyc1jfeV9vPJmvQUdfeRzwmfWBgE6XguGQvoJicsVJEZURQONlRZ34ri+iURW426R1aUWAitCcTQHLSHzNVJF0qB4zGTIng4joSMSSGcioe23+mI+l2v39HlUz6d4rcyvYnhjAaqoo+k0GLxQV0ohWYAhxd0u9DNiYwiYdByTNRl5I8eiz5gFINEkMVASNEnjzpeUnmBGoVUz0Wl0Mbp+iEEalap+7dd/Bx/84M/h0UcexY4dO3Dw4EEMl4bRbDdQbzZxx+2345577sE1116LXreHQ4cPY2JiHOPDo3jiqafw9nd8D44fP4FTJ8/grW++nYFjZ6nLv0epdTr8hAe/F6B+sonUxgSMlI6xxARfb7r2dmQhpaRx/MiZSwOEQyer+PLBrwUI77ltK+556BheqDgYKaXwjgFAeK3PvcH2gwgMIvAqIhCcW4I4NfyKAOHmYQ2qTCI/H07gQZVjZTcl2wstg/FH0aqYyuyURCmhEJUdbxkKLiIx4BI8qxmEgFevDCxo1U4JnQSItEFIegbSAji86ooiEefbKlouMJqQ4PgR7CDCWEpBXpXQoiRgB3DCkMsgbS+uE6RkAVeODaHbbUBXfEiRgqMNDzUnZJ3BJV9BCG+uCjmXgpBL8TENd1axc8cQJ1VKmnTeiqQxCJJE0j8QyJHg9FzMn1xgSn9i8yhWlxrotUyEXoixjSPQDBWe63Osibpv1zrIlXNcj7d6Noy0geGJIuZOL6Fdb2F03QgCN+AOB9rWbFuoLlXxhjdfC1WTYLZNrCysIl/Ow0jraFXbsEwbybSKXtdCu9rB5t0b4InUQRJynLnmLZFIUQRJNVp2E4UElUQAh2hxCOj67VhU6UeYP1nFqVNnsHHjBkyvm2StAgnvulYHOdJlhBJs00QqlcaDDzyC2+94EyJPwJ998pP44R9+D9JZHa4XMmvR7Xbg2SEq1So2bJmGFApYPLuM7HiS2zCJMSBg0HZbzPLQ36k8QWwCsQtpLcVAy/RMFrR6pBvodwKYXg+GYvAX3VMEKIhBmj26jNJEEYohIhCorTXuIPjN3/w9fPhDH8S+Z/ZDV3UcO3Ecb7r1Fvzvv/r/sGbtFHZetRPHjh7F1u3b8fRTT2PP7l04dvIEnnnmWbzxxj3QVQ2LS0u47fY34+jRo9i4bi2UlARBE/l4a3aN20Tb50w4TR/JjAElraA4mmcAI2pAUkzB7DqXBwiGoaGQUPDjb9uBv7nvEDqeh2o7ro0MAMKreMoNNhlEYBCBrysC4cwyhMlLMwiKAOwoSCjocpz8Kc1Q2x4siCE9hqkmTA/tGBzQevmFwmtKpgJkWH6Ijh8iowGGROUCYhnitj36XxhRApNgehJUUYbtC7CoNi6Q6jtCwwlR0qnNDqhbQNWm98Q+C2lZwJJFpYxLn/4Nk2XsW6gipUT82UtmfKQXXyREJMbA82O2w3IhhCFkioki879P2i2s3ZLqt0cKUKIkTp+ewabN06jX2pBVBbPn59HtdbBn93WYPbGIwPW5l39ossTJ37U8ZIox4GCAIAlQdWrZDECqxEwuCbNtQ5QFuJ6HXrvHtX0yfcsUMpg7tQizY2Fq0yQU8pcgTQdhqSDuOKCVsaxKaK500K63oad09JomskNpFNelsNStIKvlkDeyULj/P/YAsH2HxaCaZDCjQCxJq9FGx+ohdCiZ11FZqeDKHTtw9+f+ATfdeAPSqTQny2uvuRpfeuxxDA0NoVwu4/iJYygWSpiamsL99z+AoVIRd37vnXjwgX/Bjh3bsXfvPv7Z3PwcfuAHvxeOY8GqO0iOagwA2k4Teb3AjAG1XFILJd0rBb3I9xa1JXKpiLQDvs2Cwq7b5e91WWftA7FSzB6Rx0AQcifH2NoRBrTMIQlEhkj46Ed/H3uuvx71ZgM37Lkezz//PHbtvg53f+YfsGXLZqybXof9+55Bs9PmdtC101N87aq1GsZGRzC9ZhonTp7ALW+6BQeePYBdN+xkQNu2OsjIWTghga2QxZLUkWE6JsyWBb8bkPEGNl21Hrqhsa/GS0SKpEF4IYOwbes03nn1MMr5BGoNEyuLy/jjR2cGAOHreuQN3jSIwCACrzYC4UwFwsQQhH4J4cL7JAHYlJYxkSZlW7zCp7p73BoWoGee5XJBKrGRnnfcvkdZO4hkKHLAibxmu2i6Ekyfy8EsblyTEjGWoRYxD2Kk8MPaDS2mglcsGYumis4LZFljCQEb8iIYo4C8D0Tsq1AHw8ucYV9Qxz+VRBBAeGqu+rUbE+XftRFaNkISf8si1GwqNjlKGwiqTYilDATqivB9vKFMwgcPJDsg4xsh0PHU4/twy5t3Y3ZmCelUDidPnUKz1cDGDetx6PARrJtch7HhMuzIZkq9u2xizdYJqIbKXRhUN6cODUkWuZ5NlL6a0mMa3nWRH0qxaJN1AhRbihXVWygGXZuTf2E02++tj/olARKJ9kWFAHqmjWa1iUALICRDZBL92j5UZmYIgFHHBCXZrtuDEmoMGMJGiOxomo/v0METWFmpYdv2rbj77nvwU+/7SXzh3n9Gs93ETTfeiPn5OVyx/Qp8+StP4/jx49i+bRveePMN+NKjT6DTaeP2t96Of7z7Xtx44x503SaK2SFUKzW8cc8uLK9UQVIUYjioHZPo955rout1kFVzXBKikgjV7ZNyCpqs8qqc2BuCp25gc6mqnCiz54XlOyySJWEjaRNMh1iULoaHh5FOJfny0vnRfjpdm0EV2cdTR0QQhHBduidE1Cs15CfIP6OD4fIIt9E6lg1Jjc24rI6NlJaEoElQFIF9OdzQ5PKHLul8TxND45BfBJujibB9GzW7ygJdu+YhqEVI5hJIpRKXBwgX7t5fes8ufPxv9qL3gtt5wCC82kfdYLtBBAYReK0R8M8tQXpRiYES+Ygu4oqSDCfqQYmItiVRYmw04wZtuF4dXmBDU9OQlTzrDUh05vhprDohFnpsgXTJly5F2FYAzneITQA0McCoIcPQIhyqAY0XNHbR41WXgG0FCVkjwLMVAU3npXRB2DHh1VrcmhjRqjwC5KSGm3ZtxVcWajE6oYc1taPVWghNB/IQtaMpgBx3ZFx4BZUGxEKaGQTRD7A138NwjvwP2KkACAx8+Yl9uPXN1+Pgc8cxPjaFU6dPc0J86KGHsXXbFoyNjWHP9dei03FRr1eRQgLF8RISaR3LMzUc+NJBiLKIm95+I9IFnbUbpKmYPbMAp+tiw5WT8IjJIKbAF3D60Aw2X7s+dprsq/pjTy4SQIpwPZdX/2zCFMX6ATvqob7YQdAGsqMpWEaHe/xHkmNcQtDIMbKvqq8vdWB1TYRGiFIxB2ixY8TKQpNNk0ZGSnj4gSdx553fg7//zOegqAp2796FSrWCyckJnD51hktLiWQSqVQKKytVDI+M4InHn+TQ33zLzfB9B4lMEnd/9h/xH374nVxKcrohrLaN8Q0leILL2hI6Rye0uQVRlRTuUCBGIaNmuERAfhCaYjAY4M4ZMh2KBOhqgsHVwpllqHkJ1nkXpbVFpEqJC92l/F4Cu6bXhSyISCo5vm9XV+pYOl3jkk4yb6C0IY9CMoekQl02dDwOen6Pj4f9DyoujCGVWYKaGRtxCbYIc8HFmo0TkA3qiKBrQy2lfQMPBgomgxTP9rH47ArSw8lXDxC2rini1PlVRuQXXgOA8FofeYPtBxEYRODVRIASqTdbgbqWfBBib7iSLmJNWkKOaGwlghl2EfoSDFFji9oLpj22s8Q1eE3JQqLmdmhM8z+/GqDuviiBU2eC7UCiWTSkKmTGgRgJXGQCaM+qRHa1LyoB9E+ExYqSAPNCHyK1LXZMBgMkKCT2QhnKxvtnNkRAZDm4Yf0oHnvqKNe4IxI/bG78AAAgAElEQVTnuR4EXYVSzjPDcKlXQJbKowW2xxaCAGuCDjaszzDgYee9UMPf/c092Lh5A9LJDMZGx3B+9jyvOIkJoaSxZfMmlEdyqK82WEXfqpisgaAyw8LZChrVJvLlAvKlLBzHxdLMMrfwDa8ZYa2BntRQmaugVW/jhrdcj4NPHcamqzbg+DPHuSSw6/ZdOPSVw9hx0zYcfuIYrrhxC559+CBbfl996074ssM0/LmnFzA8Nowo68ZlDNdCVs/xaZMY1On68Ho+0rkEJJ1WvgqcqAOZWQYJmpzg5lTqfiCg0lhus75EKyrsFEhCQ/I+UCUNlm9xmYJ0A5RQSWdCK3PSC1BipYRPLZYZhVwGPdhkuuR7WD3Thp5QoKYVrtPT51ELZdNuxgLPWLXCAO+CEyFfXxtQDIWdM6mTJaWkMD+7DDmM3QvT+RQSOZ3f7XpO7PtA7xNCJFUDElTYPbIaaGH22BwS5QRSIwZ/dj6Rj82+EKDrdmBIBgMwOk8CJq1mC90e+TTk+TyW5quQIxljwyOwux6ghsgXsnz83L3AnS4SMxB0rGQCRt4Nghq9eoBwqZt1ABBezaNusM0gAoMIvKYIkKtbpcH1cLmU5YevJgHXDalQRfI2iNX91JlAD7Z+1xuvvkiFEPgduO4KVK2MlFHmB7jtRPjSsn3RS4BW6eFqkyl17gAgt8VxKmfEIKHfOPnSw6ak0DZ5dShqamxQ9MJBuMQCrDQRWg7EhApB0yCljEuaPXGJYWYJoRO39UmKDEGLzXxe7uUv19n7gLYjBmGj1EUuqyKdIz9+MryR0GmbvJpNp9M8I4BoZnIb1FQZq/UmUukEFFlAz7NgqBJ8O/ZJINU9lQiWZqvc2kgOgicOnuS2xlPPn8ZN77gJdtdicPDGt+3GY59/AtfcchWevO9pZApZbLl2AyrzK5hYP46vPLgXt37/jXj8ni9j+x7yTHgWiYyBrXu2QM1E8KwIp546i8ktE1heWkJ5QxHZXIaTPWlBOys9WKaLaMiFqsow5AQ0KYGGXUdCJlaDVvAaU/EkTPTMAKErQDIiBKKPiD0pAAUydIn8DmLhoOXbcEKT205jHwjw6p+EhNSlUOL7hbpewH4BzeUu8sNZNKoNyLKGbDnBLajxnAOLu1xIj0BmRmTSpEJjmp7EkPmxDEjDx62Dvgun7UJwZWRHkpyYSRdACZmEj8Sa0BcBiMAJuPNi5XQDHlwWEZbW5KHLCaQVck102SuBvDN6Xg9JJcE/Y/Em0RxRhJlT8wxwkskk9JQCMSkgb+S5E6cyW8PQ2iFETIkQsCTmw2cQRfMsJNKggGJ8iVkML9YgvNLNOgAIr+mxN9h4EIFBBF4pAkGAgBJ31+IEq5KAq+/oWtQEXFUgz4J+6x8l4ojsYGllSas3ErUJUCRqF6QHbw+qkoYiUf0+wolVD2faZHAUiw/dk3OQ1w5DUGMXP3dpFZKhQaLugBe8aFVPze70GfR3v2shaplQsgnY9TbUsRKDBPYRcKh+S8ZHEWRqz7zMAKxLahAuc4e4p+ahrB/juEiej51DDoqZJCcsmskVidSGRwmMpJXUyUEaC/o7tT+SN0QcLy5IhNT3HidSEmx23BaWT66icrqOYTp+COi0OiiNlZDOpeC7IXqtLjrtNspjZW5vfNM7b8FTD+zFxPoxBF6Aeq2JXbfu4hbIDVeuYzOl7/6P34X9D+3Hmu1TKI5lYfoddOdc+I6PqS1jbEXcaXYxtKnA9XuyoyBBo5ZT0JNbSKsZZFTSNFAXCnUBGHACGz2/xe2j9OXaDpeatGTMEJBAshd1oSOBf7r7AfzgD34f/DDEvV+4D+/6oXeiZTV4cNa5E3PYvHETbBCLInCLn9eN4EQWZJ9YFRLrxd0g9ooLNSVDSsSIkAYgeZ6PhJzEqrfCIINsnf1OBFlR4dkOUiWD21hVX0Wn2mN3xlw5w34ZZMxEDpDkj0DiS9HW4LUI3ARQfAVaVsHopiH2L0hpGaTkJBRFiUs33NYbO4OKbD8d/14QEFk4XWVGYnS6xE6T8RyNWKxDWy3PrGB4LQ0bI2bNg+N7/H4CylTaoPjROVmOPWAQBk/sQQQGEfgWR4Aebj0LznIDcjYJKanHkyb7NLshAtePaFAICCDo2x9TewL18QdouPSwlECdDZQQc4YAmYWD1F3AxXnYXojHFmI3QqL+3bOL0NaPX/wM6ghwZytQSlkIaZpyCIT1Nrx6B5KqQNRkhJSUaUVIPydAQICh0YFgOixiCxQZUjoBMaH3+f5XjuvXAxDME7NIbJpkVkWwbIx0G9i6cwSCHLLrIptAxYw3wYPY4TEeJRV7I1yY+MC9mxf8EmINBCUXKdRRmanBsR3IqshtjHbXQWm0CCOr8/AjUu/Tivrg48/jtne/ie2FQ82F146wdKqC6W1rQHjE7bmQNBFqSkKn3oXteMiVk7D9HhQ/CZEuWOhj9vwynFUH+XIWTs+HntbgWC5y04lYbR94vEImgyBKrGwYFVI3SQ/zMxUcP34Kb9yzBw/e/xA0g3wGPDiOjbd/31tg+j387V/cgztuu50Nse77p/vxgZ//Wezb/wx3YtCEx5GRYTy9dy93Htz63TehWl1GpAZQVLrmAfJaoT90yudhSwQAc8MZNBaaEBRqyXThuWSN7CE/mUVrpYNESUOnYSIhGpAVhYcoyZICp+mxPgByPD2xbfWwdKKKSA+RSOo87dJIarC7cewMQ2eRbVLO8bCxfIK8NOKuGYoDrf4ty4RC7o5hyC6XVtvByPpiPOVSpBZNctSMe31sy0ZttonxjTSBkrw/vL57ZuzZQfujOHDJhLp1Xmy1TAzCzEITR86sXPapUcga2LNzYmCUdNlIDTYYRGAQgZeLQNDocM1eLee5Bv/CF+kBriooyGnxIB9KeD0/xKG6D5koYgBdLx5sQ94ClLzGkzSwKcJImjoRBDSsAAdrLrp9DwIqLwSNNpSxoa8pD3DCr3cg2KREFICkBimfYXaAv+c/XlhPiAcm8Rdn3r7Y8FVe6tcKEIhZodKLRu6SggDdd3D1MCWW/jRJctvjJkFKINT2SfMLYm8HUq7zCKuQ2JB4wBL/+0V5J8WXjINEdJomzh1aRHk6B7PjQk8qWD3fwvCaMoYmh9Br2Vg+X0GqkMTwxBDsoMfZSlUU2K2Q5wxYaHHZhAY2EUgjfwBasRMhRNS354c8SGiuOofeWQ+JdAKZMQPZVA4ejSiWI4RSyPQ/z5ugrgqB2A8yH3LRsNrcOrjvqYNYXq5iy6atmJubxfp16zC3uMCCxy1XrEchX8Df/93n2QtibHSUt33LW+7Ac88/i+WlKsbGxjE5OYlmq84dAdQmGMkeWyuTpoASaMEoQhM1FlcmlTT7R1imhZ5tIplOIJlNcLsgASIhFLnTQS3SsKQef25BK3J3ApVEAjdkDwqyoh7dPAzLctDrmciuTTA7wHM7JImtjlt2i42WqE1yJDV20UacKwPk/EkumEGE6vlVHgBF3Sbkc6EZCiCR+RWxRwF0mTpALO44WTVrEHsSaxE0ReVuk1Ai62eZTbX61ATbiFO57rJtjq90rw9KDK/ySTDYbBCBQQTiCPSp0DjNCog8D865ZWjrR7l1j14kz6OcnFEETKclFPV41UhGOJT+FnoBznRerg+hn6sBXD2kopgQcbZB5YX+9mEId7YKebTAGoJv5es1AQQ6/6VVyIbKUxvpJVkW1skORqcS6HgdJLUUT+MjLQGBAFp5ku0zOSvG0yHj0cgx0KElJcGDWMcR4xvycIgtgFfaLaiaiCTy8J0A9UoTjUoTG3ZM8xAiprMtnwcDUUJVRfq3AEIYzynoek2mr0lPQOwKqf1pJUsUNrE4ClT43RBnDp1DYSyH/FSGxXEKifrIyZH0A4LK7yUYQ2UTEtGpsoim3ULPdZHRcnjg3oeRTCUxOTKBWq2GNdNrsFRd5mRZnipCTUg48MRRJHQD2UwW1ZUVjIyMcFfHar2OkdFhbheksgnNX8hms0iW48+NJyf6SKhJaKLOrY1tpwVdTKA+1+ROD9dxUZ4u8lwH8o1oNlrQyAJbA2sa0moKKTUdcznsagmcX5hH7USd45QuplDYkObLQkLGeJw4AT0fqxZ1IMQCx2KyxOwJ2YM3mi2YPQt2x4WsSRgfH4Gu0Uhz8DyGuCkmHt/NEy+ZWYvnlFAbJgG2RqsJp+GxWJKmSXLnCNtHk013bL9NnzUACN/KJ8TgswcReB1FgGj8sNaEV+/yw1UixsD2IFDbXl+cp4nAppwLQ5SQpHYxMX64ddwAJMA+0fTwNY0IXFfvTz960eqeHsa0gqZ+9L7WHEGlzpoCqS9+/FaG/1UDBDrFdg/eShPq9GjsLBlFGLJakPwA+RwwNpGNV4uiCpoCQat3JgwCOl2BR2DH1tKkS7jAeMShI0maSAOS+kN/7MDB+dY8pnPT2PfPR+BbPk4+fwrv/Ol3cEJjK2lVwvGvnERxqoBEXoMhUu892DCJ9pnMqGw6GfBcCyIYRPiujUAKuJzQXbL65ZAIw9sLSGpJ+IHHLoU0TyGn5jjJ8cwDSnCIV+ShQKZR8QhkWVBZwU9DKWmcs2BQNwl1JHhsOtRz43bBvDIEy7JYnEl7olo7tRySkLHltLg91GuGkBMiegLZYkvQlZiVYa8HiYSOBgv4eq4dMyYu1ft9ZDMpXn2Tz4AneHGSR9xFQToJeq9GJYYwnuuxatV4LHjtSJuZg1Q2ge27N8B0HO4k6fgd9LwuCw/J1ZCAH93HpAlIqAYaix34boShiQLHgt08WaxL+hsqDZABks+tirIsQ1QldDya35CHRKwCmYiRKFeI0Kl34NoeizC5AEEg1Pcx35lF1iBQowwAwrfyATH47EEEXi8R8GtNBB0LSjEDUdfiFUqHkl4LBtXUJeqTB64blmEIQMWKUNZpTHJcC12wQpxr+19rQ0xagtlKrCMgjwGeXqNAHcpdshuARITe0irUNcMvLRV8Cy7EKwIEAjVdG269BYmSva4yqCH/A3rJnoerhwKkM2QCRYaHNB8wZgFc8ijoj3AmMxyf5zzQmGqZKWka6MRqBHI75JU6KfpjbwFaSRJTY4bUV69h3z8eRiKRwSINXXrb9Th7/CwbKtEq2e26GJoo48Ajz2FkqoxOp8OTH0VZwvJchccjk8hx+7VbcHjfMabQt123BZWzy0gX0qgtrWLtFRPQyMaSZmJ4XbScJncYUIsiJUVadVOrHinqm24jBg598WXTbjP9XzlfheO5XHcn2p2mOpLrIZ0gmRrNnV9ENldCu7eKYrmAer0O2DJ8z4OSEGC75HEQIkoFkFQRRaPIn0seAwSuyJOBQAuVmmg4EnkHkMCQwABRKRqxNmz17TCIoNo/tVdS6ySVvCjDk0FR1+tetGSeO0ktjyK7TxoJBW27wxoQO3J4JU/tomTNTG2L9N7VpSZPpPSiCONTQwyCar1VBs80QIo0JioU1Jfi0k6mkOIWVRKWDo3liESCH9CsCY1tq1VZQqveRaPa5nkY8VgSYm4EtKw22l4LGS17eYCweeMkbt2Yv/jrU1uq4u4Dy/z9oMTwLXiqDD5yEIF/ZxGIbAfu4iqUyTLEfoLjU2DBoP/VpCcAVw3RwxI43fbYe2BdRsJ4SsCyJeBQLV6NksiQXAa9egvKcB4SDd6hBzwNHSJ9QbsLKWmw2JCYCv53qt83OpBLOUgZWkl+618vBgh0XqTHIK0BZexIliCnDYgJI3aT7JspaZQM7S7GJ5NI5nT4tIQmajiisoKMUKCuBZFd/gggxAqNGBSQUp/b+6gLJKQukP7wqP4EC3aYpuFIQZOvz3P3ncL09mnMPD+PtZunceipg5jcPIFEKoFe20Iqk8Leh/bitve8Ccf2HsfGqzcxVb/vwf0oTw3xIa9ZP4VOs8PDmWj2Q7aU5rHGJw+cxfgVw1A16jwwudZueTYsz+RERnQ7lRW4Di/pDF4ScooBBLUs0spY7Kqot1YhZCMkNAMJMYW0nEUiYbC4kZbrK40amvUW8kNZyIoMc95DclRFQkrClkym6wk4RXo8CTSjkfFUHE9iDojFIIaAPp/ACoGS5d4Slw0MRefJkcQOELBiKwoyZaJpjjT8ixidyOf2TIrrSGqUY252bcwcncPo5AiKw1l0gjZWzBqSVM6QVXZn5ImgbgS352OpWuWponpeRXmkzDNHaJ9kbESfwXMh5BQq51YxNJmPB3KFISrnVzC6jn7vSL1D1zqC75OVuI9Ou4v2agelqRw7U5J+ghgJOl9ikRpm/fIAgS62QtC+/6L6kNs3BBkAhG/9Q2ZwBIMIfFtHIAJT43IuCYGcAfv6gnhk7+VfpENYn40w2xGw2ncp9JZXEdkulInyRd+Cr9mT58NZaULo2Rfp+MjQoJRzF3UOl/1kFh/2UQyXLi4YMb1IpHjZHb38BhcBAtX9ezb8pVWI2SSDmNj16GtfNNo54VjYOgwkUwqq59sojWdg6CQoo3wmQOiPk+YHPp8Akd0EGHgaBZsAUfuj45Np0FcHWlFCJFaHkiq9y4y6cP0AZx5bYAfChTNL2HnDlZg5NsNlhqGpIirnasgP5XHw8YOY2DKJpZlFXHXLTsiKhOrMCg9/orHQ6QwN/qEhRiKsjoXJrdR1IWD2yAK0rAp9mEoFOpsAUV6mfnxe1ZPXgUzzL9z+aG6FV/NUXhCj2Pmv7XbQW7GRyqaQ8MkSWeJZEsRWKEkJDafO+gtK/NzWSXM1OhYPQUomE3BDKhmQN4LDGo2UkmAQwlbTFBNEIG6G5jHEnQOxOyIJCHmoVORzmYMBGIkE+2239FkEwFJamgHPXPc8MzLUrpmjcdKBjcgKsXRuBZEjYOSKIkz02C47Y6RhWy5WF5tc7iBpbmEsg8gFus0uNE3nDgdT6jIIJH0G6SRIhNhZ7HEnBF1Lt+MhIqEnDZwSVd4mvqvIL4E6GhwsziyjMJbl0dt0P1AJhs6P8nzdehUA4ZXu/wFA+Fc8HQZvHUTg9RABGl5zvgJ1vHSRKUjLInpBfyASrbioh53AQ9/z4MVhoVx5AVAQU0AOi8RGXDA1etkwXuguoA0u40lwcR/9ZB2QVsIixiJiFoIGA4R+AMVQIRWzcbdFGCJqdBDRFMRUzFhc9phecLAEEJ44PQ9/oQZJUyAM5SGqcQnhhcdD45FlL8Co6mJ8SEEqqcAJPfQsG61ZCyNrsjyNkUc4k8FPSFoEcteT2XKaaHKup/OQKYIHISI2hwqYaaBzI4EgbcerVlplhj5W7RaSUopr40R5U9kgmczAbZN9j4tM0YCW0mEtu7HB0vll7H7bG3j1KQoBXDuCoarwxRC6oGJ1ocGOiWoyZjloZsOx/aewY/dWaCkZQiRR5R6mR+2oLtJqlmlxEsuRCj+t5XhVTyLWrtfDql3jcoAuJKAGOmQuScWr5NXFFtIlA72wy14AK2aV5yBktAzq9RbK2SJsyWb3RDJPInaAalRjqVE+NooHdSMMJcucTClhUq2/0WugZq4gpae4/ZFKG9QNQH4INEXxAovAU0IJ0MkJZjtq1grX/qn0EMPOCAklhaZdx+zzi2wiNTk9jk7VROjTaHEPw5MlmFKHzY0KiSIzFhecGesrHSzVlpGfSKGUGIr3SdbUIbA628DoVBmqSiZeEazQhlnzceiJw7jhrdcjnSXnURqiBTbRqsytIDOaZJGrQOUmgpRcrxuIFF8Pj+jBOQ4i8C2NgLtYg1xIs/aAXmRNTNbHvEAnQ5sj5yAnDa6xS4qEwHa5js1+Ay9M7EHAGgLB0CAXSVj1DX6RvfNCLXZATOhxlwM9J1smXNOGWs4h8oLYRrl/jKDtiDq3HIQ9i02TZLJKvhwg8QNcP1bEl/adgEy6jKR+8T2i7yMZ0BCgECldQD4lIKGoELW+nS8bNxGpTYfWgbMcojSZZhpZCMBDlqhXnhK7IBGxHbIwjjsXSHRA5QsGTXGLZtzFQAAhNp+KuZKIQQi1PtInydBgNRz4kgdV19Hz2vAiAhgq/CrQWuxgbFsZYiJCQkpzgqdPoU4KduoLQpw/NI/RyWGkh2iGAH10hOpMjWnu7No0RoqjcGGiQSZGigZVoITrcgcECfao1JBUUjwIiXQGhmogIRm8gifTHzpJ+kwqodSrXSTTBBpoBLODmlnjlklyZFyuLMPQDRhpjffjRg4fpy7qXFIgRsFQEui6bQwnh3mMOE2oJBZiqbvEw42oI4PKALEJODEvAbd5xvpPgV0V6WjIyIvofzbPInMkr8laC9JSxJ0DGsx6D+fOzWF87SjyuSwCMfYjoAtBjALNeiAGg4BKWiePDhFW4KBdaaM8OsS6B2Iy2k4bqqjw+RPAozZNYmVEUeES0eKpRWzbvQ0j0wXWoxCT4Joe2s0e9CEVc4eWMTRWRGYoBZGuraReusRw5PQKnjwwd9nfvrGhFN5+66aBD8JlIzXYYBCB128EwlYv9n3PJr82cdJ45mqD6+tiIoGw3SUlFQRFQeC6/CcBC7KCo9kFJHQUk0YMDi5Bwf9rI+zOVSElNGYIvubVNuH2LKgjhVdO/FR+nSeAQQAm87LbsinTXBW37N6Kr1QaX2VOohDJ0Mf6dIRsUoROk6DEviEOCwgj9HyLuzvIIIoSPa00rVYAVZOQ7LcfeqHHq02iwIkSpwRywSqJkkvc3MjtC7wd+SVwEheo/HChFZ7a3OJxz0T1E0wwqwH0lMwUNmkGePSxF5sEVY81IGkSckNpdgCMxAhpUvQTXR1FLPKrHG1gfGIM2XKaqfHYVkJAbb7B5kKaqqO0PgdbMHkQEa3Gqa0w/rvLQ4+424FofTHJZQFdVlh5T8yAQEo8BgkCU/SmaSJbSLNbIYn6knKaz6XaqcBccTEyVYpnLjghWyTTaj8UAmgEECGy+LBe76BQzMI0LWSSaSzVKgjlEILs83GJoYRQIFGogkiK0K6byGQN/jwCGjzuWTIYeJGXwopTRVrOcCJnPYAXYPboAvIEkIbKHHwCLQm6xiHN6lI4ziR8pO9VSWbAYLomolUJ6VGdSxkEnmguw0R6knUJdN2SisbnsbrQwbF9J3Dtd13FnQ29Vg+LJ5fZ7EnTDSyeWWJ9Rq3aQHE8h9ANsXHHRhzZe/TSAKFnefjM/UfYzOLlXkRH7dk5ju0bygOA8K99Mg3eP4jAd3IEwhDWsVm2TiZBYazkilibQII8bXrkkuWFcKUFq1rnbUVNgbFmBLjMrIIXh5FbHUl9TtQ7Gce8nPiB6u/nlqD0h0PxfohWdnzAsplC1goZRNx3+YJBSi80Sep/uH9+GRLpI15m4JJHjErSwBuvmI7HPZO4kCYZwsHUmAZdI9+AABq1qZHDYeTFNfQoQNvsIqHFo5dpMBGdn7lKbngBMkMJXqnHdXKyzSWXJJG8kTg5xRa9ESRB5f7+2EiHzJFkQCSrZlK5xwmdvZREkW146XvyBVhZaENPSlB1AxG12MkidMFgy+H5+SU2AWostqCURRRGc5wANVnnlj1KmIEloHq0jg1XTUPU43oIHRMJEi3HxJl9s1h7zRgUTWNjJRLSqaLO1swEOIj94KTcBx3UfXHBRImAhkr6A1DM4tHf1dk6T6MUDZG1FXQM1DUZ+MDC2RXkhzPwWh66dZp3oMHpetAzOjJDSQhKBMFV8HMf+BDuuuuj2P/sAXzXHd+Fk6dPQlM1TIyNodvpQCaBpeuwH0JxuIB//vz92LV7FzJ5A47tccthJptmgEHCwZCOI4iQTqYQCA7Onp9Bda6GzdetQcEoMShhcSXiYybdhkaJnoY80fwHHimtotJdgrnkwi/aLGykIVfENlB5h6ydqQtE6wuCzx5cgGrIKG8oQBFVPPX5/awdOXvoLHbcsAPNlQauvGkHDj99BKcOnMYd/+E2dBptZm5e4oMwmaXBFhIIJJCt5su96JcunSRbywDzbfM7+fE2OLdBBAYR+FdGILRdpu956KIoQA4jCCTIy2demQ3ghN4vrl+Otr/EMZYNBd2TM6icmsP0NVvhlQvsvBg3BMT+9boAtM8uswmRNlqMf0bHB8BvduA6PjRFwqhBx+GjFSVh8dwDYFS12IRntu7DTMVzHPzFGsRUAuKluiVIPEaajKkyblgzgqdmlpHodXDltIEU2ejSZ3MNPF7d08qeSgT0olU3Udm25/AURgYWULF4tIHy2iyMpIqAKghcNoiNcfh9IZUNqHNB5BY6AgjslyRQ37vDqnZZIobC47HOF6UbzHLHbpVOx0ez24KcB3xPQEEvxO58Es0GiBBJLtQoAcu2MHt4mf+c2DSOfDHD1DsF03ItVI83QZo+X3Fx6NBRXHv91RjKDqG13EFzpYXJK0Y4ritmhbsaqP4edw4UWIRH9L4hG7ElsETTEImOJ2OmHvJahuv81NHhmD48mqORCNlwqet32CPBCS0uqVTmGkiXaY6Dhu4S2TynQTipMdOGmlSgJ2Wk0mn85af+DhOTY5zc9+zZzVMO9x/Yj/XT6/HgA/+Cd7/7XXj40Yexfv06TI5P4f4vfhE7d+5gbcKRw0cxOj6MYraEJ556Eu/6wR/EcwefQ7FUQDqVxrYrNqLVbWL+6DKDu8JkDlk9wxqS2F5aY/aBrh/pGAjIdbwug0bqqliYXYZUBNbnNnKHBG8jJpGUlbi8I0s8o6S+3MW+B/bjjve8mc9j7wPPYO22NTAyCaTSKbRWGnj8H5/E9LZp9LpdtrnesHMDagsrLwUIqiSiSDTbq/hl9MIIqybNxn6VkuR/5UNm8PZBBAYR+PcbARIYwvNjzlyV4xX2q3jOfL1nrNIQpsMnkM6mMLplmlv8WvUWjHwSXtfhlkvbtFE9cgbl9ZMIFRHWagtT68YxP1uB1e4hVcrDSBuonjyPwmgRW7aUceTpk9AzKRQKeWTLCtq1Htq+jHOSHhMPrR68VhcqTYd8EYtAds7eYuzFcMPUML58bhGbpB6m1gQDmkYAACAASURBVFBrHWElWhVTYyI9U2Omgr7nkkBEbAg7GnCNv+23Y8HenIih8RTPTqDnthvSyjv236eFHLEF3NdPNXFuyYvBB00hJDEe+SIQO2E6VHtX+Yu+J4qfjJd6bRutZRvD6zPwRaqF02gn6vd3mfpuOs3+nASNHRVJ3EbDls4enUNuMoVk2eBkT6vhoCHANR3sPbQfjUaT6fF3vfv7UDlRw9D6PHydyhwiDwpyGj6vzInyzxdykGUJHk3rjAIuX7A2QpJh+l0udYylRhgc0XlS2YPr61ILup1ggyaa/G0GPRYTNpd60DIynEoAJSUhm09DkiXWblAO7K5YSOaS+PvP3YtNmzbg0ce+hJ94349jpVrD3qf34tprrsXps6dx6603Ye++/bhi23Z2ODx08Hnsvv46HD1yAs8fOog9b7we5dIwDh8+jJtuvRFPf3kvNm/ZhE67g21XbmCxoGu7OHN4BhM7RlBMFy7qGOg86bqRXTiJBonRJ21GGPioNqpot3oYnRjiYVYEImg6J4/BlhT2a6D7hhgiu+mhXe+htdrC8ESZJ0HOnl7A8BQN4UpjaaaC/EgOqqICaoT2ahelsSzmTy29FCB8vb+Mg/cNIjCIwCAC304RSKoSVh9+GtfeeQtmD52E07GRTBsoTIygUa0jl03h+P6jGNkwgfnj5zA8MYyu42Lbjdfgyb++H7u+/1Y8/MnP4w1vfgNW622s3bkB3lIFvVaHZxFcfcvVsKweZk8tIrvzClRZ+BWXJvxqE75pMzUfD9WJHQ1JaHZByEhdDEfOz+PaSQmSTGt1WuXTFynqY2tpopPZbCeixE92xcQMxOUG0gGQu2DnVIDhdUXoCRLD0RhkOg5aSVOZIBbQ0T6YkRATTB3T/ng8sUxGRDYzwXWrhtH0CHRJgx26zKIQq+CbIbfbpbIGeyq4oHbB2Oef6HI6TjIPIubBEJKwox7/STMbFk9WMbQpj27VpDdwTz/15X/52X08LInGE++65hq0l7sY2TQMM+wgcCK4to9CLh/PRPA8TnL0Xhp7TGGmsgeVGEgzQEZaNAGRxj5TSYMYBQrZ6mKHnQglV4WkCFAKEk9tpHOvnKrzSGuyYk6lk9yCSLFjRsQHzh2ZQ3lyCOdn5/GG667Bw488hj037sbjjz3B5abrrrsO1VoF09NTWJqvolQqod1pYmZmDqbZ4/ecPnsWjdUGrrpyJ2q1FWzcvBH7nzmA+cVFrJ9ei81XrOOR0RTn+aMVaMMS1k5Osq0zJXc6CRJs0swJEjOSDkMWaLy0hdpqk5mVNeUpwAZa7Q7MKITug30lRJoHRUOXqBtjtQvfj0WOVFYh1iWRTjKb4AUOiz2pe4XuEdK5UFeHRhoJglovHtb07fQLPjiWQQQGERhE4OuNgCaK6D5zCGNrR1HeMIED9z6OsbXjELIGWnOrvJo6c+gUrrhtF5dV558/AVE3oJcLOP/087jqHbfgoT/5LL77R+9E1/Nx6sn92LhxkqftlcfL7IN/76fu59HI4paNWPX64yT7B0xGNXGXwAVPg9i6lxz5BEkCAYRzs/PYPKaB/IoosVGiplRO3Qe8Lbvb0SAl0m8GUBQJqijCDqkVMP55u+ZwdwX1yhMIIBdFqsNf6NvnEcqxcSJUKYGea7LAzwsspNU06xtIqU9L14BYHu40iSdDaiqJ2lwINHK4QKOzY92ADQtGZMBBDDZIQNhyTN5PSSfmJAKNzji7b5aPlYYmFUbyOH9yBvBEjK4bhtkx0VkxeYZBupRCetxgCj9VTCBlJBlYeaGDpErGVhGWT6+iOFaEohMbQgrHAI7v8jGRmJG2IRp+LDkGUY7QrJjcFUPnVavX0Gx2uHxDAIxaPic2D0NVY7tmnkvBLQgE4kLYbQuiK6G+3GHhHnVeUACphNF2WzBUvT/bgjQUMo4dOYNKdRXDW/KYLq3jz6ByCPkp8D1AXRCRhs995vOordTwvp96L2sQeDopjZluu1g4t4SNV69Fzog7HGgfMtk7O1TCDzh5E1ig8oPnBVg+tgLf85HKJ1EYy6MV2CgaBjwrhKwLaC33+OfltUVYPQsWTeUcySOgQV20D4QcL57xIBD40PqmW6xxZE+NAUD4ep8+g/cNIjCIwLd9BEqKCG9xGV7PRjKXQXK0hMrxs2w2ky0X2E3OaXWQHxuCFETQAgc1QYHqekhPjaB+ahaZfBrVhRWkh4soZRPoLi9B0zRs2LEOX/jUP+HqN+1EkPJxYiUJj+rtF16XKZ8QQHj63CIKgYtMYCGZl5AoxMpz33dQs+oYzYzE3v7URkeufALZ5IqcjKmmTiUCs+7yipEoc/qeFP4SifqoyyEgFiLuyQ8DEbJMTpVd1HorGEqV4gmCIfkPkB0PpSHy5I8gRSSUdGEoGsyWC0kVkEgRm0Fghbz/qU9RgOdJaHY6SGRFREGsXyBA0/N6UOQIamRAkgTIZHBEoCP00ap0sbLc4AmO5bFh1Ct1+J4Ds+NgfH0ZalqCRwLRKOBBR27kQgokLJ1exch0iZM+lTe6fov1BJSIScFPrX20+t5Y3Mi0fKdhwbF9FEezmGnOoFO1EHYipNbpHJP/n733irUsPa/E1s775HTPzalydQ7sZs6kxKFIQaI1nhdrrAfLkI2BAQ9kjAEbNgy/6cUPBubBA2PGCrZHkIYYpRFDM6iZutm5q6orV3XVzeHks3My1vffokSO5DH05GKd02h03Vv3nrP3v3fv7/vXt0LNqktMMokx0nyZik+hOBs6jJTvHSGZJqgv1hGngZyDxRwRKmvYvNFVIi9w9fJt8Zior9gSnOQatox3iAix8dBzehiURYHAcQvXNn8w+slpM+3j8EYflbkSTq2vinW2ZEqI4VIuBERyM2gORb8IKlPY2PF9OHbiMffDCaq2C4fyRDahLP8aTbFCiXnOIw3NNtU1HFKxKQwFTeB7lG1XEVo5lsgT4aiweZg1CP+/f8TNDnC2ArMV+PuugMQznOQ8cMdN0hZnzKxviR8iPhqitrkou3GpefRaoL8+VQ1xChwNUDSq0Cc+0KrDKhI8uWCi2rYxOUxw5/IdPPmZ06C08K03p1hbacGxDexNCozTAgWZ5Ce+Aywnf1Oe+dG1Lq7e28JqNUe7WlFcAD2S4sYiTGMf4g8sUoTRXcsVX0Sej5eEArHTH2Fw7MmO3a7bsDUS1ES/KGRGnhb5CBw7sJBEWYr7o20p9Cu1Ncm6EAfGk9FGQsUEfz/TcPD+UHIXkAKdVcVxEOMoIXgqc8njQw/f+8Gr+MQXXgACG61WHTdu3EGz2RRJ5HjgoV4u4/Cwj81Tm9jd20HkJyiVXcRJguWlFfz4x69ibWMV850u7ty4h9pcBfPz88gSIiaUYeqSvJjSkIqNjlag1WogK0fSHFDiF8Uc5xioGGVstjak6JGo6A8iSXU89A5kl647OhrluowmuC4cKbAAW9K8KLSG15IuimzISDac7HuoLpdEARCQw2A6MNkgcOAiqIIhx0qFSW7R/dESHwU6K5LTkIgVNoOhhkqFoZEnoDIbqENhc+bqDoIgxr2bW9IktspNcazk6ImmV2zwvJRulLy6JGgyiVQTLopEoCee3GdEY0h0JPeA50E7afo5aBGbCEjzRUmmQo1CQSmYAEqLZQJeYs99kkNB34xZg/D3ffLMfm+2ArMVeLhXIE1FUaBVXBjMO2BMr8GdcI6sN0I28WHPt6HVyyjYTDBPYmUOpdEQTz/uolmbh5YXGOMIURSh8C00W3Voeg6zcBCMCQVzPs4HryaJlFsBkNI8J8vxoVOLSMM+MioADBuuYSHRYuEWcEdo0fwHBQ6DIzhaGTWnJk1MpmXCVH9A8IyiBMEkRrtTl6AmBjapuN5MCG9qv5/L7pqFZBKPxGDItjjrJkRuix+BzL0LIBznUowNV5d/604VOg2XckooSZw74TdowP7BGN/73qv4pV/+HF7+7qv41Kc/jv/+v/0f8Vv/xW/h29/5Dp588gm8/trr2NzYQK3ewHe/+x288MILSBIaKWn4/Oc/j5e/97Kcy4Vz53H7+l1RVswvzat7Sxn64Xvf/z5+/R//J3j5uy9jaXlJophf/NjTOAoPxESIvACe7FJtSYrwKB7B9JlR4CB0PNSthhR/vhnRDCY9PkA2iGpQvZFkhYwL+BI+hVkWn4LR0RBWh4ZHdBlUjpNskuIsFTRBxH7Mt8hT7Hv7aJXm4GpsIkgozWXswiAm8iFKRllCnsgnERKo4UpDwb8nYXMwGiA5LKAnOuy6ieVT82J0RHSEsk8JsiKZkE2dcFZ4P8SCgvgpFRoQPwmuD/kNbFSoc2UY1eRoDJMNQtkUHwZKSIlyjMKxGCpJg0HuCaEKWkzrMwTh4X7AzY5+tgKzFfj7rQADnPZ7yB1bbJPz0RTxYAKrWkYy8eGsdmHWy1ivMTCIYVE5kmmA4PYeyo+t40k3wdKiislN9KnsAplzUDXqsjvjjpxPa4lYVsnLsnP0mbCXUI9voVVdRBAMBS1gMScBjSOERPOR5hpccJfKaF5gGnjyWY1SB2keSkFnsSNisHtnKHr8Ny+9gZXVNTz91AXkBSfMOfwkEQ+E3YMDLLTm4JQVHM0dKXeLR14fnVJDAoK4k+aOdnToo9xwYJUs+drWSnJuOQ2WOXYwGMOtXB2PDqb41nd+gF/5ypfx/Zd/iOefexb/7J/9d/if/uf/AX/4f/8RfuHzn8crr76Kz/3Cp1GvNvDVr34VH//kJ5EkASYjD888/Syu37gqJLpKuS478/2tfZhlG2HIdUjRqDWws7eDX/rSF/HqD17F6TOnce/+PTz30Sdw4O2r/IgsR61cQ7PSRIMKh0zD8GAKp2kzoUrkgtx9E0HSSUtgoSfbUStU6iE4g1euj0QkDDormragF3v3d9FeZvw0VSEmdJ1UTboVEiGgAkTlV0geAz0oQGSnJAZN9CggEZBoiaYbwv2wGF2d+5IrwfUkajPnzssx8R++nxdNMd2KYJRNlOdteR+iGlSCcIfPJo3SRr0gGqDGPsNoJKMXqhp4PafxFBWzolCSLEF/OkA+kTkSOgtN7HsHqFaqIhulOyURKxpRcZzFRln+OyMp/v2eL7Pfmq3AbAUe3hUQB0dNg9lt/vVJJBmSwz7Malk8Gvg6UzNQtXTs+RkORxGmV95H5bmzqIwm+MCFqrDmcxZPsc11IZnVYNGIxXdfRgX8VsZdt8o/YI4BC1G1tABv2hffJcLNLFaalokzH3frQmSno59lCnmQWn/KCIWTUCTCRSDZ7vDOFLGW4tXXfoxavYYnH3sSx71DBGGE02dP4fr160ISPH3qNN5991105jo4e3EdSerJrJ88Azkykuk0Df4wxuBwgrVzcwiKWKB2aWDEoIhIhCUNwt54G3ZWwTtv3UWp7GBlfRlb72/DD0KRBtZrNexs78G2TPSGA1w4dw67u/tYXV2SQh0EAZYWVsRXgKGAzzz9NN555x0EkwjLS0u4ceemmARtbmxKg7K+sYG3X38bu3t7okA49/y6IAGSa8CwIsNEx1GFfDjxYCQWUMnUdSYrn9kIVlkhKzpDmEyRBpKU6Br8fnpiwkRnRJILlSfFvetbaC82UanTIZEqEXpQGALREwVQ3pQFpukULacFh3pKFIIYcKfOxpDXnb9LTwvyAqaxp5QJkpVhCJLAkKgoDZCAtskjRF6Co9t9NDaraDbr4vRItEeOk8ZQEj2tPCaEf2E5EiIlfAWNaAiRBvpgJCfmUSpvIvBjFGGOw4M+zvA+AP9ek3uwTI8J3o9MR52pGB7eB9zsyGcrMFuB//AKiPdCRBe/UGKiTzZ6SHpjlM6vqgAp7vLFNMBAzrjlAsri+QThPslxlLyF9P4hrPOrKIUhPny6KjAyZ8CShKgHsEATHxoWqOIuDYIEJamY5YKyQbEwBsqlLgJvJBbBfBizddCo14eGKOe8HZIRQE7COJ5KMSfvwNLppKjLqACRBst0MZ36+IPf+0OcPXcGn/nMp3Ht2jVcevcynnnmaZETkoC3vLqEH/zwh/jAc8/h9LlVjPoDbibRmavKOQep4izQA4DnVOoYCPJIZHX8PMYg1+2yEO/YoGSpD9euyueHaYJjvydkN45CaH/M4+cOmUWx5qgkQWWvTF4BmyADDl0dBUFhNLUu3ABvEmJ8PEGzWxfJ4fa1PeEXVBsV3N29h9FohKefeQJRdSpkPDZp3Hm3Sq2TZqpAHlGuF0iIVclks0cHSRVtzULIRkwvaDw0keIZS2BTLuvNcQT/HOWhzPBH3hD+foTmJjMmmHHAAm1ItgNJh7Lrz1WoFPkCbKSIQvBn2BQQFeExpkUk3+ffh3EiayXrpJEySNWISpsUhUkeCSIQjCNE+yn0so751ZZIGPk5ysZaF16E8CF4zzLlkueSxegFPVGosGllLHaURFisLkpjxgRLOm4G4wBaaMp4rLvcRmZnEl/N+49NFM2YZgjCf/gZM/uJ2QrMVuAhWwE2A8XEV3bOugabuu8HgUgkKVL+JvG2J6+TKMR84iEb+cI1+FkTp2w4BbwQxsocnP4QH7xQRkkKnyk7a/Er4K5LBSRKLoByJVJJilmWKJ29NAMZqu4CPH8gv8uRBIuPaVIeF0mCZJjEqJolkWCSpEgzIPFSkBRnTXaXpm2hvdnAqO/j0ttX8IUvfgY3r9/B3ffvY//wEI9ffAzzC10MewN05xckdplNwi/94ufheVOUyiUhrtGKl6gFxwaDnSmqK67MoFkoOB9v2DXYFgluJtjfMM/RIQ9CkHXaQafYnxwLA369voIoZWMRinyz702wVOtKIWOFNgsNvWCMhtOShEQqJsiqZKwzXQ8LM5LCyrk61QIkW4rUUU+lsPlBgtuX7iniJvkTjoYiKXD6wiqssolpHEDvW0hbMapORXwdOE5gU0Mlgm2WBAXhmICmUr3gUJo0NhtsEHg9KC+kYRO5Icw96N0aorPREkheTll+Rpc1otU0CYFEfHi8OrkKKdczQ2GwmeDtRhIgvStCmBoJionYSbM5cDRFEiQPgk2NWCzrJqbJWIiJXG9vOxCFSfdUU2SRdbchx8prVrIo0xQhJGpOVeKl++FQ7sWyyfNnAJUPW3MxCUcEP8RDoVuaQ9mq4GD7WJQhzW5ViLA8X3UfG7MG4SF77s0Od7YCsxX4u1aALnpZhuxgiDwIVTpktczB8f9nx0aSEemEaPxMMBMbjnT7CNbqHB1oYMQJ1qI+Nh5vwkVNio1yhFbMcolSNjnDJ2GQe0w2CZD5twyBUaDkLmDq94RExkLM3yn0VAxxJGDpJBJb4oTZ8BDeNzleyBBGMcYHAdwFG3W7oeR+YYzMCFAxG+j1hqhWa0Jo08xCRVVbLg4PD2QcQCthNi7j/hRJkKHSdcVumcd/tDWB0cyR6onskgkF1B2VwEh4XLqeE37FA48HyT6IeoICNOwWoiQURIKMfz8J5Jxqbg021A6YCIJt2qKu4O+KDDNngdaFhMnsAcLnXMsgCVF1SxjFQ8RJLkRLFkYjMZElDFqyUTcaooCAlaPRaGBxdQGaS6KdIYWTnyErX6TCFyBRkC8JVUpjgfbFoFrjOVqIsliaCPID+Fl24SI+yqC3ChiOjppdlfdlc8QRDI+NX7edDuIgw+237sn9cPaZ04jCEPU2UYlI5vyGbmMyZq6FgzhmCFMhnhDtbh0+prLj53jABI8jlHt35I1weK2P1kpdoSI1Elg1GTvwmhF5YKy1kisqfgRRCPF1QC6jmN7dISbHHsqVEirtMtJxiuZSE9EwxvpjSycpleSiqBEGm5QZgjB73M5WYLYCD+8KsClIUgl9Ssc+tDSDwWjpJrPtVWTuT14PLA1/BjX4myefeyHie/uwV7vQGSzFXS9nvAd9VhOYRBb4ynOcjnvYPN+CkZVlpq1ikynDUw997oplXE1VAVsEMb+hfJHcdqBeWcR42oNOz4EiEnMkiSs+sVZiTDF34RxfNN26/Jd8ARYsP4gx3vGwcKaBgud50mSwuPXDPipaFW+/eRlxFEmGgOvaSEUiST4DpZyRACR0WfT6EZI4Rme5jiRIEY5TlLqmMiFi0TQ0NOzKSSFiQWeLoHgUD0YGDHWaxBGKtECnWpfdup+o+bpYH2fq51nQxCGyKMG0CJFrCAKljNBtRfbTyLEgZM+ZvawVQ6RMDIKJ7NI5opFwKpfojY6SUUHFqonU8N57W0IYbZyuSPAR7ZklsEtQHoXuCNEPJ06BEo2cCQowTcjgU+oPNkNCCtQNVM2qIjcWOvZuH+LU48sykSLngLt17tCJCHipJ81aPARuv3EHruuKlbFuacjTAmZZRxrmGOwNlXyxXEJ3rYMrr17D6qllNBYaaK6UhXipeAYGalZNCvcgHIgbZXCcQI81LDzWRrXJ40rlPHm8NDyyTVe4L/TIkLTNnByLDMNgKA3GwmoX4SRG5uWot6piwUw0au38AtLSA4ljLkgI76VZg/DwPhpnRz5bgUdzBVg0okRGCOk0UIWL+TGNCjTb/umm4MEKZRkQxtSAwUhTWGGCMIqg1yvISypDQV5k9098FCMPeZygOEk8ypMM7vKcmjqUHCnyT1U8NOdLsHOS0pRKgRJD9VJpSAUeFD2FEkhhLshEB2qlRUw9NgiWWAUnGs+FxcwQS2MWWM6Oy5Yrs2EWQ756/hDZBMhDxi+7qLbI0FfEMnHgyzXcuHIL/d4ISZJgbXUFjz/xmIww5HSob9czKcApGxbomPYCFLFqZhrzFRQ6OfJq/ymeAOIIqM5LBinKakHGJfwn9AvceWdXtPsbZzcwGQ1l/DEaj9FqteAFjPIGqoxf7k9w+P4xzj6/KYY9N9+8hXmmX5oaavWqxA+vXFyEn/cxDj3U3Ir4BgyDqTRMNacsCZEiyUwSgeV5VJQQHl0dYOnxDiJRXEQn2RDqSIlaEI7nyIGkRX7NtSCiwff1kinKRBaE4MfzpUMkDaNSQTK4ox9teVg500WmUSHiC5hCzgCvPbsXSij796fKzvnuAWrtmvAG5hbmcPOd21g7v4q7V27jsRcfw/HOMU49sYm3v/eO2Hw35qrigcDmcpKOMI4UyZENCO9x3jsBDaUGAYKDGG7LRnulIZwDXhp1zEDTbsufwzyU//oxyagZ9t87RGWhjPZcC1WzJmMHozAxPvAwHfrSPIVhiO7CHNordRXoNVMxPJrP2NlZz1bgYVwBgfr3+0gnHtwzK4CltOk/hRT87IllGUqHPeieh8Z8E8ssqJaBu3eOMazWENcqf/sI4iexhn/jDU/cEc0gwrNzOcodHXpmyxyZO9f9YBcL7oLMh6XfOIlcysQ2OIWmk5RGlUOBRmUJSdBHnluCIEjugRaJ/E0imdMMg7iPulOX7/FrZjuMh5wxD7DcWcBwx0d9xUHJdlSIU0YjKBvX797EtXdvoVqp4dy501hc6cLLSHQMpSloWZQUMtRHQfqcc+9e66G9UkO1VZaxAH0ChC0PW1I4VXuiIBnF21f8zmka494b+9i8sIlg4mNueR43X78hMkm76QCBhu0bW+gst9Ca74js8O67d/H8F5/CcGeC9167hs2Lm8jSFOeeOY/bV25j6cIcet4+WHdLji3kTz+ZCr9gsTIvTQspoGFCAyFPjl8b2Ah8D51TTZEYBpkvhZ/8BZIhGyXmEOjSoNHJ8dbNO3j2mcdQqrkI6VqYpQhyHzWrIU0Zz42/HycRTIlqztHbGuLsxTWV9MlRT8zmgTkH9JzQoJsG2qUFaRAkXCpKoJmGIDzX37mKjWdWYBWuCoYi90Q8FRRRlgRWvg+bDjZ6vF5xHGOaTVR8s+EiZTOgAYe9YwRbEcwNIjYd+X+A318oMQ2TltOGnD9HFV4wxvFwiOEND4tPtVCv1EXaOE4mqJhlMZ6iXJb333ji4+7bW9g4t4KV9cVZg/AwPiRnxzxbgUdqBYgYBDGS46EYE5mtKvQaSWuqZP3UizDy1EPmONBMNg9MaE7RHffxxOPLkmXQ2xvLXJha71GU475dFV7B/+vrQTXkrpMP/KLABWOCxZUyotxD2ahDz6hv9yQHoJQ3hA2ugASaJXEHq8prVFBnr6Na7mJ/8L7s5qi7J5juZ1NJ46Pn/wOr3Tymrz7Nk1I4VVtm99VGVfgF92/uwFgmHK6hYnGsQgdAwsvAeDQVV0RaGod5cMKupzWvmr2TwEbeAWF0jh22r/exdKaNjE0MI7k1jgAUsVA1BbRSVqYOYu8gagZW5gJ33tyHWytheuyhWq9gfmMed6/cRalaQr3ZwGQ4ltTCUtWF5dg42jvC6Q+t4vLXb+LsB86I8+LNd26i3W1LgWutsyGYyDFzV85iSqUEd9K0EyYSwlELEQiODnavH8tBzZ3qoJccy/kwhIptDNEXcg6YY0BS4TSc4v79HZhZCY1WBZW2KyZD4kxpVoQISvSBvAnKER+MGYzCwr3LW9h4ckXCnwjBhxyjGKb8mcdbt5sy86eagQ0Wj60fDREPM3F/5LiE78c15O5+Ek+VnXQWCl/DgC2kUFlvTRMUgKOCKAvE2EhCsaiayBK8f2ULkwlRrDl0Vruo13gpNOFP0M6ZKgQ2UsfvD+GNfFnHxXNt2A5lrZrIKZVdtLq+JKCKk2QSIzxM4A38WYPwSD1oZyc7W4GHaQWKAml/DKoHGM1stGrieqg9aAxUlYJBE5qJL2OGBdZuz0cvymHmGVbXmtjdG+HUWhOdbkUKCo1o0igRhj197d++eoxho6UKP19MP+RunbJGogsykogwlyfYh4miVZcfc5MQG26IVstGtVRT5khCQcxh5OaJBwLla1QvqHk9Xe/Cgkx2A/XSMjz/GHFKr31q7CkJJFUxEgY9g376O2PoDqH3krj2KVdGYTfIiGDv1jHcVTYUDGLig9+QdD4WM1Yhvs9xeCwkQx4DXf34CTwaIRzSuld09BmGu1PYVRu+6aFF8yRRXHB0XYftzwAAIABJREFUooYb5E1w7EE0g8qKKKWzH70RCiSpht72CK7rwLB0lNoOwlGCLOasm3HEqVhXOyUT/jBEbuco7Bj5sSXjjGqtiuloiuZSA96IMds2esExqixmhY1JNMUk9rBQnkPNVsQ8Xn6qGibHPo63hth8chWZlaPv94XEmWmJFGkufNNtiMGT2q3r8OMpSnoZBHqIKMg1I4eE+RLCz+BwhTJNMvo1DPcmyP0C46GH+ukyGnVKPhsinXyQvMgdO/kK5CMQQSKyQMIf+QQsvORgsKGiUoMNGhsRNgv8WcU7USZWP/GxlvuFqMIDtEalVDIsiuZVR1f7qC80sH1/G+X5eSwsl5DrkUJXUgOaqWP/YB/9rREuPHNGECM2l+SDsMPi5/P4OGZgQ2QZlNRaglTw/ojZkM1GDA/TE3N2rLMVeERWgFyAfcLvGUzaHdOv4G++uHuc+mglEVbmXFTKjvjxkwnOon/jnfswXQsbF7vI01yKFguDzIp1pSLQtBxJDnG5e+1uiph2y1mOcq+HzXYJ3tjHfmGjDZLvgPNPLOHKwRR+YcHVcyCIUGYTslJBtUEpnfIzQGZKkZCdJI1tkMCLQ7EsJoGR4UNEC6ounRR7sqM3hd2vTjBIyWRXnv+TXR+tlaqy/pUsBhYynoeKjmaQ0rA/QXu1jkE8lKJO+SB30I6uCil3n5ZJq2CFSrDKqITHDAFdAynnM22Mej76u1M0TrtoluonRVKtFXfXPDfKEzn/d00y/DP4zEeg5ZB24jtgknkfoEy/BMohc0WMpBKBxYg7eO5kaQNMbwBh3fPSiMeDjff799Ctt6VwslATCYniBNPYR5zEaFYaaLkNVOh9UBjwxwnev7aD5ceXUC45Iq/89ksvI00zfPDDL+Jg/xBnLmzI8cpgJDNw7fotrK8tYTgc4dTGJib+WMK3WMTDMJIRCIssG4derw+35MAuTPiTEK35BuhNxGJKAyLhorLBKlLlUWEociflm5LKKSwONmTqHxn0s6GSvAcdru3I90QmSZ6MeGpkQuTk35NwSCUFP4TNQziIYFZNGYVEOxn+4lt/iS//gy/B8zykWob1M0sIxj7iUSFIEBEOo6Jjbr4B11JujLRs5u/zHuKaJ6kyUqIt82QcYaHbxa2bt7G5uT5rEB6Rx+3sNGcr8FCtQOFHKPoj6Cvdf58fkOWYG/cx5xiY9Kc494FV2LYpMD6Lvq7ZiONcom5hMVyIu2Wl86faQJj8qYr9JZtcJHo7Pq6MgUUtxdnTNbj0u0eBO1f2cPrxVVy/uoNmq4z51YYQ1/iQp9tgbY6kSBOJl0I3NZiOeVIWWPU5T6b4LYMXc6xgIxhM4U1iVFZNtMpruHd8XRQKTacuxEQiHJkWIMxSkTkOhlP4/QDdzYagDIT8aY7DFws0i3Y8jpBS7tdgUc2FTGfqjsDMLNBsQCgNLOmONCtUR3D3WHdoepSeFB/AH7EgZ6g0FSFSuUSrACNRGQjD/6TwEf7OAsSZjvsDHcuNUMhwbIJYHCnLJJOeQUVVpyywOYtQkpJ1z1l6KlHSId0h7ZJkHthwceAfoO7WlM2xXuBw3BMyIJsvZiy4liM2xnQLZPHs7XgIfB9zmy0pxNPQx1f/zz/HL3z5c6Jc+IPf+7/wlV/9VTiuhWF/LOv17W9/C+cuXEDixzh79izu727hcH8fX/mPfhVXrryHKUdUWS6EPS4Cg6Oe+8DTnA2h1HRP3J4KCXviPcVRBNe3YlSEMMmwJCnwoC3zyThGPBbY1NFXgqmTjhR+chsU8ZP8kUSZNWmGrC2NnNi4sQEZx2OMtsbo3x/JfW5XOGpy8Ed/+VX817/9X+Fo/wg3b9zCa6+9iReffQ5RnuDFF1/An/z5n+FTH/+YmEzNdRvy/xIVG2xCiEYRveD1CuIAtmbj0hs38NjFi/jf/+W/wld+7VdnDcJD9dScHexsBR6RFUh3j6E1qzAoNaTkbDJF4jrQbQtmb4jnV0qCFjwogDLnF4hWzVQJxYayO+YUnpg83fuESKBCdDLCyjTm4c6RKY4a9u4N0FmoyyydhZM8AM72+evHe2MYroZ6g6E2aqvPHWjmQeJ07YoJq3AQTiNYtinhQZWGizSi+QE9EHJEUQoSzXmE9MIvVZvYHdxFNatiNJ6gUW+iXFGQOwlqAt1nMcLdFLVl2uyaInPkOEAgdslWokRQQ3/PQ2u+jpzOi3RizJTZEJsKKiQKiQMeyblTDsfZN5UB1POzADHwafj+BHOn67KDplsjw4fYHFDBoIiVjAJmZoTKAmARZDokz2gQTNG0a0J4Y66COPJRfQlg4A/F4phFnbJHjgsI+UOjB4HS3Iv6IlPRyCzKhLk5Qz/ye1I4K05ZeUMgR6vURMng8QF7N3tgplV3dQ7TdKxkpKmDV3/4Ghbmurh+4xY+8YmPIwhDKaLtdhvXblzDufPn5BrduH4dX/zyF/Dtb72MM6dOYTwe472r17C+uoaPfuxDeOfty1hfXUXFLaFUt0SRIOoFvYAXe2g5bVkjIjPCLZBbTXEPOH7hCELyGU5GFlxTuXsYA82WUAI+CyGXsglSNt0qZEtip0kStRzhH2zf3Bb/gkxPMDweo7PQwT//X/8Ffvu3/yn6/QEuXb6EYX8kAVg/eOVHEpDFEcrG2RXs3zvA3FwbcJSNt2r4TCG9TqIRKrZyDu3vTfDNr38bTz/zJHZ3dmcNwiPyvJ2d5mwFHqoVoCmR3m1CdyzxHND7Y6RsEMoOqpMJPnC6gVKlJO6ESZqjMCgxU+l5fMyymMlz+IQpziRDcQoECXiFpC0S8lZwu0pcVM2EgePeBH/xl/8OtWoNX/nVX0EUhWqnx4LHz+IcmbvfOEY8jWFScSeuiRqKQIPp6uLENzwcwjRJEizBrVpqVg1dGoXRvoflU+vo9/bgTT2klQQYGFg61ZVsB4kQRo40C0WpQOmhZpGIWJKdvbDWc3ISGAJUIJimmB75aHbn5LNYsOKMkkdKGWMZd4yikczIhQ2ha6hx5841IJ8hSuH1fcytNqVAsdj9JNaZP3GyFRZRoxQvbnwL+LQaLlhkfOEGcDctCIdGIyQTk1AlUwqEbZcEcE9zSIgQRz1MYvQzT/gTBYsk5+JZIaMC/svrwwaMjn9EN9j4LFbnpbmh6dD7l/aw8dgqEi1FP+rBLGxcef06xpMJnn/+Obzx4zfxkQ99GG9dekc8IV784Iv4xje/ic99+jO4/N4VnNo8hd3dXdzf3sazTz+N4WgI3/exurKC82fO4f69Hezt7+CTn/qo8AF4roOoJ01NlMdo2W05djE3YoyyNJXmTySvLPCUIbLA54jk/kpJtOWaI5PryHuS955iGqjxDxsm/sumgWgKf2/n1h5aSw2JrPZTTzwP/u0f/wUajSY21zdV/sNkgiefegLX3ruOa9evYX1jDS986HkMx31MJxM4HUvCnPjidYryQHglq9VVmX740xi/8zv/C377v/mn+Ff/8ndnDcJD9dScHexsBR6RFaAxkVZyYNRVaJK8cioUfGDq4wPnmFhn4r1Le8IoX1ysYG6+Li53LHoaGwOOGiSoRpcwHD56FUGQVD7O1BUDn/+wKDliiqTjcH+Eq1evYzQZ42Mf/Rj+6I/+WH7mA88+j+s3r2MyneK5557Da6+9huPjY/zmb/5n+PrXvy6ZBwwpur+1hU986qPYONtVaYhgUWfxA+I0U8cQWaiU5zAY7MGscYeew9uNUFoypchQ+84Zfu9wiCxOUF+pqp21Se99XXalyqFRar280jRHfyfE/HpbHAe5axUnPp1Jf0NF6DQtdNyWFKFxf4JgHErTQpMhzdBQaZZQbVlKhpcTASiksXIMkvH4NZsOHX4Sw9QhDH3KAiVzQnokFjVFIGRDxdjh3rSPuWpHSHKcgVec0knaJduFAiN/JLLEttuSdea59YMhGm4TSRFiHNKfgARDNgsJWm5TGgQW651rh1h/fBW3B7fQcBnpTISoJMdDH8ua21ByTOJLhYLuBYkoGG5UwfHhANduXBeC5Gc//0mkNLlCIS6K00MP5WYZpsuRFQ2r2BXlCJnEKGQ/oikOXN1VaMCJ8oDXnART5j2o2zYFMnIguHpcT1X4ZaxAHoOWyf3Iq0l+ithZ53TQSASFKNslDI/GONoaYPOJNbWuRXKS9VHIZ/EVhRGOj3vozLVQcivSgPA6h8kUURzh7tUt6KuZRGJzxEGVByWidEzslOaUQqLQZHTWXWyhR9XQjKT4iDxxZ6c5W4GHaAXyiY+sN4a1ufjTR52mKJIMBh+yYx9GHEF3bJhxjIqR4exzy9IwKEtbhv8IDi92uBwxpIgU0U/056wcxA80KVhqB2fg6GCI1994S+biL77wIq5cvoK5TkcK18XHLuD73/sBnJKLZqOGY6Y/2hYODg7w2MXHsHlqHT9+/ceSvrf2RFeKnqupgqXlppghsSCUjBocp4koGpzs1AvEQYrewQiltgHHLuNg9xC2a6M1zyZJjU8415exh6AjatRx8iWSOMPu9SGciiowtCEu9AzVhQrcKhMEQ1TtshSdJM4xOpigsaS+Ft5AlgkRj+vUajdEqRDnkXj457mBXIsxDAL0PRIPAyw1WvKzWmFhko5RoorCAEbhVBHgJKcglZRFSi+51o5N7oAu0PmDkCN+Lkl6EoWsq0ZkGnmy02V2AYsvsywEbjdNSUykEqW/NUEeamhsVjBKh1L0iDA8sG5uOFUJLPJTZTjFsQWLoUg+NeUUaBkOfD8kjUQFUOUZWqW2oFE00hrsjdFepamQkg7K/F4jIdHCIBqIfJKpimxAeayWXhLVAjMNONZRLA6VySGhXJpqEyT7gWsgTRWRIoXyUKaq0iEhoVTefoAoiKW5Wj6/KDbJfAdyPEhipFRX2h9Gdx/RXruFw6NdScwkykDyJ9Etft7h/R7QyFCtVoVQ6ae+NNC8p5aqy5IBwXGSbRBZipDl2qxBeIiembNDna3Ao7MCWYbg1g5K57hj+pt+yX+NJhjHfSyZKQzHxmK3AqMKeTCzSHHnpObmTO1jEVVRxWwEMp0PaNkLCxOeUCvlclIMTRuTYYzxdIJ+r4f11Q288uqrmJubw9LiMpaWFvDe1auwLEse1qPxCN12F5cuXUK90cDS0iJu37mNuYU2Ljy+BgclgdFZHE1uuYlWaAz20dGsLCKORycFnrByDIoM+vsDBFRINBxkiXI2ZOHk2MSWgsBd6YPm4CQgSrUKSONcih0bIGHXJ7T29VFtO8gtsucVPyCcxgiHEeordGFUoUxctywuMNibiiqCskt+DPkDLKjUzU8jNhJUWJgSvpSx4hUqQ8FL/JOkRMYrKyMgtevm8TgwCkMiicV2WfKyVJJjQpQjV7bYRa6J5TH9B/geRAUk5zJLhejInTvHLOQz3Hh9C5vn1pG6MYZJH1Wr8hPbZL43f5aGR7y2ct0pi2QeAj0L0qk0LYxmVnLERCyLmeRIgh+NgybRGONjH4sLbYzYAFkl1WQWKZKcBT1Dtzwn15LHylGOodGwSuyYpIGLc+U/wGaEttGUe8pI4QQl4NokEg1Ou+QME3JPghzecYBokqC10IBTYnaGLQFeZJjwysu9zPGYWFkTNTFkhLK7ty9OifTkCP0Q5XZJ/n40HKG3O4C9QnltVVlT0+CJ/JSiQMvtIM1D8b/gOIMW0kznnCEIj84jd3amsxV4qFYgvbcPg/bGPytxfHAWrF69IVCroJol+ODpukIPqDcXfoHssxXzXrTuimBHZr1A9Hkh9rwcOAh0XPiwTO6+TdmlkzCnZvEK/hXVAwyMJsrhrtrkw1d9BnfJSDVMRlNUOrZKBCyouZd9oUD9LFic0YstLp39yosIo77KjJDiwXLJfzijNjE6nsAbhZhbrcF2TyRz8nNqVq/IfQw6YuPwwAr5RHYnpDcV1DM9YoxzgXLTRX9/inLVwmQYorNCG2A2TqqYSZBRDvFeSLNM0IUYCSrkDpDxrlmYJoTo2RwoTwU2WINgJGgNi7bN7APNQJTEJ80CULfq8hkc/QSpj4ZDMqOS8fH4VeFUvAOeCyWZhLp5rZgfQdIjf5az8na5Kd+PxwkGewFWzy9hmAykQHJNxiEbLg2OURLJJ6+bRTg9DcVamAoPxyohZmKmkAKVa6EyjVLSRr7oB+AnHo76x+jUmsgM1ehUrZpEPPNeaLi1EymoEDKgZco7QYiJyHHn9j2RZl44d0YUG14SyucSCSIaoe4polkiXJWvj0c97L53KLbL3bU5mDYbjwTk0PB6cm1lTCJKFqIqKm7cIPGWBEkGbpFv0vdFVeONArmPTctAbqSwSgZKZln+HyD5ky6dwq2kwdKJKRObtH5wLCqLWYPwUD0yZwc7W4FHZwVokCQz9qZK3vupl3LJQRHFKFNzXmh4YbMB19GlUBAGJryqiZEN7XD5PbVbUpkJrAws/spTQBIYJZqXwTp8YurQTHIZNBimiThORN7IRuD6zXuwbRcba0swyGGg82BuS1E42u/DmdNE3+6ighihIAPcAcNgtLEpxYtStpI7By84hAFHDJSUgTEJ8vKklx3l0f0BKi0H5QrT+9QsncU0LhQcLE6HJ1p89QMKbSHCIAMTTcPerQFM10TipyjPlaBR52/qGB2GaK44J5r+HIG4+bkI4lDGE+PjKVY35yRmendyILP7hWpHCrpFv4MklChmIjwVvSLFSY1tDPSDPhbKC1Jk+Hs8rn1/XxAFjg44x6eLI/0fGH/M9ee1ilNfkBI2DknK72kibSSMHxWx8A+MAnj/3UO0lmpozXHckGEY9cWNMM1zNEtVFe+c5mKzHHMcVdBrIJS1s0xbuBFEMpipQAKkBDKRKyDTAM4DyBAwceQdoJbVYNN7IAvRtJoybogKxiV3JDFRkijFYCnFNB6jzesaT3Dn6jYq5RpWVxdgOMDd8V0p5ouVReGYqM9TaZD8PDaIt968A6OpYXF9HhW7ikk8Ri88VkmNRlk4CjzGhtMUWSKbSa4Pd/7S3bE9yAoM9keoz9fkevD42HpyDRQxks2e8rXg/anGDDYGyUAaZMo7R+FY0J5Zg/DoPG9nZzpbgYdqBXI/BEZT6EsnCYqsPfQ2yHI4+0dYm6+gZGuYX22qHaet7HdpYqMsgRU9TR6QuSYmRQK9y59VUyEjBtr1kl1vBBKE1DTnTiDjCF4ayO6u5tBkRgX49I6GMoteWVyUnTB3dRpdH4sMO/cPML+mSHtmwcwH/onGN7GajedMH3Rlx0oOQhgO5YEuD2s6+InFsSm78zDyMbzrYf2JzsnMWhkPEcUQVYFIAk/4CNI4ACFji7lbJ5CdpbLjPrFvkh3qKGQgVI6qXcF0QL5BAqvOEUMhWnu+6nYVZbOE/q4HqwUUZiHFt+Y0BFlg0h8h9vFhILvOTqclM3J6LJAAyhcLNQufcuazEGYJDrwDdEptxHkonIPQT1Cr0tvAFX8EljHOwZXbYy4afUpN2fCxlUiTBHW3Krvy46tjzJ2eQ7VaFt4BjX84PhDPR5JBkxgNpyHeCVQREFHiDl5UA2JqxPFGKgjSg4RJkb/KeirkiMciBNZJjsgNhG9AkmXBe8awYeg5zYql6WEB9mPmJUwlU4EjEsooyd8ouy5SLZcxA8caxAqIQCjVLREEEhqV2mG4MxbCZH2uJsmYtW4VR/ExJvFIRhxLleUTS2RNGSkxi6QguZZ5D0r5QI+P0cEYjaXqiXMifQ8KaWC4xlTWkO/B5oL3JNeK10n1lzmSmJkgCi2bNQgP1SNzdrCzFXh0VoDNQLbXg7k6/xMeAh90UhKzXIiJdp7h8cWS2B3zodvbGaPZpZpBxfWyoAokz9/R1S6NBDSy4RXhzxRDGk2nJj1DHGfQdRrccF4fYkSynFP7CaTLgkW9PqkAIqfUlFSN8/X+wUR8EFqny/L74pxXGCJD5HHzgaykcIS+9ROS4hBZAmkOKJUj2Y3GQmTui5PifoDWCm2cC0kb5PHSjVA+X7bryh6YhWwYjuXf9cY6wpzJfz6qFv0DuA6cq9M4iT9LoyRddtG0V64uleRYWebKpisNFXfr4TDB0d4AzbWKSBi9QQzd1RFHdOijfLFAqewg7CXiwRDYnjRoc+UmEkpTC12KGlEaGgiRyMiduncUYuCPpb9hEqVl2TLuYRwyixNrHRsO7pTZiIlqQ8YqNEtSKY7TgwDILVQWHWmEWKr5hpzn06th7E+xWOuKTwGbmYPpkRRBIkQOdalS2AtpqGo0qWJjKd7bCl1SypZElAFWasosn9wD9p2X37qBo4MevvzlX8Sf/tnXsba+irW1ZfTHCbqdEnTLQBD6cFxTyUhj7uoz7G0f49yFTfHCyFKeUyIFnOvIc2LcN/0y7l/ahdO0UJt3ER5lIm8NJyFqy1VUq4qwSlSMRkniEcIGQ9ZKoVBci96gDy000JivigSY6A45HOxJpGGSrE7mgyivDUHMRNGjzp33Ibkzswbh0Xnezs50tgIP1wqQ5LV1CK1kw2zVVSre3/KqZzFeXHOl4N27eojOovrZhhC0yABQEjMWBD7k5UGcqzwD82R3qtLwaJ2bI9c0yVIgxM95s2NSv6/gej7LpSHQRcwmOnJiEGmaoLc/Rme9Jm4KwtCniRGbD+E40HiJjYeaNbN9KDlNeP6RRPFK8REPB11cHGWnm2jYvTVA4HnYuLiORPdRkmwCHptSKegMMjLJaDekuJBoqVs6BttjNBeb2Lmxg43za2p8UjgStVydN5AliSAEtfkyCpNrBOFIsEJQ/sYiK8TDg1TUHNwNu2WOFWIYVQOOY4hrpCgqUh3bNw5RWytBd5QNcc2qwTGUUyOL0CgaSwNmhjaGvTGaCxXAynG8NxWXQy3WxbSH3A6nZsIs03dC8ShIMuSq1dyy7GqJ1Ozd6GNpeQV5JcEkGYnfA4s84XaiBXSLXCh3xbWRu/kHiBKbFYNeyScjGKIJNm2Yc6Uq4MjANhj/nSGkF4OnopwbbUlCkubpu994BUd7x/j13/h1/P7/8ftY21jDUe8I//Af/hrefecy7t3fRrXkoFSuyD00HU/x1NNP4aVvfQe1WhWf+OTH8Z1vfVcavCeffhpvvPW23BG/+IVPo1IhgTTC7o19LFxso15viETx6H4PWitHu7qKXjiAoYdou0uI0rGgBhxZULXA4s/3ZYEvYg3eVIV8cb3pVfGgwVboAZtb+jKQXEkSLK+VIj+S29Cw67MG4eF6Ys6OdrYCj9gKsBDu9RENRnBPL0N36V3/M6qGJMWL3QzRIMGtrTFss8BwkuLjH14R+LRWKyNhcSJaYCgHQtlBUQEpYwflFPjAXpjjBzN3RfaWayGMgjtObrL4fVsQATX4B8I4EGlbfzQQnoBTJmqgwo34GUbBomsg1Wk1TFiYJkaK6+A6bXjBkaAF9AkYhxNh0ruWkgRGkwKXX7mK5z93EaPjGG//1SWsn1/B29+7BLdSwuknNqUZuXd1C49/5EncuXwLi+tLOP/iWdx86xbaiy0c3jvG8HAgBfTJjz4Jzc7gViExxONeiPpiWSKNiUpQGsoRAg+eMDSdDMXgSC+dEPxU2h9TJNWOHuImeOgP4FBl0QPcBVNGEEQKKibJiZk4HJLDMT4IEI1CLD/RQpyRXKnIllGisgYczYLrWKIcCCcpSssKji/kehdoOU3u67E7PkJ8Bzj/zGkcxnsC2zOymsZVKmsgQ7vSVMTPjFSVDFWnIuFDvNbcuVODoHT/ym5YuCaGjmE0EHdJGTkhxmSgIpNrjbKMMEq2i2997RWUymUcHR2jO9cVyeF7713BP/knv4VXfvAaDntH+NIvfRF/+K//DRrNOn7hC59G4PnY3t7DdEIJqI0//fM/xXy3i+dfeAGlRhfB8BDrG4tYIim30MX3YDqYYuXCElItxng/QNZIgWkFhlXAdBhzzaJ+cIIcFKjbDMXKBYkSCSR0WImDycSH21FoGlEprjs5CBxtEXGhCZiSpNKG21fplXZFiJEzBOERe97OTne2Ag/jCpCMmBwM5NCthTY0mzF86ky0KEYzi6AXOXpmCThRPdSDKXIvQiWP0V2uoLvQRhJkSOiZ0CaUTtKiStDj2EHtIFMpFAL5SrYDoGWKMS5mgrlCDyZDH57nwy07KtchzdBZJjv/RMbGnVnGWTZd9WjSQ897oRgKpMxmpVrpYjDeE/kaA3M4QiBhjvbINDDy+gkGvSEee/EM3vrWFVTbVXQW5hB6Pg62jtDoNLF+fg23L99WULhjYvOxTRzvHiEOEvhTHyubK/DJZTgYigvkmQ+uIQ1DxH4GwzVgVTV4CefrtJdWtspsCsiZ4I5SlAZ5Atcow08C8UYgMZG77iCNMArGcG0XTmHBO0zgLCozo/lqSyElhSa7eTctYzryUOpa0KwMWqaKM9EBcbcUVEbFTovkMrQQ+ymsmgHHNQQJYCPBAnf/aBvGgYPOxSrGyRQl0xEOhRgp8T7QdCn+eqzj6M4IYRAJT2J+oyvZHCSMHvlAp2TAMcjrUDN4yl25g/aLIRw2aZoG7zgUBGVxhYTLSIrxe2/exerKKr76b/4Uv/YffwWHB4e4dfOWZDaUyxXEcYQPfeRFfOub30Gj0YDne3jqqScxnU4w8Tx0mh288qNXsbi4gMXVZdiWgaPjY7Tn6qh16A6a4/jKEIub89DqYqCA6TCGkZRw881bMC0NFz58FiNtoLIsTBu25qBkVRHlU1GD8D7muRixCWY9MaeDYxtxqJxGMAMLVtVGPtJQnncQwpdAs6rWwO6VAyw/2xVS5KxBeBiflrNjnq3Ao7gCtEqeBsiOR9CbFZjNmmQs/HuvmImF3AarvyuoQNA1nC0CBEMfS6daKCrUvHPEoCReynFRQ65n0MUUSHELJDxJiF8Z0jgTjTqRB869OSPmPJtMfQVN2z+BeMXjUNdh5koiSSiXaAXZ+SSCkSRHJ8WJdyCFkrwEjgfvKJkCAAAgAElEQVQoQYuCEKPBGM35NrYu78EqWahUKpiMPCyszqPSKOFw+0gak0q9wqxIJFGG/t4IaxdX4BdjpOMC4TDG0sY8tq7voNasY9QbY+WpDo7f76OxWIVuaWKiwwJN9jp5FAwgIqAfMzOARj+0pWbKISO1QSWAmmOXDRcxIWpJlWRAlobhvQnyeo5WsyqyOr5o3pT6HKhYYgZUbtNzQrkVPpD4SZNHFcBJTgFRn25pARo9EfoedLeAWVF8Bq7V1v4O0l2g/Ti9GmjExGaDu2HKAS3hetgwcf+tQ5S7roxLpvcDKYDd0/OYag5sJ0MACys1A7a4aNNPgPA6lJlVTh6EjjCI0R9MsL60BFsv4Sg4FKWHyTCvtBCmP5EJ7sbZeNTKFbGGZsPZ90bS0Ay9EZrVppA4qa4o8hST3RjeyEejWxP+i1YtZCRA22nTNXD4+gD1dh2dMw1ojmo0779xCL3QUJ+r4v7NHTz+sYu4f20LzWaDcBXu397Ci194Xu6NwWCEpc15+L1IGjM2koe7h3JdOOY63j/G6lPLYsTU6jQx6Y/RPxpg/fwGvv57L+Gpjz+OU49vzBqER/E5Ozvn2Qo81CvABL2dY/r4wlqa+yk04e88ryxDcdiHVq+ipec4s1JGxS4QjhM4FQfTYYBSxYJTtWTOTQMaQswsYomfYXQ0hVUy0Z6vCKGO83KGQdGdj0Y5cR5IgbGFVU5w48RbP1WzdELzLICS10C5pZahVl5Ef7IjO2COJdJQQxanCLwApYYFq6LL+ysZI0N2lDEOZHbM98tFEjiNGFJE22hlvcxiyXAj8hnYuDhWWaB3fj0Mh0KUHO1O0VqriSmQY1qwGcDE0CG6GhYcx1iICKkb5gkHwMQ08ZT1cpai7JRRMkrC4fCTDJZZwBuG6B+MEHgh1i4sQks1jI49uBUHaZyg1LGl2WEDwONRRkkqEEq5DioEIIpTzLldKejewEccB6h3aTXN8weGxxOMdwLUz1Qk8ZEjAjG5MhzJOEjDXKSce5ePxA2RTYVtW5LuWfC6yoydTEQDvmGiu9FGp+6g4rDhAcJpiFAImcC0P0GlWxbiqwRIpYEUdPHWyA3YloVxMJHmkNHKdY4y8hTjaCreFxaU94VjOLLuXBMiVodXh7DKDH/SMT7yoNc0aKmOYBKgdaYOx3YQDzP5nfqpkqgt3nnpOi6+eA55NcJ737iNi89exN77uzj9xBn0j4cYD4c4/fQpvPLvfixch6VzC3jz2+/imc8+JYTcyz98Dx/55Q/jh3/2I2w+toYpm+04xfrFdfzVH7+Mj/zKh1Cr1PGn/+LP8KXf/BLuX703axAe6gfl7OBnK/CorgBJZlGCaOsAOl39Og1o1ZLSg/9tLxZZzwfKJRlNNMIpauMRxoMQBYt6uYzFOQcrKwyI4jiBUb4GdCNFMMzgVizkRiTvzLm/Su1TxjqWWUGex2LhSwd9CdwRb4UETlGVJoN8BEL2RCM4uiAprFFegh8eCQHw8FYfhWag3i2j1mKITiLWx3QNpLrdFNc8C1s3j7B+elHm0oNwiJrdVuRLWuOCJEuyDA1YNEDSVcKgIlQyrMlH02qTx46jnTGMOYIsSsJJKeQwpHshfRroucAiynAkFTRELwH6FvC8xBWS8sMTAiHDh8LUE3miKEeSBMWhQk0aG2VppmSXzBal0BGSvS/OkCROGkIE5WyfBNC94b44/TXsmsD+vd0hAj9G93RDiiWbAS7I7Td2BP0od1wMD5Tmn5Hf/e2Ras4YVEU1hh+h1Chj6dQivGM2RU3YjiXXhj3JyE9w7caIQgOcXq7BmXqYDiborLbEYllCvyTdks1Tjp2rRyIfTPwcVqOCWBtJ0yAjlzhEyXbgxVRCkOMQY7IVIBiF0rjwXJvdBrzRFEVUYOHiPCotF94kQDCJVBAY2Q+BgbmzdfRvj+HWHLhdS2Sx135wF+tnllFaKOG1P38Ln/rKJ9Db7+PS9y7h/PPn4U88MVd675XrOP/cWTTmGnjlL3+Mi589i2iYglYbndU2vv8nP8JTH39CGmOOLNbOrOKtv3oHH/9HH0YySfFXf/J9fPE3voDrP7o5axAe1efr7LxnK/BzsQKUD3InNA1QhDGspQ40VwwRlDTyZwmNJydtD0aIWbKojDjoYb7uwrE1jEcB5tfamGuV8Md/8mc4tbGBxYUlFTPcquPg6FACmZjBEIYR1k+t4xtfewmf/swncXzUk+LTbFVx9859rG0uoewqRQK5DhwxsMgQzqcxUM1dgB8dCCGPu3YWzEq1JOQ6FmovDiUIiUVxNPBwvNNHMA3QWmxKA1DuluTBTxMk7qx72300F1sYH0xQ5eiBoxXaIScJWus1FWGt6ejfG8GoFjAalPxZwoCnW2GQ0Vq5YCkTIybu7Eu2rcykJCGTCAiEEEhr4Af5CON4Ip4B9DJolqhecOGFvpgxEY7n33H+TTtj5d1AiR+dAxRvgEgMXRgfOCsyuMgQPkCCYBAJusN1nV9rIo5T9LZHmOz5Iv9TSgc2coDpWKh0Sqi2yxjsj4XH0Zyvw6k6cEo2gn6MmA1Dh0iDjTxJhUvCUcONez3EYYpG1UHNCWGkCYpEw/pTi9ArHL2wAQiw/daBZHeUqjb8MBYzLrOkw14jn8GScQPvucm+hzwooCcGGqtVsebW7AKWbYvCgIiPbdnKEyEnD2QK/zCE7mgY356iu9YVtcfc6SbcEom5BYJRituv3YNhGVjaXIDbKmHrxpZwQDaf2MDlH17BUx9/EtffvCEk0ovPn8fW9W20zlVF8mjmFop6Kk6N05GPjcfX4fc9tFYauPPuXVGjnH3mNK6/dVMajNHeeNYg/Fw8JGcnMVuB2QogH/tI+qMTB0WVe8CcBpQcmC2Vd//glQ/GUjxRK0tKpJ0kSOkNQG3/cITTTRtX7l7BcDjEmbPnUHZLKFVcvPHaG3jqyWfw1ttvYX19DZunTuGll17CB1/8IL7/w++L5/1HP/wRHPYP8YVf/Bx0K5UI4pOEZXHcY3Ggg129PI+Rv4dkCpTKlpj9ELpmc1Axa4oBwR2zpuPtb1+ReOtKq4LtW9tYWJvH4mMdvP/jbZx6YRPXX72J+dV5jI/GolBgMiNJeVdfuYHuagcXP7QpksxcAzI/RRjGKDUV74DkSRIAmZDIeT0liUQeuJMXSJ2STKZhiszvpFEQXIOjAfILDExiT/gAhNjrdk0gdrotCr/ixCI4SDwUbDYk9pHcDiIJKiKZsLxYVlPlkWUC2QdhhPuv76LSKMMb+pg71UIS0rthhPZSS2KTq92yKB/8QYLWclWUJmzIIj8W2WetUZPRDhEWIgu9OwMh9dFrQbyFYv7XgBdkmA48aS66p4naxPCOI4x2fXRPN1Fr1qRJ3LmyL59pN03ESYZgGOJoq4e59RasqiXzfju20bs/wMJjXWn4DIdjBUpsaVtdVtwWsUQmoqJGWch0HG8PZJQyDsZI96jM1dA4W4brMqchF5Iog7/ivlLR+JUpWtWG3Ft0tVSGXZoYPxHNEl4N1TAZlTa2uDGOo5FwEDjekbUuEgltYqPWLrfFK4EjkDAIYXulWYMwe67OVmC2Aj/fKxDd3IZzeplMQDnRbEKfegOaY0EbTFDQypnNAl8TDzVvimcuLuBHr7+OZ194HP/bP/9dfPYzn8bVa1fx9FNPwrVKGE/GWN9cE6LgpcuXsLqyhnv338eTTzyOM2fP4qWXvolmvYmnXzx7MpYgOY2gBo2TCN0nqJXnMZjs4OjOAM1TLECc72fiWOjCBe1/xFIZDq5875pIBc89cw69gyNsPL4Bwyzwzd9/Gc//wrPYv3MgcDQDo0hyjJMIcxsd3L+0jTPPnkJuM/aZ834gjzQk0wx1IfDl8KNAdvH1UhlRkkqjQMIdkyBZFMl/SHOgrJdF4imgDLMqch1R7qOsVTCOp2KZXHOUkRE5on6SCPLAcQozGJjESDSCTQjNeaq2stDmGIONELkNki3BPTpjNu6MoKUGuhsdaXoO7/fR7nSkKWED5E3GmD/Vlsjl3s4I7eU6Mltp+vOwkILfXKhLs8NmgMY/R9t9VN06KvMu/OkEYS8Tgh5HFHyf/nEfnQtVWVsWze13e4iTROSK82tzuPvWNipnLTSbTZXOiAze0EPvvaly7LRiWK6DC0+dAkyOcEyMk5H8meMXkbgWKrGRyBCjmrMow/DQQ+5E0CqaOFkyA4PGVuRmkF/BNeK9QwWOFpmo0pCpMBEXgTRUzP0oWRUEqYeSWRFvCL7oAcHPIoLTLXcQpVSnkGeSYuD3BOFhw8DIatqD0yzUzl34Xoj9W8ezBuHn+9E4O7vZCsxWgJkOeZTAmm/Jbsu6u43FjoV9vYrEcaAdDVEsn9g5RwkWB8d45oVN7OwfYW6phlvXdtDpzGFr6x5qlSqWl1YRRgGqtYrA5Tdu3sDq8jLu3rsnEsmNjU3cvX0Hp8+dglNVkw7u+RzNgZ+q5D7TLFApdXBr+wqCaQy7rQnJru22ZbfH96WBjWkQ4jdl50xlBWMNKNVkiA+LtU/JmmWJdTSVFpZLfbuaZcdFCDsrw7LJR2AeRAzD0DDc99Bo1FCr2hiEU8EC4iyS8CEWQ9dmPLONUTpBnJzI5SSwSu26Hxg56cyfIOEyU54P/J2ywfwJFWZE9IBFU8ypTsylOGKhxFOUIfyzwXwAlarJzAoWc/GcLAr0bk8lD6JUd9E914Rr1PHW1y5hZXMR1U4VtXYZw6MR6s0mvvb738DHfvkjaC81VYCRrWG0P4XbLsu1J2lv2FfEwHAUCyoxGU6QRzkqtQp8z8f1N2/i/EdPw6rmYmEsqYm+hr1rhypsMtfQXmzC6RqyG2dD4+ee7MTzmGFXqqEyTUtCkJgaKvHTuYrg4vqxELNBonSSFs5JFsnYifJGzdGkiZGobNgqx0K3VWYEizpHNDQP6+WodEuoWNWTbA4SPKkk4RpmGCVDOQ76GPD9aFzFJoPNAJsUPw6E9yHmWIZCFiyDbqL6T6Sm6XGGUAtnDcLs8TlbgdkK/HyvQJGmiG9twz67ptwYkxT6aIyChXS+o07+AVchSWFsH2BxsY75lov+0Ed9qY6Kq8Gxcxgy9jYxHYXo90ZYWO7ApruhTKYpj0xhStQ0oXiSBk8ClqjTZ9FOWQ4BWyuhUZ3D9t07sFo6Us7+BfqlmsBQOn5u52jPTKVEwR35SMJ6lNkSvQlOdpF0cxS/BaoAFBpAWJ1Fmbt0VaCUlJHMeyIZ016AucUKeuFIdu8sPhVHkRO542SKIo1zCI2LNoIZBRqLkC5IAHkCbGSorODogD9LiWbTrokygYqHSTQVwx0WW0LdMkKQgqe4GCRVsghLEiWdI0XlYciYgBkXXt/H4E6I+fWOeE605pq49PI1zC3OSYrjj7/2BlrzTaydW8PX/uAbePojTwsBcOnUEuqdOv7q376Mj3zxg3jv9ZuSpsiXN/bw1MeeVCmJUYoff+MNfOYffQq33rmNzmIH8xeq0vSIelakjg4Obw0w6U3RWW/CbdsCzzM8irHU3MEzZIqFVvgZ0iipdWSTxLWgrLNkVJHpMYzcQtiPJIhKdw1oZSouVDw2r7s0APTi4D1wMvIiPyRis6iZqJk1hAMSWBPkSYF2t4XCZvMQSy4Gf47Xm9eKCZZs0Gp2TUigfuzDixk/rYKaXMOR5oABZBwrKLdQ8llMGJmBnft7swbh5/vRODu72QrMVkDGCr2RNARGlzvMv0Pp8DNLpYWxxDh9ZMOG5ehSNHMkDAzG/bt7aNYXEBdjlBsMXyqrICgx7FGjDO5k/3onrVL2dJMP80zm9kxz3L1zF93ljiQFHgeHknlAsyQy9jmrZ4Ohn+wmGQJEWV8QR6ibNSSZesjz9cDUKNUYzEPL5QR+7EkTUbZp/8xo5VQ+l6XZn4YSJOXBl+aA/IKyc2JNzbn4SdKg8jAk5E+SJWOtKb08sXtGLi6Mo2AivAPC2K5JpYEphjwkPbKo+WkgBD5aOSs5oFI7sGnh+XF3q4KSuKNWhlRZmGL3nR5anY6YJVk0+nEtGL6D+5fvI4lSbN3axi/+xmcRTmO89K+/g1/5z38Zb3/nHVz80AW88a03Bb6fDqd47IULePVbr2PzyTMwTQMLy21oJuENDb2DAc5/4Bze+c47mF+fQ+csswuImgA2XGloOJKhQoBSR64d15Dn5xeTkxAtHW1nTor+KOmrkQa4mw9haA7KBtMlNfl5jqTiSYZyndC+xG7J+5G0Sl8KGkiFRCVM8ZBUDVisPDboaMmmjEiQX3hI4xThUQK9VSDWYlFQcERDuSUbDiofeM14b/J6HkwPhH/Ba8ImgV4c9JBQFtVlyfvIdZU4SnRn58asQZg9PWcrMFuBR2QFwjvbMFwHZrclcCqx/4I7ejrO0X3xZ02XkgztgwM89fQStBK9D5gpaIrigMVeyHXwxYlQ5u9WVeRwjBA2JPzmJGmRc/WMRUNHkE1l90wUoGx1sHX/BmrtivIKQAqH2Qo8Hklr5KgACGKqCzRBD5qlisDxfD8+xCVBEbR/phukK1/TqIfjCt0oRF5H8hpdHSV8h/C1bmHo91BEBnxnJGgAnQO5a+d8uuW0xKuAR5/myptA7SyV5ROjqXmcMj4gATCleSWJlY7YM9umC5uyAp0JhSoVkNtrzr/peMhz43Fyxs49Nn+XMDqRlQQBUi9H76qHkl1Ca7OB3GaktI6q3sE3f/fbCKYhPvWVj2P79i7uXX0fL37+A7j86nv4pf/0H+DdH1zG8598Br/7O3+AL/zjL+G7X/02fuW//GVcffUarr92Dd3lOZx++owoCF795msoV0p45hNP4XDrGE5ZQ3W5IsFMEMUHxyo68gAI/RClbgk5w7+YWZAp1UndYhhUiLLJpEeVkcHRDkmC3Pk3nLYU3qBQjVjFqKGYajBKRItMkWiSgGm6NvJmHUaRodGBrB+RhyhjeidbCGUAFTEkyyBK5cia+aMAk76H+gabB0uuCa8xlSUSrW01ULYdQXO81EPVZCPHu5g5GgZ83/9/2HvPJ8nu60rwPG/Sm8pyXe0d0A0PkCAkkqKVRpQoSlpJK21sxJjdP2l3YidiNZqYLxPalSJGFK0oiaIIEo4E0CC60d6Ur8pK+/J5s3HuqwYpraQR+JUvEUSjqzKrMm8m372/c49Bp96W90reF8kFKddD4+1phSD8glwbq5dZVaCqAJ0YpwtkfiAKhjxOhbjIk39KtKDXgtpwy8YuuwGa4eRQ4gRnWirOrrnCJxgxf6Fw4DIDinflCliltwG9Ckp2OmF8NjtC5mxo3kEEq8GmTSOeGEWmYOP8aYwX21gcRGU4zmoDhlHmKvLkJ5bDPPlzg12UEDznBjb9JKUtsiHMdtdw5HfTU18Y/HEqTcrQ2VYsUUwQ4k8zDgc6EoTwAh/BQYLGCROLxBe/BUk6Vrn+KNMfwzyUwYf7cgnF5vpDZ9YB+RDch7Pv04qSygRVIHZC2P1aR14PrZhtxcaev495NJevrTYGsg7hHt5PFvJ85OTLaCsOXYqOzR8foLfcFbKfYqfwRimUXhun2o7YL5Nh3+w6MnwoiY4ooNmVAQZASny3rmG2SDE6GMGoUX6ooLBJ5LOEc6DpOuy6jul+AKtpiLvg9vUd+DNfBoeVi325v6KXRMzsCGgPGiLvfEy2jAofRaahptWE/8Hi0cyI7xmJmxweSCxs6i1pyMw8yENFYpjZ1KMwRrvbQv8EX6eKME1wazcXa/CTg0z4Dm7HKoeCUSaoFP0lwiKUQVKxc5G3Trc8uAP6ZsTIZ4DZ1VC36uUQw00DU0njTCS5tYYjeQ28ka9w++YDrPTW4QVjnNhYOUa+6JhRCMl1suVVA0J11awqUFXgF6wCPB5J1pIELpSM/ChB8nAXBnkKx6uCGr0SkhTJch/daIizp1UxGuLJTFPobyCBucd2zKUjYJmQp8CfhOJDQHg+STJ0VmoCecuvyxmME6HZWIYfHiDPVczppmersGo64kUm+/EGT7JaeSKk2oAnc6oc+FgDdklEpBrCZPMuJYVkDOSpKsl+PBEy3VCQAaYWcYABm3MiLPbRowkG60uY51M4DGCiRTH5CHKCTEV2qRBuTkrjKNegV4QpO3cOTh7jp2WAKVDX6qLl5+mza7dk9UCHSFFJZExTLPfsfH6E5ykoEc4G+RE0jlJV+JMIk92FPIf+6Q4K1cBoHKHOZ60XaHXrsq/n62SUNVMXCd1PZ+UpfGmDp3UV3jzEZA540wSulaK9ZMFpEP2xsdgPheAXKyHCYYxarS7DwGxnIagS6QOLoxDRJEbvchOtZhvhYYpaz8LhziFctw6zo2GRztC2ukIiLF8Th0Ybo/EIWZAhinzMp74oXkzTEs6DN/WgNiDIyHTXw8aldehNVciIGiWkdFI8SGGtKlAjDXkIxGkEs2bAsR3sBTtoGm1xaPQOfZG9UoaaIkGW5rBcE5FHlQNrxN2UAs0iZ8QQ9Iiuj/VOrTTDUm2MJxPxQ+gvdWG5ZM4QbXpsXV7g6MG4GhB+wS6N1cutKlBV4J+pQHJnG/rZtQ/dGJUghDKZwWg4OLO6QK2poqn1YaocBMrTc+nFVAYP8V8cABiJ/PDGLs5dYcxySfJjI9Np1Zt4slsOkgiD1inMgl1ZISghEHmJsN35sy3blJ205pAop2NxlOPOO/dF1//Ex8+XJDf+o2XSXEU+yZ+cc/VA6D8pYXz6BSu5ND8+R4b5lI25wMGjoTRVYdsngZx4O3ZLkhu5yxZ1AfWGmYaW1RJ0JOSaIMsFvWDjSROy9pmQmEkSJb0JTI0Nk2hHAT9NMAmOhMDI3sM6cGjikEWpJx0VGTI0eRRgejDF4OwAWR4htQvsHjnokPOQxzD0HG7bgsqGp3GlQq5pOYwxDnkxXKC5Wkc4JhnTwf7WEWoNC6miYhbH6LqA67qlAyKHhUaBPCpQ+Bpq7Rp2tndQb9Wg0PW6yDB7GMrrq6+4KCIFgefj4NEB7FodndU2esttQQtMrWyqk2CC4e0xkjCTCO15PEO714Ch2NAZZDX3gXaKQi9gxBYOPhjjzFMnpIET4QnFflqFOjOR2Ym4eRJpIfmQaA6RiEWyQFjwvWFOBpDvakjsWIK+tK4iCY01qwZyPTMlkUGCnz6+p3yO8bSA53mifLlw4Swsy5AgrnKwLf0jJI9EskeqFUN1oawqUFWgqsCHFUjv7UA/vVrqEo9vaprijH2E9rKGptoWRQEVC0I0ZKRupkuU82PlQqlayLGYRHJis+pkpvOczR2+ijxLkSgMPEpQd1axCPbhxSEsQ0caM8RJg2qoCOMEkx0PS+ttGKaKO+/uwjJdnH7yFPYfHODW2zexdnYNh48Ocbg3xK/90Rfx6PYmbr17G+un13Dlly/jze/+GFs3dvCV//3LeO1bryNcBPjUH7yMpFggTFJMHs2wfna5ZLwnEaaRh7bdQqZGcvKnUZFt6wKft006OppYxJE0KELxjvAlqIpQMY3H6Dm9Y/+DsDRdKqiECJCw+R3LBsMolFXFPPbQdupQVAOL3QQP3tnCuafPodGqYbHwMNNdxIdjLPeayOIEtbaL7dvbWL+wLkgIX/f6E6tIggQ7d/aw/uQqsiTF9e/fwPq5DUyHMyytD+TEnOrc4wOpn2M+mqPVb+LgwT6cZl2yM5iY2Viqo9ZxsXtnFycubSAOYsRcBSXkj+SYMrDpmWX4kxh333mIlVNruD5r4JlLdfRrAeJFip07u1i5NECk+rIK4KTX0jqyzuL4NorH0ohbRhvbH+winiVYv7gqHBR+nubZVAiEo0dTNNdrskpgouI4GsEx7JIPURTwcw+2YYuddJoUpSRTYVhUgqbRKDNCyFFQuOYgP8IVVOaDa/clZvvJy5fQrDVwsH+Evf09LC8NcP3GDfzSK6/grR+9Acu2sLF0Ens7FUmxujxWFagqUFVAtg3xw12YJ1f+wYCgFDmWMUJvEMExLHT1ZZE5cmdONx8xBeSfJXOgPInJ7oFrA19gX6tuimsg8xN4mhSzoCKRLIYgPJSBgiRCmhHx8S6jjYsQwYJNKkFnuYFH145w/8ZDnH7iFJRcRaGnOPvUWTx87xH2Hu7j1OVT2Lq7iWc/8xS++2ffx1Mfu4IHNx7g4196ATv39/GTH95Ao1nH1U9elNPzeDhFMdewemYZ83QiKoqaafFpI2VyJaV2zHDQchiqhZpOuaSCNEtEV8/TLvf9zIvgn2KuVESlhbBmCfGRaEiJRjAXgWZLVC2UXgFRHsHQFWSJghrauPbtG3CbNTz32Wfwg6+9iSu//Cy+9p/+HL/ylU9jcjSV4YZ2y8wcePVrP8DG+Q2cfeoMvvPfvoNaqyZN/MmXnsTDOw9x4ZnzePtv3kVvpYul9WXcef+2NNHVE2u4894dvPxrL+Otv/2RoCfLp5bx+tfelN977fvvo9mtSzJmu99EtIjwzC89hc0727jzkzt48uUn4I2JwCjonejh7R8f4PTJDgYDS0yZmATa2CgTJ4mSkGPB18w1DzkXDLeiYoNwv6O6GN6bwKnbqK1SBVNDmAXyuVBiDdOhh/5qW1AZrouCLBLzKMuoIUwjFEooagkSGamGIHpAxCFkHoThCKLE30+yJKWuHbOP/+s//hf8T7/3Fdx7cF8SS3/09jv4nd/+LUzHU/zk+nU8++zTmE1nEl99pncS9eUq7rm6NFYVqCpQVUCyG9LhBLqYKSkoxG1RReHYULIcA22K02sqWgad/Mj+KjkMZUoBYdlSnpcXDGuij6+CIikwOfTRWSYxLC+dCQndK1ROFOjU1hFGBzKcCKSfK6XVMglplL2pKrxhKPvn/ftjYbpvXFzFrR/dR2vAmOAC77/2AXTTwOlLp3G0e4QXPvMsvvOnf4vLL1zC9Tev47kvPIV4luKDH93ChacZ4FOHF06g1xVkc8ByHcyKcWlkpCtQEgXJCJLdQBFu85kAACAASURBVOib5jpkx0usMwOyJCdCg0pffzUTBIVufSS/EQ4nf4PcAELgjLVO00jUCUQdCJWXZMQM0FNplFpmw83riOYFdu7v4NTFU7j+xnVc+diT+NP/48/wG//u32C4d4TzT5/D9deui1dBc7mJDxhI9MJlvPWdt3Dl45egOy5u/egWzj29gUanDlN38epXv48XP/cC3vjOm6I6eemzL+LdH7yDj/3ai7jx2k0885mncLh1hMOdIZ565Ul864//Gs98+hnJuRjuDDE4sYxa28F7339fyJuD1QFuvn0TL/7G02g0bITTHMOdo9JwyLLR3Whilk2FrOilc/nzKBqK1FRO8oYrwxU5GBlP914C70GI/rk2NEuTNYx3sJBaB0UoJEUiA5xCOQiQIEnZpaM1EKZzQWs4xLHWLbstJFZ6WlAhI8PJsfEUV0MtvYsfvX0N07GHfq+DG9fvwK3Z+PSvfArf+Oo30Gi2cOrMKVy79i6+8PnPY7E7x/qTyxUHobo2VhWoKlBVgJTvePsQ5olBSVwcTaFQXrjcL/8eRDhjxDh/tlkm7iEToiKzDMhi5wm5dAgsnfB4TuaV+2hzgd5KSxINodJFIUIC8gcMNO0VxNGwJC6SF5BBTouZAtg6w5BSRFGGxUGIerMhUcX1uolwlkJ3dOiWjvd/8AFa/YZkM8wXHlordQzvj9E+WcPowRS7dw/x/OefxsNrj7C/dYjnfvUqvPyozEBQNISjXOKZ/dCX4QCOiobrwmnYYt2sKhwKSlCFDZ1dSQflG5RulAK8w8UBOk5PUAQOOByaRA4Jpjz6QsAL8qgMfMoL4Ssw7pp5WpP9OdSxJY2X0PYXfv9zeO/169i7vwfV0PDxL74kbolHwyMcPjzE0598BnffuQ3fD/Dir7+M++9vYuf6Azzx0mUZ8jaurmH/0RCv/u11tFt1fPF3Po5HN7cEnh+c6eDOjx9A1RXR+J+8tIH9rQPEQYJLL58X7sa1v/sJLr1wHs1WE61eS2rwN3/6XQlZuvjMBQx3D3H25VVpxpbagKYyBXMq5kizeArL4EClI05DWUdxIOLnhZ+TMAvFOCr3FBRWIeqT/d1DHN49gt1woDcUmJThtqkkYHompYi6PE5QF5GJloFbHDr4HGiAJJ4Zii6mR/SWMBULYR6VoV8cSBKaOfEd0fHw1h4O9w5w9ekrEsFdq7nY3tmlRgW9pR4ePLonZFg7t7Bx8UQ1IFSXxqoCVQWqCrAC8cM96A0XareUgv3jm5nEeH4VaNSYwle6HEq+Ak94xwY6hJI5MNAJkRfo6WEg5jxuy0Ks+GVADuiUZ6Blr2Ie7CBK6WGgw1IcUQbQTZE3mj5GYV5yEU71BX2Qn19wmVFIY6DskPAyQY1EDYGC6UNlgyEfQnIJigzzvRBqC3BsU9YX9E7gKmMST49XBJqw6BMlFMg62MqwfLorxESeYjm8EDHQYAqJT5IYUer+6d5oq2TH0xyIPAqGU9Eumc+DQUmZrBr4NZ6CiUQk3Os/WqAIC6xdWoKl1aV5FmpaOkEeFXCaFjKNA4eCiK8rURAnPtyGJYZD0Ijk6DAKE14ewyxqcDUNhqZgZ5zj7jDGC6eZYlggS3KYjoHR3lQaY2+th0LWJyaCjKd2FX7ioWV0kKupfD1FgNkowHSLIVOZyB/3742gtwpYHdaBXBSaZzHd0hD74rpRlzUCHSjFHZG6VgAdsyOhSAxbor8AzY5s24Vu6oi0AMHCRzYvxOky9mi/TFttFSyl2TNkYFPoN2Eb8FJPhlCuFDp2W+4b51xxKWgYHPzKEZaDnTyXLMP2rQMERwEaqzUhY3LYo4yVao3Uz3DxqbPoNfry/vGBgR/CJnr2YDwv3tgaVleIqgJVBaoK/GJXIMsQPdyH2nSht+pQaJ70s7eiwEp8hCsX+h+eknkpptmP7ORJX+QFVjwMCixSH8Wce/tcJItcHXA44N+5PujW1jEP9uRiTU09H0/XYV2cjUs2Ob/mz2L48wBW3YbmUPJIO9/Sl4Byx8fOjSkiZIjk72zClOAFfowoihCFCYw2BD7nfrqmuJgnPgqNzosEDhpYZHMYx4FWyUxDkRaotx1ZiXAYohMiG8jjNQNBEgliSmLJDkjDTHIf4jgT2RzPrJKkWMQyQPHEO4kmYtVMbf7BBxOsXxoIEsIMBz4HyRwgq38/wtH2GP2rLYmPjqcpkiBFbZ0ugLSiNhGDDoOOSDH//r6Oo4mCQa3A80sBQiIvUQKLiYYW/Sn4/kBsiZmHYNm2qEQCP8A89ODYFjS7RETqRkMaa5HmuPXmfSxdaiE4jMUBkTLL1nod/UFPUhglRKlQsMgWmMdzqREHI9aLagsOj5pmoqE14E0WiPwURo3Rz9R5ZgiOORqMgA6HCdwlU2rDoc+fR4IaLPZ8ZIyR1hX4YYBGvQHTLREkBiwZji5qCLGI5qAjqwhNhhyST5ndMN4ZY/XpgawrvNiT90JsrlVDrKNX3BVBJSQzgrsLkeUo1YDwi31FrF59VYGqAv9gBiBBbzhFvggkIlpj0uPPOCwano/zrRxrq/WSh0CTnGPHQxLzSl4CmzsdCBPMhwu4jgOrSf97fp2ExER2xa3aCrxgT8hnGY2QspLkaBuljFJhAFNO6Rl1EwWOtmfo9LrQaKYkssXSyZAc+TTOkOsxUpXGSXWohSn2wHEYy1CR6Sls20ZYeCgyyiOplS9DhHjid9S67K35ZOjwZ8JEME0QLmI5STaXHPFHYOMQwyYYZbJjoYmsE6EmgUdaZgiZkMRNq6EhVcnJeOzsV0jktG0YCMYppg89rD01gKnWkGUO7m3PEQQJXFvFoK5BY54EA4t0hltpgFnAadDBkZHYjIk2cPf6EbzhFK0nz+Fh2KHnNH55ZYydu/totOuyx9dtVQYVciDEyCrkzzag6sD9dx/Jz3MaFk5eOVEqNHRDmqyWmrj94ztYeaolDV1LbSCmvlKB7ZjQXaIDhaAiJBcOg5G8T1RzeMlMGq7DtERFRThP4E99uCsWFK4gmLZp9zFPPXG+LCYQQyp7YEITBKlc7fD9ZbMvZYgqojjE/MDHYj+A23KgGRqCaYRMTWEt6SjMUkJaJoQVCPZjKIGGzqkmYps8CEcGNw4zJaFWEevsvtNHx+6KfwXvI58N5nBUCEJ1gawqUFWgqsA/qkCWI9kZIp0vYJ1Zh2rTpu9Y/phm6HgTnFqtodmjpTC37ZnY6bpKQ6D3UvaoYrbvyxqis1ovSX6Ef+mXAKDuDOAH+7KlpnygIEkx596eNsO2PCESBIN0LkqCItSxf3+EwakeDFPH4eaRuDQajgFDzHAihIoPMzOh5jqYy9C/2BTfBWE5aGS2M9hJESifDcdVad1cuiEyA4CqhIbRKPXwvEcGTA98NFZd4VBwCEryY9g/5Z6bz9FCcJSg1atJ2iRv3jjE7GiB9rqDXM9xuCCZ7xj90HRpXDT7efK5J3DtxggHRx6MmgWz1wCCAN6jEdqX1nFuKULbbWA+9KE3dMmL4Gl6sumjudTEe6/ewCe/8knhezzcHqPRshHsjTAZToSXQSUHh6BnPvE07t++LwiH22ng/rsPcem5c9i9t4NTV9Yw2vKwfnEgaId4RkSQlcutd24jCWI88alzwqPgKogeEDQ0aq/UMY4nsnKZRjPULAdBTO6BfmxeVKBlkTyYCSoxPfQQN+haWUMYBxLlLQFdoQmN6Zx6md+RKhG0ggZM/If8lnJwrKt15IsCd649wOrZgcRP8/dzYCOv4ejeGCmNvfJIZLJs8svrA7RPMSiqDN5ydafMqIhmJUlU1YU707eXZOAjL4UW2HEaY+fuQTUgVBfGqgJVBaoK/JMVYEMPaWG7kMwGba3/06AnqhayDMvqFE1Fw9LARqEWWAwjgcKdugPmKMVRAiXV0VtrCuucrZobfALwjtOFFxyIfp2NQTIVSO6jEqIo45zpkkfffQnQSQuJP6a6Ik0SiSkuDC44EhiGKU2fOQmU/BF698fcoc/ROuWgprXlfkybFBteJYODMhRKEhwVrYwmVlJRH1CyqBQK0iBHNtbRP9kVRINDjGRJ6BDDpHKoyZCMc3SXmxIHzRub1nh/LgNMa8PFztahBC6ZpoF8QSOeAt42yZE67L4Np99Br6khwxRZmGHr3RHqgzrcVU2GAngqgkmMWr2GRI1EKFJv1rH9/j4Ot4d48TMv4vW/fgPrZ1cxO5rj/gcP8akvvYKj4QQHO/u4+sIVXH/rOq5++gnhANz80W00+nW02g0sXeri6O4E3ZWWyCFHW1P5M1hEsFdsxJMY7fOOrI16dhezvQBKXUGqR6XSJJnLaoQDFw2qWnZT3C5ttZQb8j2P91PoLRWFxRhmE8NwKHJQeiE0iiacJQsHwcGHapi6Xi9jq2V1BVk1jO/PYUJHY70Bu27Ie0e+BlMcuaKwNVdkjYyhJocgnWRwB46sRTgcchAgmZLIU5mkWQgn5nGSJD+BRFnytMD2B1x9xdWAUF0aqwpUFagq8C9WgGS0nSEUwsrd1k/vGicllBslaHozqJaFq+dLQxuiBmmUQbFy1Os8kTO+lzHNlP2J7SJcu48wPJB4X+6tyxyHMk6akLhYI5OMlpd2vmW+X5ncyK+XRMACYRGUTf748TxtivcAUY1RjCwsSgQDhTR2yhHZ1IVoWGhoGiRlqjBUTZoNrZc5BPDv/m6Bbr8jja1mWDIQjPc9BFEopDnuyTfOr6HIC9Qatuy4hUzJ0KI4xHBrIhkPqgNx8LNrOqJFgnq9hr2bM4zCDGdP1dDcIEExk+GFr5TNMPQj9Df6sGoalKkBu2uLQyDhfMpA21ZfViCHm0PEUYr50RyHW0P8ym9/Cn/953+Llz/3MVx77T289G+eR+gnONzax8mLJ/CNP/kOnnr5CkYHY/SWWmhfrosxUriVIU9y9E91kTdjZENgtD9FGiToPNUQKaOjOwiOIthNE6EaCE+EL3CezIUTQmvlIPLl/aAfAeWJtm7CURwZHtMmQ6ly1M0GFpGHYBhjaZ3QfoA4p4FWmelh6IwQVyXeeZJORKo6vjfBxlMnRN3gWDzlcyDMkGThsfU045ttWKoljZ41EgSCsdW0uS4K1OW9LgmmTG6kpwYHv1kwF2+E6d4M87EHq21haaNTDQjVpbGqQFWBqgL/owrQtS5+uA9zY1CSF4sCxvYe1CQFljpIdANXmipWVxk8FMtufh75aPH0K9yEYxKjwgZI7kCGmjsQJ0US40j+Y2Ng85DBoDCEKyCKBJ7YhQ1fQs4cFhJ1Ifcl6iCnPjaq4xAeng558iRJkSfZcB4jjXIYXW4SuNdXoeSGkCsbOtUHKuaxj6bRgl/MRL7IIYJoQrhZoN3rIEszWDbdIA3sbh7CGOSwLAvRUQYbLrrLHagCRpCJrwp5j3yDkk2fCR+DBkxER7KZguktD26/jSRKoGspOpfJ6SDnoiQ+zu8FMFuyqJHhgwRNo24I0ZPhUhykeu4y3vnu+zKQPPOpq0jDFDffvo3TL5zA3q1D4WvcevsW7JaN88+ew9xbiM3y1lvbMAwbpmWid6KFtB6jyDO0a00Jm+JJe5bM0NCaePD2ligJamccyVNw1QaCIxUr/YbYMs/iMRpGE7uLHdiWLUZFQszMUwycgUgUw5RmRQ0onoLhYoRazxGonw3b2/OF32B1yFEp4Oh1QRhIZmXQFfkB43iMvdku0m0N062ppERefukJTPZH2Li6LomiDAUjp4K8BXpScATIaNOclRHl9KKgL0ORFWKNPdlfCNFy79EeVs8NsPX+FoIgRGrGqJ+wYTJzg9WvOAj/o0tD9f2qAlUFqgoAuRcgerQP5/KpEjlg0mNRoDadAXGGjlng6rMnkSuxGCMR/uVpjyREGvVM4wBdtyHf45Dg2suYB7sfmi2VuAJlZqqQDDlEEEZ+zF3g1d8vFuI3wERFrgE4N7AZgaS7Y4cG7pXragn3U7pXyi19OEuqeDBYBYcWVTTyugQ4MYY6hKu1MM52SxfEvDRv4ukSkYa23UcaxxhNZoidEJajoaY3hH/gFDXoBu+fQdV05GkuOnwxSMpCWa1Q1heniaASk/sB/MNQTtnN1SZWTvcRK3QRjJBnZaDUzruHYurUWqNsMIZtWWLIxNMxUYaW1ZF1DE/vSZFL5DKJlfevbcI9baHecAUinx/5mDyYond+gIXawEozEfXB3rsj6LYG90wPUBpo6HOB3Zk6yR09BxMGTxmgIVT+YVR2Qz+Hnzws8PypGJFyBEutyWBHuWjbbmMaUTYKgfwZr0yr5Gk8Q8tsIppzXEphNFVp1nSnnEYTRLMUsRGiU2uhqXfKSGyNYxpzHsp0xVk8wcib4dX/+gY++7ufEX+GrZubuPziRfz9f/+BGD597PPPY/v+Hl763At47/X3cfXFp/D1//p19Fc6eO4zz+Prf/INQaB+6bc+IfLGU5dP4v03b+Di8+fxl//563BdG1/8w88CRiEqjjklsNWAUF36qgpUFagq8K+oAFUDeyMUugqj3y5Ji+KqWCZCakGEl1YMNNs8ShMpKM/8bPhpUXoA0FyJoghNAVruOub+vpgHkRxGFKDcObM1MPGRenzjeF1QcgPIrmeAEpso/ySXgL+IWncOFGxW9EbgrpmGRowl5u/39kOJBZbnI46NmbD1ORzU2MySAKZaxyQ9kFUFzQ7JYidZklK9htZhZiCCZF6GS1HBAA0tuyW2wdIVj5n3khcQe7KfF4Y/UkFB6K9Q05oI/RBqriBmCFGjJUQ9GirF9Dpga1YL5F6BnWtDtM7VYHUpbTTQMFtC/+SKgY+h1wSb6VuHNSAp0N2/BXtJh96lWoIJiZo8LW8Y4GCTqEqAlQsd6JmGKQ2snuhiFDuwjSNZA1BNUDNded+IYtAauVDoWaHAywNM/DlcpQ4zbMPtFTgKaHJVqkzEtEhjVDgkVImmReQjhGmIZJjDsVxxLnQajvxcroE4QFCVEM4jyYygqoHIE1/TY7kpP5XynpHHkKXYvLmNrTs7WD27isiP8OTHnsSP/uZHePrTV/GNP/4rrJ9fFevpxShAHIYw3JJL8cwrT+P+jfs4cXEdu/f3ZUV17upZvPfadTz98lXceOMD3L/1AF/4vc/AadHwK5fBrBoQ/hXXheouVQWqClQVkApwt35vB8aJJSiWyTxetEMPM7uGcDjF+YGB06dsMTsiyaxkFZQsdBIP2Zj9hFIyE63aGnxmMeRsMGWzJyeA6wTu+tm8yRQgRM19Mq2QuXbgCZoOfaXXgS4NNWNsMr8mroyFQNNqwSZqIYEP7zCE07JQGAx8KJ8H99Itg26AKryYUr1CCG5UP7AJpynEvMjSSXBzEOQzWU/kGcmEifgodqyeeBIUGieKMkGbMDd9AdhYD/1D6LpkO4sJUE2vSRn5nHk/NiKxaM5Ved1xlsHWOQaYmDzyMD6cYPWJgTgPjsIBTtQKaEUMf7yApuuIXQtvbTexNr2Dup2hedbGIvPFm4DcDk4IfpxgsedCHR9h6Uwf+5tzOGuUnqoI4jZq1r7UiwoFrodIHmzoTUzjSbn24XujFhL9bS5s2K6NhTaHn/kwSfLTdFmp8L9F5UGORJDCiGz4modklmJwuo+aykTLktQpiYzMvVhweAKWO0uC6FDqylrx9z6+SXSzQsJrhptv3xVEg8/J0HVceOECXv3qD7B2egX7Dw/w0hdfxNf+8zfxhT/4LPYf7cPzFuiv9dHqtLD7aBf9tR527+/JYHP+6nlc+8FPsLy+hMODIR6+/xBf+J8/B7fJIYzmS1E1IFSXvaoCVQWqCnyUCsR7R9BcG1qzbHZP2zFGcw9bWQ3tvV2sb9SxcqYviY008eHFuMxgoMMiLYtLe6WOewKLcK9ULkhQE2WQGpS8jESmP0Hp1heJ3p3dv3Tui0s/AhLaNAUJ9/uSAcHzt1aeeulTQKfBgsNGjsnuAvVlR0iEhM15P7agptV4PMIgynLME09OvfRqoB5eNxRYSkkOjPPSgZG0C6IBDBLiuoIrD6IM9G7gICReD0WCIAlkl08kwdIMIV+yCfNkL74GORUAsw9d/5hySAJmnmUydFBMeXh7KKdd59QA72wVuFxPEW7vlWqQJMNUbcCLgWcu2NDauQxZNChiWiQRGT8GFhPAcHwkoxDTTcCxMjTPtJDX21BgYLkegH2ZTXseL9C1OzIUjSld1OtYSES3KtK/dtbHNBmhcDNBcErOBIe2XOpA5GG8P4Wa6GituyL1rGk12D1DuCIkMXIQMhQLJtGkRMX4YIbearusyb90UxTsbx5hMfWxemFJ1C+5zrWNDX8cojmgfDKEmlA2yfhtR6SViqGIdXSWJTKUHE+RsEwbr3/zDbzyax/HDocGKGiv1XEY7B6rMiqjpI9yXajuW1WgqkBVAZE9Zn4IY7krqwU9ijDIPBwmJq6eVFG3aBZELXwBvdBE785shQ9JeLKASNB01jD3eWHmCTtHkJRwNpufrdRKrYNCngNzDVI5nROVKCV1GQqaHSm0LU7ELVFVaXrklNJIcUQsTZt2H4zFntju6ii44+f36KXDFYFFhQU5AySyqdLUxU8hjWGbptgWc1gxYUmsNTKmOCqwtcZxaiXPzJqcZiWVknt71UCc+fDTAPNkITA/vQWYUcAhgfC7RD4HXJuEiHPyD1J0zbYgJVxd7MxNbO/W0B/eg6Fm0C0TCi2rGzbqXRutdquMYZ5RZVCgveqKKRPlqIuMXg9cW4QIQwfxJEF9OZWTe7qnodloYhZHyBs0RaLplA1bZd5BSQHlgCF8Dw5KXGcozFYgssCGriEKIiQuhzQFutKCoWdwdF2UCMmYLpoplDowqC2XpExwnUNhqybcBL52oilEiDgsRWGM0c4YK2cGQsgsDbgeY0/liqFcPRWYBFM8em8Xa1cGsCxTCJWUNvI9jxJGcRPGKfkLtsaVEkTiyD8paSxxCUUGNRJM6XtRa7kI/LkoGJYvLeHB9B5qRl2Mk6oVQ3XBqypQVaCqwEepQJ4j3TyENmhDcSx5pDs6gpFGOP+0BU1TUVObKHKe5nMU3L9r5bpALs5y8S/QcFfg+XvSjNkogiwuT+PctEvwE0ONiAIcNwmVLZ1chZLDIMOCQkJZIA2M3yPawNO9IpyGHMEkon8jrI4mygimAfJHkpRIWJ2mSNQrsjXSepm/gRbRcRLDMg25D5s/1RB8jhIWVBhi5CONVDQaJUpCVJwDS5pF0uDIMSDiMQ5HYvvbNJlCCNgGJZ8qZpGHonBgaAwTEqGmNEIiHDevTTGdKbh0wUWTyYlBBL1drirqWl2kkyRn8hQfjBLoTc4uiSgcCL/buovAA95+/Ud4+ZOfxnhvF3NvjrpVg0Kr5pqKxhJli668J4LpFBkCmlQZNKlSMIumyDJLBhSaS7EWXrQQ2+VMiyVDQ/HbaK5msGtGibwc5miul+ZTrJml2/IcSeh0dbdES/gGchBRKYklulRg/+Gh0FnI/+D/Qj9Ge6mBWoe8Bg575dwwHk9w9ycP0T3ZQne1XWZuUKdwzLlgZgRHtvIh/KzpCJNQhhxKbfn+0eGRQ1vs5zjYPMBkPBFfiVMbJ9Fda8tqgYFN/KBVA8JHuTBU960qUFWgqgBR2tkCycSDdXJZ6uEEhzjd5k45QX+ljZpLuJmmNECYJrIX5ym5rrtyuuXJslffgBccighyEbOxs0uWCIFA1yrPnOWFnXwC7u3jIhVUgl+T5qBkiNNA1g3CdpChomwMJMkRyqYxkDUgrK/DVuuS9udl3K9zQGCzpTFTjnm6kAGBJ/9FHJRZDxMHSDX0ztSE9Ch20UQoCkeQCw4GlFNyIJHTKZMtJYuCsc6xIApBHMjzNRQN+/4CLcsEQYwg90uVANUSUhOuBww0tS4evbeDlbMDYfcTYGFzJRdD8h9UTQiZdD2UHIpQQ+bnKDqJDAeUFvL0fLTr4et/8W3823/77/Hnf/7/YnVlFa1WE+12B+1WE48ePcLDh5v49Kc/ib/7/vfkpP2bX/51fP1r3xIE4ZXPfAKHkYWWO4Oh0vwpE35B7MdItQxF1ICTusjUMWAV0A0VemjC7liwNQuOKBx4eifpkK+ZMeAM+CrdNMUCqaSoyI0uiCSYsqa0zh7ujTFv1LHwIvTbNjo28ODGLvYLEzV/BNtRcfLyKnI+l4K8EwPjcCpKDxJQZQwhsVZWUMzESGQo4fvK3Ic7Nx6gd6aFWsdBrmaCGHB4oPKCXAk+thoQqstdVYGqAlUFPmIFiqmHZO6X8dDc/e8fYbWd4NzZnnjjNzrMF6DmnMsA+hQoiLMCFkxRSE7TGVaap+H7I5iajiRNBComxE1IOkojYbuzwTrc9as89XEwUBAjEBkkL+BUCUBN5TkUBVEKrgGEjFCeTplkmGsI5z7aS00YuS3cgSj3RF3A0zhRiDD1UNCeGYwU5imXa5EmHr6xKyfu0c5ImPL3332AE5dOYPPWJgzDgDdbYOPCGnbu7cOtuxgfjPDS5z+G1//qDUFNrr58Ba/95Q/xsd96CU7bkJWDpboIcjoJ2nKyZQMjP4MyTT7xttGFdxjh0Y1NrF4ewO2W8cWLeI4ldyDmQ4TLp9kEtmpJTPV8EsPt6VI/fi0sQgx3p7j+zg2MD+c4d/EUUkpNp1NcvHARjUYd169fx2uvv44/+P3fRxhHsMwSsi+0AkHgS0pi7cQZuM4EFu2X2c8Leh/MkaUOxocOnrpgiiUx1yckWvbOtmQYapktQRHE2IqDGk0ijocBsXIW9YuwNWU4K9/An/kQKgV2t0bYCXMMueDxA+ZoYm45KCwdxszDujIHnAwrJweSoUDkg4TPaThH06jh/o930DnfRL1RcmXiIpTPD505o2GO4cMhOhstcZAkN6Gm1RFm9Ncoh6yBvVINCB/xulDdvapAVYGqAijmPqLxDPbJlbIahGPpub/w8PRZF06N/gVs0AoyJZKTJxUKa6iItQAAIABJREFUlDRSPuZqDjqNNXjeYUlELGKB46ksYAMkb4F/t3Sm7dEBh6iAJg2VXgZMceSJntAy7ZVLu+bSX0GY+0kMx7CgKjq87QhO14bt0AkxlufStJrlz6fdbxYjyEPpU1EeiVEPf9/4XoDJ/lRIbSTGnby8IR4Hk8Mxzj99AXfevY3TV07jgzdv4uO//nHcffcOVE3D4MQAcRhhf/MASZigu9JFo1MXpUNSC8SNcJ5OpFnxd3Hw4XDERMiW0YWPqezGYy/FwfUxzr64AdO0hLzJ4ckoLPiLEKHpSS5DdJSi3eig1nXltB6lvgRWbW7vYXtrF9evvY8vfPGL2N7dxnzm4fTp0yIL/d7ffU8UCa+88gqyJIFm6Fjq9/HX3/kb5HmOz/3qZ1BvWphFNI/KpU4MiFokJvYOgAurFhoOI5VTUZNIAKLKAcWW/6bUlFMAf5fYGh9HPwvQIlyTciIQkYLsZwpZtURRijtDH9Mwg8ehzzJloCjGnnhx5GkKLU2xbBCNiHHi+T4KHcLtoDxyFIww2/MxejhFveWid7FV+nEw9IthXEz5HAUYPhqjfbKJ5aWBIB3TuEQfGM1drikqo6TqUldVoKpAVYGPXgFGQ9/fg3lyGYpZxkIrSQJl/0gIgZdPOHCaZWPn6iDKAmk6NPXhgNAymug21uEtDsWngAoBL12UjSanrD+WCzrRA3FTzAv5OTw5i0SO5DPmNRxb5oaJJzAyefCUOrLpECkQk6SDBVzXRbvZwSQ9FMKcxp+T52gYtVK6iVi4EFGaStSwrdex+8EhVi8uSaMZ700lpZHmOnQrfO6zT+PmG7cw2Bhgf/MQlz9+EddfvYH5yMOpy6fQHDQwG86QpxniKMaZq6cRFwuM/SMZThhuxKZYN13Monkpgyzo/miXUDi5GIWCnfcOsH5xBbppyEAUBoT4I0lo9L0Q3LlbbRPtGhUJTMskApPCouqDkdgqkZYc4+EMDaZz0o6agUhphigKJeGSzZM+BmKRfbyqIWoiEctc99CzIFkIp6BmNTBcANcfTXFmvYFVNytJh5JnUTZ6ckhKCgBtjOmVUUL98t/HN/IGuM5J8gyTKEfdUKDmBYaTEB/MMyTmT8PBiihG8mgfWZTIM+w9cQo9M0cj8eG0TUwmU7jtMqWRqM0iXmDnzj70gQLlUINhmeiutxHPYzitclBkfPh4e4Lm6Tr6tSWE/HxSiaHaUgsiEX4WVAjCR78yVI+oKlBVoKoAkHkBisMx9NOr0sTb0QSDZo4HsxryOMVVbh/cSAx+junjMhw4eklEbNQGmM73xQDHNkwskpkQ7ySHgfdQS8SADY07e/E1UCn/K2N62XmY4UBuApt7SVZkczXkdF7yAlRE00S8/RuNGjI1QpB78nxp2UtfAkd1xKSI3IMgiWVIqZkNSW0ME1/0+TXThibNg3p/C3HuQ9NsUTTwtRSxgoc3HsGp21g62zlOfmTDZg6AIad6nsCZWcBH0HWQ6Mc0nEnT5uunzwDhb6YdUr5JSeXe/SOM9yboDFqoNV3YNRuWa8hJO8zm4twopEkaS+WxQPn8nqZzL196K7Dxzcc+Yrpd9mhDDNy+e1e4/o2Gg7Xl5TJhU9wxf9rEy8/4z5AEyvM+7s9iPNpbYH2lgXMNA5mQPMtMBgGT1ExUH/N4JrUiYvJP3Q6HR7i3vQ+zv46GomIvyuDpZmm8RclrmgnBNXl0AINW1g0XfW8GezGF1TA4IUI1VezfOUBhM/siLlNA6cTVyWD0VCipiukjD4ZvITdy5HGO5RNLghgMH4xw6qkTaPRdee78TE3CscRrc5jlaqTiIFRXuqoCVQWqCvwcFSiSFOntLRjH1suDaIiVdaBIVNzYNmFHCZ653IRplCl59DWIEMpJj5G69XoXE+9ATsFsKPw6kQQa8JQhQBTCqWiaLURCyCt7h6gJKKIkIVBQA0NUDGI6lCaiECANgTbQ04cBDN2UJEWnbQspMYIvaoc0oXa/9PsvI4s9aeAMQaLlb6rESBYpzIYGn/Bz0pYGqVkFgmyOIItEBVHXG0hIgmOqpGbBVF2Evi/M+Cjnn6UZEC2MZ9FElBpEQuaRh5bdkH03T/whofMyrgpdoy/oCE/0hzuHGG3OcOHF88dhU5E8nogJgXoOEsLlp8RSM4Sgp6i5cEBE0sn2naQ42Jmis0S/ARV7+we4cfMmXnj2WTSbDDBiwShdpDKjVJt8ONX9zGdDDK+oJtifI4kyLJ/siEqh5BIUUDRyPkrpKVcTtFjm+04viPJW/mzGKL33/m1srK7izYdH0PvLQi4t75IjPZwi3h/Bqjvg50w7ty4yz46R44kGMF948A5n4ntAomGmZbJaIALADwk/U+QSyGqijBAVgyUOnNFmCjXVUD9jCfLC4TFIFh+uwfjIlGsww60GhJ/julA9pKpAVYGqAnQ8QnxrE+YTZTbDanyI1XUbiprB8zLc3THx7EkVtmPLSZKDg2FriJIYuRqj21jFbDGUlQHVBjz1B5mHhJbLErxkIPEphzOh2gx4imWHzGZDxr9GRrxEAhciZXvMWqdVr9xiIJjFMGwFpmsgU1M5cZPtziGiSDRxTjR0Q9YRzBNg5HO0ByTzDMEklN/V6NeEf3DjtZto9VtoLNVxsHWA3npXopljL8HSubYQ9W6/+RCDjRXMR1O4zZqgFM1+A77nY+F5sF0LcZiisWYjzDy4Rg1+EsARZYMuaxM2MUkhlCTCHOODKeKDAmtXl4WDIENSwTVJaTfNKGQiCBya+PPoAcES8LGToYeUEH2cwnTNkouhcRgrvQb+4Y2NnugMeYP/smlREmc42hlh6UQHusHny1v5bw5mXCBMPQ+dZhN+FEh9KU3lgEBU5Z0hzbV8BEcjGMur5alfLJ4VGKMDGJaNuV2TwSPdPYLWrkFxbRgK8PyAn48EYREjS+moWUodRWaZs449tE3yWqZioc26MoyKPg28yUAIJjs2yrXCsYskh1giWPyHa5mOWaU5Vpe5qgJVBaoK/FwV4Mkue7QP/eyaNJvl6ACD1VJpwAPl1u0Ig+U6ah0Feurgu//lVXzxf/08du/vYvn0EhrNDlKm/fkhdMOQeGijRitjwBvP0ei1cP+d+/AXAS69dFHuZ/VIYiSJrIzvLfsKT990Ayy5CTyj5kkGfxijtmxANbj/ZgBUKbnTNQVm4SJMYmkE3MGbhkUrQUzjOWa3IkwPZ1g7tY7h7hCtfhOtbhNJkmJ6OEEUxFg5N8Dw4RjT0UwcAE8+eVJUAG9/7x2snV0VciIRg85qC1mcY/vuDtyOKwPF+qU1GB1aPVN1kAnBkg3dNgzYComGCrx0IggCeQiTzTk0WFg515EsCr5IchV4SqbjItccwg889gvga6KSgLftO7sYbCxhMfMl/IlRTeRzcI1S3v8YlpGhqvyfKE8yyvz++Y8Fvzc78hBHETqDDgyLv4+kVBJFSw7If/t//gxf/vKX8eO338bLH/sEhkd76HZ7Yox093COwjDBCMZkMUd7qQ9/OkGRpYgmI6ycOosRCYlFgckkQkwPjG5TfvbVXoKanojxUrmyKSPAOehtz2o4imy4OnCyRv4LfTYCeIkvnxe+PnozUCHD9QuRjo7dka/P4pkMUjU0kOkJLMOqEISf68pQPaiqQFWBX/gK5EEsHARto5Q6Lsc76K04MOkaqOuYTgJMj0KcPN+BGdTgTyMc7hxJ0uDew3380pd+Ge+//h5UXUGSJDh4cISzz5wRctxsPMPS2rL46ZOcGMxDqIaKq5+4IimEMEJZJ5DMGGSB8BUY7UtyX0SC2V4Mu6/CcXU5JZYNtGTOc21h5CQnUvrG0zfdBMvQIbL0t94bYeX0ClIvxoxJlQx0qtcwn83khH+we4juWke0/SQlnnv6LOrtGm6+dQsrF1Zx49XraPVa8Gc+moMmesul//+JC+uIwxib97Zx6eXTcqImHyLLmCKRyvMS5QdNIJDDTZrYvrknzXb98gBmg2sFNkbC+WUiIlEVyYL4mYUAT8Fsftyp7z88QrvfEATl8Y2vWWB/ARF+Skz86UrhZ3/aP/8xpy8CHzPanaLWtOA2y6Cnx3LFn/zkpqwN3rv+vqgL2u02wijG1tYWXnnlE/jgg7swXAdmrYHZ0QHOX34WP/jut7G8vILnX3we++M53v7h9/BLn/8K9mYB9EFXnsyTnRyONpfXwPfLp0SVg41h4icHNsKcqJKCKx2uFxJMok1BGVgXxyiDonp2H1EWlmRQyf4oUITA1rs7yJJCEh17TzarAeEX/ipXFaCqQFWBn6sCIjnj6X/QAdIMHeyKvHHQNEonvSjF7n0PyxddmJOanB5f+8ZrWD+3LpyBJ567gne//y4GZ3q4+cZtmI6JTq8NwzTQPdFBFuaYHE2RJ4TKJ+JDQO+BguFMSihxxuQShOQ10LGRAU/MOVA0jDbncFc11BxHTJnIe2TeAK2THydGUjtPQiO1/yT6sclYPNUmNNqh1JFujnRF5IyQIF4o0C0FYcw8iFyMgZCqME1d+ApmXp7qUTB3QcXNt29h/coqUjWAU9Rhmg6ShKFThQwGzCWIEx9ZWECvlUFU/hEHpQNkUS6Ix9rVAeptB6pmiPyOp9y21YGtkLVP22e1REzURKSRJFGSE8HXSAJnGATwRgssnegdKxSOzQxEmVpaDRPJIOVjcjhHrXkcxjRdCFLSXW4f8xj+/x+RUolATwM6IQ7RGjTk/RE0oaD/AfB//sf/hE+88jK+93ffx2/+xpfQ6/fw7b/6Nv6XP/oj/OVXv4bxdIGLL7yEpuvg/feu4cKVq7j2+mtYXR5gOPcwPDjAJz7zq9jam8FYZTS1gmU7wbIbyrqBsddeMi8HxVTBnq8iS1XEcHCpTatrG2qRomkF2F5si9UzFQqURJIL4sUeBrWBeCAcHYyQznMsn+3IaubgYFgNCD/XlaF6UFWBqgK/8BXIp4syWKjbhBon6Ls7aLmWnBYJ5xJF2H5/jtZJA4P6ChzXxGIcwq5bGG9OsHrmJBbRBPubQ3T6JXxMwxrFAMZbE7S6bTg1W3wRAs+X7AF7yURC+RnteD2enjWYdWYfxOJ/QJWDd+QLItFaoY0wYIjzYBmixP060YJcKV0Q2YSTJBeinzg3CvSuiRqAP5saf0l7ZMz0sU0wv8bmSp0/yZY8xRNN4IleXALFpElFHCaYFkOph0VIGzRKmsPWSgmfpek4eDCB5ZpQMx05056zAgs/xOrFvvAjMouIAW9MXgzFrpmqCC038ODRNsI4wKXL52QVwedEXgJheT73xxbFw92RqCvYtLO0QLPLeOpyDUCk4mh7AkWSMrncUAVmZ61rbRdxkKDRcaGb+rHLYfmxLz0Mjt0Gafuc5JgeTUCXaRoPmZYGVTXwvVdfw0svPo/xZIpbt27hzOmzmEzHeO65Z3Hjxgf0WMR7t+/i3LkLuHv7Djq9Lup6Abvdw80PbsFwLZx44lns3NkRSS3rxu+fa5LsGqJuNsW7wk8X2PUbSBMLtp6jYWZoGHTvbODeVEPP5nD4UOSafJ84QJmqIcRE3jpmF5MHVIUAJy4PECc5Hl7frgaEX/irXFWAqgJVBX6uCuSjOXJNhd6qwYgjrHYOUDPMMq9AYdSygSykqkFDs0c1gyr2wyQIRlmCQXMD4/meqBIe6+IXqSeNjI8n9MvTbVIwXfEYgs8ZuqNhf3sExzFFkqanOtRugSgJxcgomeWw6jrshiXGPZThMS+BpL1cYRQjrX4zae6Ut5Hkl4aZ6OX5O5lOSBtgSg3JA6B8sDQBSsUtkA2YhDZC+/RMIMzNpk2DID5ikXnCqC8tpUttvc6hhP8oxYexyHyhwW4mq5NGn0hHjkJNsfnuAZyui/q6AVurC7mO5j7zcCISUO7MG3oDt2/fk9XHqZNr8nq8OJATMuv5OJSITTzyY0xHc3FB5ADTlgZeDhIZjZ+GE/TWXUFR8oyriFJpIKTRRYg0ycQGmUOCZZuwazqiOII3DdBsN49Njo6TLNMCs8MZGl0Xpm1JPUVFQXSjNLyU+1tOaUQURwm29n1sFwpSQTJyZA92oJxe/TBkiRHYwb1dGGt9KFa5KmmbMdZqMzTMmqgmJnGA3UUTi9TACVvDlGFbKnC57WAcZ7jvZbjY9jCNRmgYzWPEgUOfAj/xyxjuPX5KuM5Zgp+Q+JhVA8LPdWWoHlRVoKrAL3wFsuEUmmsBrg0zDtGu0X6Yp0pmCliSH1C3GnLSZoMj7E8SYlzzRaJ4onMei8VY1gSm7mKyO0dvqYtYDUWmx9gib+ih1ncRJ2SoR3D0hjD579y6h6WNNlzDRuoXmG/7KByiGUB0UGDpdAemYSDAFEZhlxkLfghvGKCxwRCpAlrmQMsMzPY9xD4Nh3SYS4XwDArqAlTGU1ulhFCMhIg4cEBQhRRH9IEuj0QMGkoLlqEIrL4f7omqouQ0lD4JNo1/CiIUJGGSKGmI/wJRhenQg9twkFuxnHCDwwzTrSkuvHQeP37zGq69dw3dXge/8oVPSux116K0UIWi6Xjv2vt49tkrMkBFSYC4oEV17Xj98JhlWHpGSN5Dkgsfon2aSIQur53kSccxRLnA4eKfu9HhkM2fiZJEaDhcpGEOwzEQL3yRFWokOMaZOFiqhoZGt46MpkxJiO5KaWa0GEcIvHJgWDtbWke/dneEmemiSDJk93egn1//UNnA55Nx1RTFMNaWyiEDBU7WM3QtH2GS4YHXRpAzZRPoGiosPccDDzA1BU1DwTjK8XQ3g58fwFYdHAVHqBt1BJkv6geuGSYf+Gj2HXRPtJEoQRlV/mA8L97YGv7C/5+9KkBVgaoCVQX+1RWg++DBGGarDvBUGc7Qbe8J9M+9ftfuyWWcOnjuDYpUwZ1r99Ed9ETyl0Ypzl45j8OdPbSWWnKqDLwQj248wsalDRztDVFvNcSJcHo0FzOk1qCFo72xpEW6PQutE7acBC1dRxJTgw/JIPB3ErSXazBsGghxH67C8+YS0KPSiyHz0T5Zk+FgvOeJDLLZdzHeDmD3Nfh7Eep9F2aLY4IpyAPzJDgJ8HlSBcA/ub/n2oJOggOLJ17ITttLPFmVUOwXxQnqllvKNkmHZLwxAkEilCn5DoqsInonuigMpjEuhHMxvDWRdYfdcPDDd97Ab3zpS/j6178mjffFF17AD374Gk6fOiWrgFarhc2tR1B1DU9dvYpXX/2hrHh+57d/89g5kWpBGidR1pljNvEklyC2QhieDrtenvYJO5CPIV4Px8/1w8+DcCtEpIgspjogh2YWSDkR5Qo04zimmSOAyjvqghwxhlu3VGhmKc+k8oBoDJ0cj3bmMCR6Grjt58g5wMwWwCKAtlLyDT68ZTmirQOYK70PUYSuCTzVy3F7EmMnYAKlWE/gmX6GrUWOg6BEG2joyR91oRVgGO6jbbYFnaBUNk4jeMzH0C3MH3po1GqwV2wZGlpWRVL8V18PqjtWFagqUFXgwwpwQNg+lAs2dA1OPETbGaEw8uOcg1hg8L4zEF7A1p09eBNCuoWoFgzbxpmLZ3H3xi0hJdbqdTkdU1Z4tD3CxRfPI5gH2H+wL8S+jSdPYvfWvjRdyupWLjfgF75wBcQwiVkBaSx/8hhfTHW4SyYUcEhQcXQ4QaNjIzVCLEYJTMNEOMrQXnFgmDQHUhDOIyymAUyeiIMUtYYNtZmJvwHhf3oi0NeANzZqhhnx9zmqi6bVkp8xT6YyIBD2ZqJiruQSqUyURJQWUY5oTsJjitaSK6dxQylXE7NkKqsNhjjxpD86GiOZZHjv5gf43K99Ft/6xrfxuc9+Ft/85rfhLTz8b//hP+Crf/GX6Pf6eO7FZ/Df//yr6C718MLzz+LVV3+AF196DoOlniAFJEamGWuUIMoDjHdnMC0TqZpIc2w0a8dx3JSDKoL4PF5VlK6V5QBAWSkdKrM8Qq7EyOnbQKKiQv5CyUuQ+6dcc2hQdL6i0tCqdFvk3w0J1frJB/tIfAVeo4mQeQt0Tdw8gLneB4zSvvtnb/ncRzbxYJxYko5P46x1V8WM/AfyN+R9AZ5sA9OkwKanoKHlaNtAkKhYrY0Q5r6oXSgFrZl1WX1woOV7Nr7jYdDvwe05mOXT0kK6QhCqi15VgaoCVQU+WgUkJfHBLvQzpc1yzSsv9msrOfR66fBnGzVJFmxYbWx+sI/TVzewc3MX06MppgczfOorv4K3/v51cf/rryyhPWjh4Y1NOe3FQYTByQHCBTMSfLkPbYb37u/jxMU1NFcZ1JSKhTEI9euE8EuzHH8RQfVMdFZLh0M1VSU4qX+mi1wLBQ2YbsZQMw1LpxpQaMiUUvduCBTOkztzGvzDGKpVwGgwaloVfgMX+URJyDuQQB9Fha3U5PcyTZANiA6CRAro0shGRA4EWQ3U3MePgHrPhd2m0ZEmqwZxGSwgyZRxzkhiSvci4TT4wxBvvPkOfv23fhV//H//CU6ePIluu4tHjzbxu7/72/irb/0V+v0BnnzmEr7+F9/CufNnsbWzg72dHfzhH/4edLPMr6DlAXMPwnReNkhC/YelY2W9X4dh6sLt4Nf5PBha9FgRwhURhZiGZC4YguCkVJAgKc2PxGKZgwE9EEpvBeFq8ESvlo2eBMhCLQmBSk7+A/DWlocRGanHt2RvJMOFvkxfgn/iRs7EwUQGUq1Xuj/ytx1nQZY/G8AJlwRQFXfmNFQq0DGBhqlgyfVxFBxKQmhNd6XuFg26VB2LdA7MVew/OEKaxFi61ENgLKoB4aNdFqp7VxWoKlBVgL04R3RnG/aFjfKqvHsIWydzHVjamErDbloNMfZhI2W2gaLTg4DqAAPvfecGfvnLn8LcP4SjWNLsyWdTC10sccuAH1ovR/DymZgNBaMYlumi0SWhz5cdPE+iWUaGuiGGR2GUwI89FGMFWahAMUunwdayI8Q8Sg552h3ei9Ad1GDXCUob0hRttU4nAtHOQ9ERJxmiSQqzRcp/gpwIABMgVRMO3QMJpTNdMizjgetmTZwYSWpkY3Q1V+B2hjFpgY7ISyWHorveKY192GgL2vrSAdFFGMfic8C1BV+PFuq4994m1lnjZgCtMGGoDlyrzA5AQTSDQwrHsUwMpuiEyFhnqaWc3EsLZj4/ciYOD4aIxjE6p1qYjxZCWqwv27AMR9ALvl9EPnSSPxW+n5rwLlglMb5m1oNGl0aiJ7Hs6csPQCzkT1nD5CXcr+glYiC5CkpWSkCP8zPi3MX1RzMc8Cfz+TPUavMAFpUKYg/9z9yIXN3Zgr62BLVW/p7HNz6LmpGhb6agqcGjoCWDiKvSVVHBU90ci2xXVkNEnhhJTRfFcTSCa7pYRAtMwymSWQr/QYwzL65VA0J1sasqUFWgqsBHrUARJ4i3h7CIIACwD4cYrNKwJofj2tKUKD+rmTVJZ6SvADf51J/ztNwwWmjV+xgvdqFkWikvfJzoRFD6eOdN7b+fLZD5BcJpAmuJTUsXJUSqRvKztMIQIiThfrL4g3yOeJ7Ddhz4IRueA5h8ZgyKjkpTpFxFoWcyvJDEyO8y3KgoKGHM4Zo2vMjH/CBGrc8AJDZaOjcaqGmuSP6IRKQJVwk12AbVDonss9kQSbyTPTezAKhWOIxhNDTYDpUJNahKJk6LDJkSN0j6RgjNP5fX5mgNHD0cI44jIRQybbLMm6BFcA1duv/lKtKcaYsZNENBnpEkyTwH1lNDVIQIkwDBQYhUS2E1TMy2F3BXLQRDcipKSamWazBqGowWLYm5SuHjSxUKvSY4gPDEzYwJDiL8fsrIbaIDEtXMF8BhgAOADiUnYqGIcdE3v/XX8lk4sb6OJ548K6d2kgq//s3XcPnyk/AbLXlNk80DNNt1aK3aTz+KBbCIE7imIZ+MWchArgKS7rhzJP4b/3hIMNUCNZ3ulAr8jIgIeRVA31bQInfFmmEaD1Ez6pLxQX7JLJmgay2JX8amtynR5d6NCJ1TFQfho14XqvtXFagqUFUAiBOEmwewz61LNerRPv4/9t472LL7vg/7nH5ub6+XfVsB7GIXi06AJEiIhESREItIUZQiWYoyjv6Q7DjSH4knE8VJPLE948lMZuxkJNuyM44lESyiKIkFBAGwogNcYLHYxfZ9/b37br/nnn5O5vM9b0EAIokiSBSoezA7+7DvlnN+p3zbp9QbDPJ9CVicYbNqjeJQ5vN+4qFklQQ5TiAc29XVwgxctw0lNWQ+zva9qAmyVU3OvlguAW7gonm5jeJCTvAGfOjTkIgJCFv41O+nCBJtnE1SDzVLqmlVSwXVz8/i54uPA2V5lUj+jdUjkwGyDBgQvdCXtrp0/FOCEH2osYFRz4FWM0SXgPr9Bi2TwSDJbkJOdBb8OMgEe+JYxJay/dJAzwKhMzYD1BcqEujIvec6RAx2HEHQcZKqfuzApCk0NcVo4GPjZA/7b51HqHnScfAjXxwmK2YJ9VxFRJLihH9In4wlQaHnwKDtopwvYuRyhBDB7YcwixRh8lGYKkArk24aQYsMrC9vwbIs1EsVJGW6XnK8QinmzA6bydlcYQ6aQpxGpqFMl0MmP1wzrgQzjQhxdl4UHU8+eVLkp2+/9VZ85nNfwLHrj+DpE8/ghhtuxHPPPYtDBw7h4qUrOHrDjXj86e8Buo47b70Fjzz2uCRvP3PvvXjgy/fD81zc88GfxbPfexY725u49WfuxaabjSkkQb2yKeqKC1NZktGLE0waKnoyCkpEOInXBferrKvYWzIwoDeG1ZZ1b1gTAuakvfO2t4kJfQ5RFGI7XkO0CYz6Y7vn8aNuvALjFRivwBteAVaa8cUN6AcyH4Zq2EKcL6BmbqFs5SVJIFqdFSgraOoG1KwqPOofFOpS+U5WFjFwd2CwDZ1QPyHOAo5GQaNUlAW5sYG+cWkHpcWcBFJWp0xAnGAoLXkmHJquw9JNURjk93JaLnoFCCR4soqUmTh0OGkPaaS63SDwAAAgAElEQVRnAokE8AnnX5eEQNrd3HeppKnKl6Kz7iA3ZaFgUdEwC4k7TgcFIw9bxgicyYcCsmOlL9gCVuHQ0dtypEo18zrK9aIkPwY1IqiMSFVFRYMTUMExlYqctMg4CRH6KVZObGDiUBV6SYMXuwKKLNtl1HIl0XVIYzb+qSGRdRE4jkn8BL3tEVIjRqxHUAtAzjBhqXkMKX3d64k+xNTkFD7/x3+BD330g0ijRLoOzzx7AvMzs8gVcjh35oKYbN10xw144rGnMTMxI+fi8JHrsL62LuOQyxcv49133Q7T5KiEeATuS4pTz50XdsVttx7Hv//D/4K52Rl43ghbGzv4R//4t/Bv/+/fR6NWh5W3UFvcD98P4bS2UZ2ZxXAwxPFjN+C5Z78HRTcxUa/gyvIqLpw+jfd86CPo2qWXrlWeo+DCGuo6W1QWCvvnsfbQk7j2Z+6Aghh5MmNUDd0wRt3UMZnTMOiPYOYspN4Ane029h9aQuhx/BFhfXVLkoLZww1ougFve2z3/IYfDOM3jFdgvALjFZCH88U1WAcyDEI12sRkIwcgszCm6p+A4xjvKXbEAEr6nEqdfE0MhmZre9EbbUolXdIK0r6miDFpcxQM0lULURCit+MgpgPiVB6ardENGEHqwtulqLGbkFM5RzdhG7bw8zlyIF6A1aGvDGCrDORsWY9g0X46pmkRaYeZbj8bGAk8qZRVkW3OZIgpy+/tBFBMBdVaWQIxA7V4/oUR9lSX4IaeMDRoALSz3UR5b17Ekaju2Ls8RH1vWeyqqQtBemHRLKHn9kU8iaMF7jPFkDhioK4C143rdPmJVSwdnYdZZDeD44sRhoGHPeV52Ho+A/sJEzCWfSCwsLndFGnkUW4o7IKcmUPQBS50NJmx376njse/+xjedde78MCDD+Hmm2/EH/7hf8K111wL13OwvLKG4zcex/XXX4tTJ09hdmoBC0vzOH/+rHQ1Dl9/HTq9DvbtX8IX/vTP8b733Y39B2Z3RyoqBp4j7pvs4uTMAv7Nv/kDYamYloFGYxIbGxvI5Wzk7TyuP3IEn//Lr2DYH+BXfuWX8eWv3g/HcfGbv/XbOPPiaYRxgryu4qEHH0TgB/jor/wqOhYtt1+2pSnyy6tYfvoF1Oca6DeHuPnD78Ejn/86fvbXfw4nHnoSh999HCcefAK3ffgueD0HK6cuYOHgHnjtFiZm6rh45iKOveM4WtstLJ9dReC4uPsX3yuA2DGLYfysG6/AeAXGK/AGVyD1Q/jrTdj75qDEMWrqFoxcFQ3bkeDGapguhWyNMzHI6zkMA0d+piwxOwt7J65Fd7CJvF4U0JiI/ygRYiUzKyIQj0Gps9pDaaaAQiVTRlRi+iZk8/YgdtHyO6jaJbE5pqSxuDyCnP9YAi5R65zJU14ZMf9mxZ3RFdlt4IiBP4TwpTtB10ZRg4SCIIowHPoI+6GAA23dxnA4QhhFyJUsTNoNhEqM0GOnQoQCEIQu6ot1CdR0UQyHkXQkqnMl6XKwB+HGnnQq4jgzdiYzgN0PJyFY0pbxx8b5LSiJhtr+ooxW/MiDR0Mq1UDJ5IgB0lFhC51/U3raHwYo7UpMK4GKtc0UHbWING+DaM6wtwM9X8RcrYpnvvpnuPbAAXzvxDOYnZuBH3hYWJxHp93H0Ruuw8kTp7C0ZwnbW9vo9vt4z13vxqc//Vl8+KMfxJ9/8S8xPz+PY8ePYunAtKw1m/m08hYJa0VDOVeF43hivkXJbFp6D3oD0W3g+lGp8sL6AH3NRMM28Pxjj6DZaeN9H/4wOl4omg0UmHJ6Hdi5AkaKhl7wcs5CdtFWt7Yx3GqhsXcOV54+gyN334oXH3sOs3ffhuFzpxE4Aeav24eNi6uoVItoXl7H8ffcjGGvj6VDC3jxmVPCrFk4OI8nvvoUrn/HERw8vh/PPfLcOEF4g8+F8cvHKzBegTexApyTs+X9cgddKSB3Z6Qv/0hStFhVc6766o3vITL7x72lvSHCwQjmwhS0KMSMvQE7z0DlixANGQUUDSLtje1nYgvopEfr3Sxg69jfOIzLO2cEsV82ywIcY7gU7UHBFSSSSLRW+mgsVbLuQ8YzkCCvJtQniNH22tL+FzvfFCjoZZmKS9uboDlQsyCSNrI4OiqJCCwx+Mr4Iybwjl2LLCiJ0DDPVawJzoH7w+5A6qeIggQjfYi8lQMCFbk4h8SOMdgaIVeykS/msX5mE+WlvLTqVV0VLIWz6YJYSUoTiztl0M+OR9XhhWRNKKjoZQRqCD01RMKZ3Y7VE1soTRRRm85DzWVAxlR0CGjORNMhAkIT8XhwNgKoRYhaJccuzoaONa0GWN/HD8h1s6sh0NBS+M1tWeu9C5PoD9l90FAuFiRJ0qmEWCphbW1NRiKmaWLQGWJx7yy2m03opoVqpYRUIXgwlH1md0eOz/GQL9qZlkBCbEo20sm0FXYFkBTg3GoXF1ILUzkD8aADDH2ManW4Qp18fdtEt4swSgS02H7yeey75QiWX7gI9dg1aEQhLn/7adz28z+FRz73EGoTNcRRhFvvPopnH/oeDt96GFfOXEG72cbxd90AdzBCp9nBdTdfh0fvf2ycILy+UzB+1XgFxivwZlaAs+8ZS0dr9TLKE5PoE2UvpjjAohEj0Qyse1lQ4mYxUDXXUJ2bR9PPMoGr+UDd1lFBhM1YhRv+1Urqzezfm31P1OxmD/zJKowowIFyD91kR5D51D5gsGbVTkCeodCrQEfJLmIUeNL6HsUu9jWuw4WdUxLgpvLTgtznmIFAQ0mEVF9c9ZRUQ2WCoL4sedA0Sh8L9B9u6iKMaJZEoGO0W8XHIBePc3qyJtjqZ0eDjoeUTg7hCoiRFD9iITiqsEQsiQkJIYOZ2RLHDgTksSJumBOSXDQ98uhDsQnWNAvoAblKHoZBVkUAL/CFfTjqefD7ISYWqmJV3d0cojpXgFnWJJD6DPBRANOwoKW6dBHyZgnN7R4akwUxb+p2hrCLCnaWe/BboZggsQsRqxH6vQGcVV9UJ2noFKcBmhsdpEYq4kuBA6z3bYzypcxZcX0HycgVFUi6ImolGja9LAgHASrdLcweMuTYOhcGMGwN1oyJCKFQO/n6ntNHPsnBKljQIgWppaBApUhKUJNO6Ebobw2gWAp8x4ddsaEUEukocMRS0styLVzdHDfAU6sO3FxGWUwdDz7FkhZJY+TI6rW3uqWLrbQTRJjOm+ivbEGvFtEmGFal/oGJLnU1CrZcn4YSY9J2pSPEO3Hoq8jrZLFkxlwhqac8N6o1ThBee/nHrxivwHgF3uwKFJUET37pT3HHT92DS6dP4eDB/ajvOYDlC+dRNHRMLyzg0UcfRW1iAvsOHsIjX38A586cwq/9w9/EiWefQ7FURmX/tfCiBKXQQTRyENam4BGe/WPc/OUtmBNVKHkLlt/HRHlTdG4ZkNnuZ1QK2T5PiG5XpAXOf+NDl+10BpT5xgFcap4W4F5JK78kz8wuQgQX7bUhUkVFo1GFalOPLxYBHrb/ySKgdbObDgUwyHRAMAgUMKJcsID9iCVglU7AoQE/pRFURqZks6GglzD0KYscQ9MBxyOgcldSOBXiIyoafQ8U5I2C2C2PoqEkP4mqwDIs8CNLegVWwZARhaDiEQuf3kgNwFFkzJIYMUI9ELQ/g62tWwK+ZLKk0KSIUTzU8a/+xf+F3/ndf4zlKyv4zH2fwz//l/8rvvbVr+HIdddDS1ScOn0G1VoV111zCPff/wCO33wD5mZn8ZX778c777gT251tdNtDTB29Hds+qRwqUs9H2OxJYpDGMdK+g6DrwKqXoFZLL+kOKEEI03cwY4+gBxoqlSK2BjuYmKvI2osTpW7D7ftQQw1aXkHciRGqMcJBgmLRFpGq6mwJegnoOF2gxe6BChQTYU/M5xaEwfHybTD08UTTR2hQ7ApIOK7pDhEPHelQKTnrDV3p9HMI1rZhTFSgFjNHT0tNYasKfOJdLIonqZguZuMa0nBHUYiSztemcr6IkWFyO8YgvKGlH794vAJ/z1eAkYV9VNLmRCdHhYjw/5BtUo3w0Bf/FLd+7JfQPXsSOSTC7V69fAlHjx5FvljC+RdfQKfbxbvufCd8zcTn/8t/xnve+16YhRLWV5Zx/c23ISnXcOrh+3HrT92D7TATtf1xbkSPG3tnoWgqSkET0xMZ5TATDKLgUNaeZ3Bg8CvoRaHMEcBGxDw7yAu1A1huvQgztlFQy5l7YN+TNj+0EFbORqGWaSroqi00SP5ONP1T2hmngtzfcNahajpKZBXoNkwGXIUjd1IbqeqHDPyICF6U2ScTm5AyXFOPQEYQmcMjgY0E/Al1kE6MmiWaA8RN0GmSuIqiXsQwGsjvqMHgNyPUp2oCxGPy4qUu+l5PgmoWDLMxSxD7Ys4kVEtEYhrETklIu2hdhz9ScPLEGVkH2iM/9cRTOHbDURy94Xo889QJTE9NY3KyjgsXL+ODH/hpnH7+DE69+CImJyZw9PhhaJqBp594BvliFdU9+zDIVcQt0b+8AWthGkpud9TAC2fkI+wNETuuVNt6jYlCdh3rA0cCdK2sIa+qqC8y4YoxiPuwFFuOi/tIaicTIqfryvgjp+eQapnIE9v4HONwbYNOjNpkTVw5aeI1bU9LF4GJ42g0Qr/fg4Yczvkqhvr39zF1ffhr27BmJyURfUXH4zUu/pSaCctbMBanoO4mGAUjgSXKlwnRJlgsppjI8XwQBMrxU2aRzeuVIxxeQ+ME4cf5lBl/93gF3i4rwLxg6EglxipMgoyuC4hNL+Wh1covmci8/JCqWoJvfO5PcPfPfQynTzyNO2+7DZ//7H24/dbboBgG8rk8rly5gqX9+2BrGnxFxV9+9jO4/Y47UKjVsLG6goM33IJU03H+qe9izzvv+bF3Dwh2o0iSuTiVURyDVeQqw8wXgSBE1RBlOlIHKZNMMB39BcgY4FOXSUI8itGozWNt5RKUSEG5SnR6KsA/ihARwMf3p2ogCnxMCuiiGIeZvoH8f5KKvoITjUS8iNGWFs6GxkSFyoKJ4BjERllEfFShH7IjIHLBafDS3JyjhQi+BAo39LMuBOWidQtFq4hEpfFShIJBdgQBgyPBUhT1EqJhDBM5FKt5SYq6flsSJSYTbNcTmMg1yfQfdLEXJu3TpFW2Yom+AW2rY1/FufNX8ORjTwq74Ktf/hqOHLseN950FM8+8zymZ6dx4MA+nHruBWEBeCMfa9vrmJ6akE4CpaCffup55CqTqM/Pom9XRKtCrVD74GUCRC+/QAnO3O4gcTw5n8qrPBCSMMYhI0Sx7sMn1VJopYYcAwGdlmYip+XRC3qyrvy5aBVkvNPxO3BdF0lfQWk2tyv0lOklTJmTsJQ8HnzoGzAMQ4S0brzxFpxdG8Ap5BHqmcMSFRaj1Sa0aiHrdryBjVoJ3uVNmNP1lwSYpm12oFL0wxTTNjBTSJAzMi0MjrZ4TkV/g1RZgmbHXgxvYMXHLx2vwN/DFSBiP2TL0jCgTNdZfn6/mqHYjePCWyNoy4BGdTcixlkaUjhGVTBva7hy9gxmFvYgsPKwQhepYYLhNJfPY2NtRYRfFvbsxcXL51Esl1BvTKO5vAKjXIRjFlCldG6SYI0CeD/m9kHiuIh6Dsy5CTnGafUKrHyEvFbAICR9j7Nf4g4MFIyrugRUGgxgJTb6ayNUpopoTMxi5dIlTO6twKR+Qcxj47w6wxfwT6wEiBUGJdosA8TzmYqFRBKHVL6DgcsJfRTE+8HMAIapCi+llW8mrCOVMdkKMkQIBR/BJIPqeaZaRBi7CBJSKxWMJEHQdkWUeLp3z2eSSheAvQgqRBJ0OuwMUdRrqFQLkkQwael4TRSMkmgmUNc/BFUTOUwQuwhJImgQRLgef6aGgqqZovgYBxpCNxDU/+bGJmYXZnH27CXsWVzIEhbbxLA3gh5bWG+uYnK6jkq9huefO4X9SwexttWFx7FCpYHmSlP0IYgTea0tdXxEm21oU2zL515RrfO6u7EYwyhGmVeEZmIUOAJcpOpjWa9K5d0JWnBDR5IsglB5jEyUwl6EtJggTmLpLjnhCA2zDivK4Utf+SpWV69gz+Je/MLPfxx92nvXSzhxsYVuqZTtR5rCv7ABvZJ/XcfyimPlObu8DmN2QkYVPAezBQVOmIDDj5KWIlJizBV5XIZ0dTIprsx8apwgvNaVM/79eAX+Hq9AtNNFPBjBuBr4Xw7selUlRgnYuDeSaiylJz2TCTNrKVN3P2Y1FMYwkwTecIR0RJW/FGo+q5oDL4AehNAKeaSUnTUJXiNQLhWkOb86/HFnB1QC3O5ANXRobEtHCRZyK7Bz1BTgvJ0CSZkccM2qS1LAroIOIzP8SWwxaqovVlAuTGI4aiJRFJgU/qGO/0sId5oi8b18VLP9n7X8TdWGothiDW3mSFlkVUt3vgw9T68CqjQruiYyw6TTEWQnreMkQV5jyz+VcYGoHVIVkUJHIvRDpgkdD7NxhMmuhCQrzPc4qmBnIxE8QqJGGDkjOE0Pk4sNEVXieILwxiD0RBuC+8U5Nj0NeO4EfyGvyxD//GwmKKRqMnHI6UVxVKQIVEZfVBBF/CwGW1MC7IWzF7B1uYkbr78JU/vq2FnvYjBK0A11OIYJrUC1STpTuoi2OjD2TMkY6PVsaRCB13sy8qEWbRhT9SzRTVNMRy6uWaQ6ZoCqXZFOkBxz6sIPY+kccI3afku+SrQmUw2dsA3EKnrtvnRU6pNlGUH0BgMsFPfg/OmLIow1VZsBU+bKRBmFSg6+F+LitoMVXjdMeHjvNLvAyEVqGjCIf3md2ASRZmbHa2lG8BYM/GU9E8Lqh4pgExYLCmaL2ZiJANUsSU3GCcLruXDGrxmvwN+3FUjDCFGzIwFQX5jMLGzTFEoQQfM8pDkb8ZU1PPHc4wLEu+3jn5JqjRvR8Wl3AH+nK1iFqxvtdasVC/1BgEbVRtSooh+xlamgpqeIdRN6EqPiD7C6McKQlLFSDoppiP2tPOh/WILyg04QsRICmcj+JuUuE/7/623h5Q1o03WZ7drDAQ4ukvsuRy78/ppZk3l0ptMvgAEBBwrNMwBGXQ8Tc2XkC3UMnZYEb8EqUCGXy8waTuVMmCEyoyJS84Bhh0H23DOrkkwRY3Ds3ddh0HVhFTjDD5DPF9FvDzByHEwuTsBn6zxvCe2Oc3EmYqRg0tdAy6XwlMEuZ+Fq1yKTWOa3arotyR3xD5pmgtQHSYAE3xACkQp4KoyyClMxECSURCYw00NEsafdNaFoErsdPA9MSNipMFQVmmKj6xGnkEk8W1pBcBocRWRyx6RIklnhimX2aOjimUdPwTItrGx2cd2xOzG0LIAVv0TljAPLDk+w2RLjI+UqxfH1nnKeI1bda9vQK/RGyACFhWiI4wu0dVaw47QwW5iGE7oocfxCLEEwRM1qCPZk5Hti0V3MF9ENO5IgjSIXvX4XubgITVfQ2m5D9TXMzM9icqYmgFZ6PLCNJMqXqgF35GKt5eNymiUJYvrEq2zoIdxqC+jy1V4MP+ww476DqD2AyXtZJ9aC4lwpRjHXGJiwEkznNNQsDYaadZmY6I47CK/3whm/brwCfx9WIEkQtfqIOgPoE1UBcGVVFKCsbuCaxSLWLmxB0wN87ff/LT76la9BS1P8h3t+Fu/8H/8XVKamv79Kr9IxqOVMPPKnn8Y9v/hLeOxrX8E7brkVUWVCXBCHq5cwe/BarF2+hEKpCLNYFVpfPBxhp9nHoOMAORNGqQAlb4p+fRZ8dwMDv5WJCZH7HAEMR0i8rGWehAyuKVJNg14rQyVYjQ/c3YRDgnIQyWdJMvKjkhC66RGgyOBjGphye1hYVDP3QamSbQmExA9wLCCmg9TpZ+BUaLgUIAkVFBsmyqUptIfrdEKQylrMkpCNBBgkuYsJK9VdMyAGoiTQ8cyDJ3Hnvbfh9OPn4PSHOHTLQVx+YRmLhxaws7KTjXp0DetXNmAWdFRqVWwub6K91sHBmw8gHIWSQCwcnkdcc7J2v1g8s/WQWRMraQTbKIunAIGFHDmwQiYA0Y8iJO0UgZuiNGFDyScSBJ3QkS4GZ+vC2hDsBdvwJvoBExEeAccU1F3IkicmApqewEhzsnZuPMgkqhMaWxG3YGajmTSPjZUuTp56RqrzzVaIfe+9B6r9fY2D1PUQNHtQmQRN13cD4Zu4aXdxCXB9AaJyI7vhxrkU1XwV3aCDvF6QSlsErghI5eiFegxdD1/68lfFkvqWm24CTGB7aws3Hr0RlzcuY3pqCl//+sO4/Y5b4DVdscSe2jOBbzz0bcwtzsMuWNi/uIiHv/UIOp0ubjh+FHZxEm0KUMk1RlxChFEQo31+DebiNJSra/AahyrdES+AOT+5e42n8nmS2lKRkQZTuorFPDtgrjhcjhOEN3H9jN8yXoGfuBVgMO468Dd2YC1MCj3qpdZsFCPXbmO2HKK6UMSjDz2GU//sX+F3L17BpLj1AR1Fwb9a3IPC//zPceTOu37g8tRsA9/53B/j3l/6r/DNr3wZs40G8o06Tj3zDPKagvf+1PvwxMmTOH/6DG6/5TYsHTmMZ594EvPHbsSIFXkUS/sXnp+h0MNQZIUZEKUNT5oa97tWEsCkMCw4a5fqku7Au+9nwkDlOz8EwkiOVWQF/Ah+dwirUYEyWZHjlyQke4JmFDnHR+L60KdrMh6ZU3awOFMS8J2qkd1h7nYCGAGz5IBVpYxH0gCdy0NUJ4swckwQJtDzthCldGVMREFQ+i0iYMQciB4BrLR1CZoElzmjCCe//gKOvfsY1s5voLm+g/d+/C68+ORpHLr5GhG3mVmYRmWiihdPvIhRd4TFaxZgVUycffI8puamEEYh9h1bQnHCxsgfimW0dDlYwdIhMQqQNy0YyIJ2VpwrAo4cpn2EgxB6mBdhJL4lUmnRHCKiUmPEkZImVX/mLEHTIDczgVJIp6Ocs4ZR4Ap4MWfkZRae0+nwqGIYDERJkq1u6kfQ64G+B6evxBjlc3D7XbgXVlGanpbxlVarIN7pwm8PYNWKUBsVqNZrJHk/4ublNeJfWs+At5O1l+4B0/dxuDHCTL2eVfGpgl44FEntqtgm22LX9B//3f+HX/6vPwUvcdBZHqDXH+Dxxx/DvR/8EM6cPY3bb7sNKyvrOPHcs3jfve/GaDvA8pVl8YG4++73Clvizttux32f+QKuufZa3Hbrzbh0+TJOPHsS5XoDDz74MI7ceBOmZmcRVxcQt/tQZ+qvr7PGxKfZRTp0YSzNvGL0Yuxe5pTWZjfhaE3LTL3GIMWfuEf9+IDGK/CGViDuDBH3B1BsC3qjDIWk+KsaMv0hptQIi9MWSJN+6P4Hgd/5PfxquyuQt29xJg/gfTK1Bu4rlfHcb/0TvP/ej8EkYjpJBMwVBT7ydgGPfOMruPcTv4gv3PfHeP/dd+PBhx9GvVpGzrJx7XXX4bHHn8Tiwh6pxub2HcC3vvkwjr73p+FZuyj0XYDiSxJKUQSIYyA9l41XJAQ/cBFeBXDk/75csy4NQ0RDF+Afbkw0mFgkmbiTGsbAVAVaMQ/T93BkOoRpErRJUyADQZjAIiI/5nGzIyBWQhLkaVLk+SG8vo9gFGPx0H4EQR9+6spMGyqBY5lokDgssqNBZ0dhP2SiSxosDFoe3IGLqcVJuH1X1kqqcUmWNPmTRCmcwQixEkG3dei2isAJ5XxopgqnM4I1qSOGL0A7MhxcMi7Y6ld0UXW09Bz8YYLldgA1ibF/sQS37yAJE7imBU/VMVdkt8KHkwwkoXA8akHQMjoW2Wc11dEKdoT+yDEJOwrZ2tCyWt/9NzNzliQ2RTAHiuAUaP6kOGUMhgHWYgNJMbsGwovrUgkrBQsKM5S8Db2chyLI/zd06b/yxVGMcK0JtVb6K0JKqh/gSG6E4lQOed2ShIfHOPDZgbFE24Fr9x//8I/wC7/0MTCvWjm7iTRR8OzJE/jYxz6MCxcuytyfssZPPv0MPvUPfh7nT13C3r1LeO7kSZFg1nUdd7zjZqiqhaeefArrm1uixuiHPnRSTUdDHL3xNlzZ2oa5dB2GL1xG7uDCD2QQ/eDrP5XuYNIZQp/lmIz02Ve+smoCxyeo2OmPE4S/xuU0fut4Bd7eKxAniLba0oI35ib+CsWLB6dtt7FkRfBdH5PXl3D6ey/A/9Xfxic7XTl2JgZMEL4pIQb4Ts7G0//y9/CBj34QFJ/jw5N1JGeqrFw5H/+LL34VBw4dwN33vAfffugRscV98cWzOH7jDfj0n9wnD6z3v//9+Is//0vU6nVcc8fdGLLYJ5RA15FyhirjhR8QDURuOIURRVC7AyR5G4XQRUEBtqwiIvtVfPLd1++Wyd//THYMoliqLUkS+EfVkHJ04QfQ6mXsiUbYt6cgaoak0BP+Zesm3DCAATOL+TK32MU9qGzpqlkgdHyUctNQdFeCJPswrLa5iExGGPQNpgvMEvgpnPvvyvhSLIkzfaErUhBJhJMyeCMrWwIOSVUcBCMUzDxGCQGJiqgcyqiF66MzUMcoW2XRaKDrY8/vCwWTO042hOekeLGdYqiZMPpDHJm1EA0DlBsFrDsxjFyKhZItgb7pr0NTqnhxR8O1NQWJMkRBxJCIOQiRqDH6fk/AmhTnIXSSYxmCT4M4WxcC/Tha4f5tuhtQfR3nmnnEFBAiloAgSteHt7IBe2EmY8u8hVvSdxCPPBgzjUxJSs5d9gVKGGF6tIWJJRP1QlkUMWu5CqjF1Pe6yOk2cnoerW4f9/3R5zE7N4sjR46gmC/g4W9+Ez//sY/igQceQKGQF40H0ho/8rEPobnZFKoj9RDe8Y7bBQR67KbDeOiBb6PZ3MH1h4/g6e99D+VyCQvzi4L9OHjwWpzZaCKe2gN/+TVonD9kfVI3gEt9iMkatFrxJbEouecVYKmYomDE4wThLby+xh81XoG3zax4GR8AACAASURBVAqI2dDKJszJGlRyxH9AsCVQEd0+yiMXe/aUUZrRYak5/Pv/6X/Hf/fv/hPIyr6S2QphLzv0AP7pXe/CJ/7FP8PcgRkJYJzRiqAONAxD5yXQngDdWFEqtmAH2tsd1Os1FPIFCXAUzxG0u27LM5rBTEtV9DoutjdH6MGAr+lQDFbLBHYpMDUFpShCTU8wu6eM5nIfVk6HPU37YRU7az6W+zGinIXYzqhsZqeLaupANYC2ayIoloAfIXGbUq6346BW0nD8mqqAuSLFpaixBHUa8LBqlkpdgwgJMdRwVCDDGI4hEgX9toNqcRqJ4sicehQOxKuBp0FNaRucnRJjl72hpJRSDiVh4NCCgVWUFTMyWkYhVEhRdNHz+gKWpLshE4mrTpIM/EwoGIRtk6qLJtKUVbiKYdRHXrOlC3BuZwR9FGDDUxAUX6b6J3OOWIIl8RxLWowDSyV4/hBnntpAfrIGc6qMtq/iSCNGzHMYUyxKR6QEUnHTS6FslRAmpFIaAnDVVEPwDwRgssMQeimaawNsDlwMJ6ZfCl5MzMLlTZgUPeLc/Y0AVl/Hncn2u1GyAdtGMhxJwvwKkGMQ4KDWwdRCFeuDDZT0Iqbzc+hHPQFoNqzJzCdDzkwCPwnkdDNJtgnAjIZw3AGCboLGfB1e4CCn2bDNonQIejt9eMEI0/MTmRYBdORVC6pmyPhFOkUUNQpCPNd0sBWpQg8O11sw92Z21G9kE1wMNSB6DpR6GXq99AoQb4624+MRwxtZ0vFrxyvw9l+BqN1H3BkIj/8lqlQYQSOlcbqRFU6dPq6pWRi1B1IAl0o6JhaoBheh1Wzhj+78Gfwf/b6MGa5u/2epiL33/T/Yv+cAGhM1eeDzUUmQG2V4GEzpaEehGTrzUWiG4LzRwIOq2Dhz9iSO3XRUxuHcCVF0QyTtefE92CUxKHGKMFKQxAo6230UJ/IIwgCqoUglZ5kGtr0t1LUGVJ0gPwVulDENhq4jwdPdMdDfGmF6IY/ZfWXZnyQAOu4I7g6wlpSglF4mruMFsLod7JvMo7vVwdz+OoqNnAAMXTgwmOhwX0FZ3ERAdsSKCyeeFThn8DTsochRouHsM8u49qbrMHJ3YJfYXqcwEml/DKwxZWsQq4H8m3QjJOxkAULkcBHBUvhdpKTxLGQOjQwiXpIxHET2OInFYpnxxtQ0aLopIEFmFDklB02xMgZC6kmLvDNQcHp7iNAwJQn4UVvB8zBBrwYDaG4P4VTKmB20UJoqYNjpYmfYxqFr9sIqqjD0vOwzj48eDBxh0GwpVEOoV7s4qSFYhMsv9rFpE0eyCyZNU0QMZH4g1b0ASf8GtnBlC8ZCJn4lWd2rG1Rpisl+D/sP5uVapiZE2ayi7e5Ih6yWq6Hnd1AxaxktVYkkYeOopmxUxC+CBlRBPxJQY6NRy0ywCNxMOf6JJEmoMFibClpuO3tfkoiZ10sUWKQ4tTrASprdfcGldRgzE5na4hvd2HAj6NTxEO30oNiGyDtf3cYJwhtd0PHrxyvwNl4B6tIHG60M/Sx0J8jDodrfQqmRwI3zYtxSMixYdQ1Fk30CtoFDWLoqFTEfhl/5zGdxyz/5H3BtEMhnrCoKvvC//Q6O/9I9KI4qmCWbgS7CEs4SaSFT0Y+1LtvYrCavbmQhrqyuIFc10ShNSBVGNgJpXwwq7BywyiXmMApSqHqCXtuD6mc0uNpsWX7PzyQNL2/kZX9Jy+PMl7ryYgfsB/B7IRIPKNQKyNVUqLEhc/ogJQo9kyIumWU47QgjP0FCdoOpoWqryJctREGErUstMSBSNAVGUcPM0iSKNP+hCFDqkrYvXQIyEAjZ48OfY4SCWpJORhxEWD3bwv4jh5CoQ8R0URQKIJkP7B5QVIerEIm2ANUMBbQo8sqcQagSeGyTOAVN1onBg8ZLskZMChJaLNMRMxYToYgGPGmY0T7TBEWtjAiZNbEek5efoNsnoDBG06Awksw6EO70AMeVsY5GlUEKHpUL2cz7B7htgpgQJkb9Fo5N2Nhur+PQtfuybkISwo08STK5xnSV5P4FoS+KhMQsbF92sBMX4VXKL12baX8oqZE+VYXyGknLG741mUiFkQD2wiubMA5SkOlHbEGIw4UQpWqKrt8DKZxUFOXmhhw1qZiyZwRgKU6ZiHHy5AtYWljC9HQDD37jW7j+yGG4bQ/FmTzyOVpb5+C6gdhNFws5DJw+CiVbznkQhSKMxdFV1ifKtnbLwdO9GLFpIO4OZfRC2uPr3aiNwISAwF9uSt4WDBIBn9C1LEkYSy2/3uUcv268Aj8BK5Cm8F5chkUPAbZo+WDc2EGxqKHR8BHlXRH3YUu6Qsti9t0JkpPgkwgQi0h8Ctn0+j3854//A/zeiZNSaP2jgwfwu1/+HALLg6GY8NZCVGbKsPOcxacvIflZnRH9zwqKgY3zeKLZ6SgoSUScgGZ3fIf49yCQEYXvBiJZSy5/oZxDt9tHaTYv300Z437HhWqmKBXKePjBb+Pg/gNi6jMxUUXCtriWYGejJ3LAdBZcba3hxpuvFxljVtoj3xEt/xeeP4cTTz2H+YV5fOCD75OqjtWiUPWaVEm0GKnFOplz5F7TwXZrG9ccOYB8Ic/eQaYMSLn/0IOl0wKY3gtMZUiDzASL+is+5vcvEeMv7Wl2HFjhy5xdRJFi+ZvYAc6l2RkRTQQK2ZAXj0gSL3ZjyJ6gjoKQOUWiGfCYLKRCoMQg6UuCkNkNK3BjV7oPFCui78LGJrCFIpLdQMcrnQHEu7IlaH5hbNCbgclSEKKhxkjLFTgA6jkdw1CBs5sYXL1L0iSGsbEGYvvLOR21+QKqpTJBJBiFQ+TsgowZ3LiPKI7F1yCHPLRYx8WmDqdQknGGf3kTxlwjA9O9xVsycBBstuVciU2zpsB8rQQBwD49hJVvicw1kzp2qJiQcpxGcajp3IxIX5PWSmDhF//sSxLc333Xu/D7v/8H+I3f+G/x7e8StRPj9ttvx3e/8yiOXH8ElWIZjzz6XQydET74oZ/G5sY2Tp9+ET99zz3YMz8j18FVVg0TyBOX+2iaFmjOFK4StDjzkoLpj1oqgj+986uwxKfBlkSPFEjB1xB7o6qwSe/kvToeMbzFV93448Yr8Hd0BVhpEJGvTlRkD/WtHRzeryHWIjjpQABktAUmWIwJAh9GrIL4H4M3Az+rv6uV+kPfehi5X/ltmNSg/9JncfjoYfEesI08Qj/EYH0E3VRRXihK9ctRAatjVtN82AVp5iY3ioeCbeC/QSUHP5P5ZSCjd0Dsx3C6HpRSApPtdk+DWkpE2pcWx5P2FAIvwcMPfUs0FDjLJ5f/S1/9Cj71qU/i4vmLWF69gk9+4heENcHjKZXKuPHG4/jyl7+Md951B44cO4RwlOCzn/0CfuM3fg1hGKHb7eILf/pFXHPNNfBcF5sbW3jPXXfhT+67D5/8xY/j6w88hInqBBaWZpEvFPHYY49h6cAS3vP+W2WWzhk05/5cN0O34KbtrO3fYedGx/ziHoy8liRdbPtnfgWa+FvQiOmqdwNHMQyiHLhw/WzNzsSEKMtMxoOmSoAlWFBLLSRaAtcfZdiElCBGLxO+oQW0YomWATsnumFi/coQq0pFqsarGxkC3pV12HvnoL5KF6JoaLj03W9gplFHbXIRX/nLz+GTn/plJKaBkMI6dhFF2g9HPgI/AO2KaCSl9rtoFHJ44YVn0dxpYu++JZi2iaX9c1BCDSsrPbT8BAHn/7YtYwRWxVF3AJOgwbcYbxDv9BD1HZhL01lXgvoWdOgkZfA1xJXm4KJQasv4i+6dw3AgSTRdLTtuB3nLRtWqoWyURTzsGw99F5evrKBWrQi48dY778aZUyfx7FNP4iMfuRe2ZcOyLew0Wzj1/PP4hU/+Ah5/6gkEIx/vvefd+Nx9X8Sv/eqn5P7gOec1wutoY3uI54IsqYzXd6DQvfF1jF/IYqBzJcW+XmsbJwivtULj349X4CdkBaL1Heh8ALLtPhih4m5h+pCNqlkTD4G6VRdAVRwzQKlwkhG0lHP9vHQBKAXLACWodNbDqYLf/+//qdCwfv1f/55UsyK4w7axGyIeprCqJoboSUuZFD4vDNHb7iJPG1pS8RyqABowKxrSSEXQC6BVNaiuCm8QQM+r0rJnMjBUBrBVC2E7QZpLoJoa3K4rnz01MYX7PvcFDPp9fOwjH8Xzz5/C+voGPv7zH8WnP/MZ/MPf/DV886HH4LhDvO+n343PfvovsG//Xriug/XVTVxz3UHUKjV878QJ/NzP3SuJwc033Yhuv4cL5y/ilptuxqUrl/GhD30QTz7zFDY3NgShfuniFSwsLEjb+LEnH8P7PngXYMUwNE1a/KzmKQbEAKKqKYauh+Gmj4V9k5iq7kXX2ZCqjevJNjtfF8epaAcoiQJFV4Rl0KcZkMr5QKaSn1BZcZcRQSYCgxUdFzkmoRo1OwZJEsDxXcF5sPvDDgmThYCdIxTRc02sdkMErEKDEP6lTRmbMMgwidR+AAWuaGpYffwRNLfXcOs734MH/uIL+NVf/2+w1WzixVPP4tjR4zh57gwOzi9gfXsH1x4+jGeeehLlWh2VfBFnTjyNYq2MpX37kTNNJLqF82fP4Nrb3o1Wz4daL2fJQBTDu7IpAVv9EaDRN3VrJknmT7A48wrmDlvuBJlKuz0Mke7SKl/9HQvKCJP17B5gQkANDCbOV0c6eSMnuggT+QkZH3z320/gmsPX4P6vPoA9MwuYmJ/BA/ffLwn4Bz7wAeRz2QhpZ6eFs+fP4pd/6VN49PHH0Wm2MXCG2LO0ICZnTBAy0axsc0YBHt32EOmGdABUXYdKYbPX2CiExtGbSvbCD9nYbZrPjzsIr7WW49+PV+AnZgWStR2o85nBkOF5mM/voFCxMJebz5T+OP1PUmx4a6haddiaJTNj9qY5B2W1L3x7trl3gVzLV1YQIkR9piqz9opZkYq5s9lDEqbIT5roJh2UaN6T6BhsOSKwQ7GdUqUsCUCv1QdyCRRfFyZDr9UFMX9pLpb5btYcp5xtRPNcCaRxh4jFFMip0KhypKk4e/Yi/DDE4oGDOPfCWQw6Lbzjztvw7W9/Sx6yU5MzaG43cfyWo/jaV74B1xlhdmEGq2tr+Pgvflj0Cz73mT/DgQMHcPr0aczOzsCybaytrOGWW27GxcsXcec73omvP/R1LC3uwfrGOhbm5zEcjuD7ATbW1nHHO++AXVCQqglGgY9qLQ/dJOdfkzHNaDOQEUm+ZKFSnMZm94IEbs6aRaY3oroe/58OCrRmzjo3pqbDInCQY6LYlTEPIQDEIDBhoNcFbZ7pFUBgIimEYeQhZgdBgJ7iDiDt8JgJRBSit6VjWS0h5fx9owWtYEMpZWObH1axM0FonngKzdY2fM/H9PQ0brrhBjz8jYdx5dIlfPQjHxMuf6Fax3cefAD1WgOPPv4dzC3tw7FjR/Hkd76N6cV57F3aj8D3cfHcJaxtruDeD38CHSUHtU6fgxQBk1maCzFheIs38Vxo92FM12S2UB60MLJLCLwYkePCLOVl3JAU8n/lm0l9vVYLMD2Zw7q3gmqukmEPVEOwItnPmtw77OgQDVq2qoKNYXIXeQmMvCpsDt5PpmFj4PfkvdJhYzJJw6wR2S2ZNwL1Kdg5o802t6tmXkEQ49HlAVzbBrxARJCMhasqiT980Yg5irdamUrky6THM6PnLAHVlBQT9tjN8S2+9MYfN16Bv7srEK81oVFmlQ+ZTg+5fhtHrp1FsVaQeMA29ShypGUqYwaLyGvOPTM/A7IIKKPLBxhn3gKjSwJ0gx7cKBOMqRo0KPIFpMUxQefyAEY5M2Ii4I5JSG2uJLiDklbZfSRBrHv5ecQs8CHLjgGxEJzpitivZmAYUrwowmSuIfN/ouFHsSedi9CLAE9HZbKMrtPN8ApxhNpiRcSGSDNL0gBD30Wn1YUFG7mcJdW7UkjgBiMU1RISzYapZ66FfhAgGgCKnSDPWTxn9v5QWsLyIJcRTCQdAkm6KAgVxrh47rLYOSsjYOJgFfkJSuQasiY0N8pP0+XPx1RpH0ajLZlVE5PByp7JFzsz/Mgg8nf9DICiSQok8QiQJIBjmpxmwdTp5pgpIYrnAQURFdoQWzKP7nt9OX9MUIhzICqBkYodho0rKnYKmQpfcHEN5qsCxg+6kguGhnD9IvYdPIQnv/UdzCwuYGGqga8/8AA0w8Kd73wXEo0CSDGe+sY3MDU3iyj0pH1+57vuwveefgLV+iTm52YFlPfsiZMwTBM3vPtutEmH4GS+2UPsujAIpH2LRwtierTeEpElnYqZYYQDZgsbAwMDtQB/eQu5Qwuv0AV4xToQA7O5jbBSRk5zcWxvAwFccfKkc2PHa2MiP4U8R2ZI0fbbkswxcSaDJnJS+IUh3GiIqtWQ7l3Hb0uyUDBLkgAySV9b2YSix9AqCowc21AGckpB7p+CqE5mwlinz7awTmwH799zK7AOzAuQ9EduxBxQUTGKobOTt6vz8fL3ZFZNGGMQ/u4+zsd7Nl6Bt3YFaGers61omQJsIgjsUDDC3usmseVsSYVKeVWDEj2KATceSTXKIJ3X8jI+YBXDmTmTASdy4JNeSEVjhTK9KWwjm8lWjRqGAwetnQ7mF2eFKkkUOy2I+XlEZZf1mnzPkM6CnLATEEi0fcLEIJZZK6V2MyMIyvQ6Erjr+QqShBUzg2O4W60Z2L7SEt3+3FQOYdvHsOeivC8P0zCkO0BlQ9Ihdy4NxAinPFWQEQjBZl7XQ6M4j42NVRw9cp2IIu10m2i2d6DXgKJty/Hn1ByKekVGAJQN9kNPkOtkFQg2I6HJkoa4l6JRqmP59Aqq82XkaznEnoq0m2Bqfx2xEqNSmsZoRIqciSjx0fH7koQlSoKd8wOMWh5Kk3lgkjgDBUUzS+QoxMTX6YYBGxa8hAoUZC9E4v9AHQahPvK8MBhQL0Gck1QZc3CdncjG+sUYTi2r0N1zK8gdWnzNWT8/xZYA9H1JSunvEExJduAuNZDdEroUEDkhyZPvw1ndEW8HpVGGSsEqsmKkA8JrI0HAMcfqtsztKdwlB/kWbQSGku9PkyNr70xGoRQGR4TDlT42uxqaakkSBDFpolPn1Y34D5nbxDA6fUQTVZF5VoIA+4tt2GSy5KexM2pJF6hhN6SLwE7P2nBVqIp1s4Fuqy/jo9ykjqa7KeZUM7kZGU8Q48O1YKLoxSO4ro8kSAXLw+RcqRD+GmLSnkZRK2HU9YVRw2T9mUBHwg7VelNGDK9rJCPGYRGSkScUUp16KEU7k1++mmCMzZreoqtv/DHjFXgbrAAfBsHKNuxrdgNBksI6dwXlSRtx4GLucAle4oonPGeorN7IVWcngE51QliUOaiyW60qcBNW8JmhEKtfVvu9kDJGBno7Q+SKNvJFigiRascOxVBar0RhGyKMY8pDNWtsKhjFI2kxj2JXqIllvYycUch0ABICF0fCtGA7lvNits/ZWu96AfKJia3VpgSafNFCrKYoNEyZdTuxh1HooKgXxGhn4/IOzJyB6mQFw9EQfj9Ah8qLaoDZ/VMCBOx3hggMD6qpSIJRpPywYqFklUS3gDQ9dgL6fl8qZjIxGB9psRzsxJicryONFOyc68hastovlPIYtEZozFUxd3APhqMdkJEZKwFSNXPyI1Pj3HdXMbG3Bgt5DNsjeJGLfMVCbjETzcnreRGTytY9E2hKKE0MTUR2+DMTMXYSqJrIng/XX0mZNQB6XMX5iwO0OGcPI7jL28ix+vzrSBW/xj0gXhZko7i+sCQEo8HALWZgiohevTTmeAtcN7k7DIK05xbKq2VAq5QkQb7amNCiCDc0PKy3EmxpJamqqStgHlyU4Ev5yrm4A7/rIHYihGRvNDI6YToYYbEwwkRVx2S1ykFPZgPNNRYjjhT9sI9RMIK/miAoZp4Uc9Mz2PY25JzUrQnB1Wz5WwJq5L23E2xLwkmwrZVa6K32EJOCrIyQ7AC1fA0T5QkUSjm5r751sQ/PtrJgv9ODubir5fA6n0k8ZgKYSYEmw0EyftJY3bHU8utcwvHLxivwE7ACadaGNITetCuqEsewWi0szsfQDQWjZISiXZQATL0CBqCrXHuLaHy20Xerez9KRL0ws2tKpXpni5uBuHtlCK2soVizBcTIFjuDPANdkAZSifP1bL/SpIhocHYk6FcwiIaSmPApzrZtw57AIOijYU9iGPblvZZuw089lHIlSUocny6AasZyELXlFJ2oJdgHPuip4sjXkVrH76RccRxQSlmFpmkyFzYsE2urm0A9FJBm1ElhTdGGWEfVqsp69IMhimZR1oHJEvdBS4kvCOEGPvrOAH4vRr5iwsxR4CgV/Abph9z/UeIgdYCLzy/jhnfejHPPnc5klysFjPouKlNFeIGH1noHs8enUClXREwnimJceuEywiGrRhXTB6Zg1hhiEngM/PxvV9VZidVs9KJmLpHS3ZHfM0mxRKkxhwJOXuphy8wBQQB3tZklCH+bG903d9UBJaBKXH3rMhQGvvDyJvTJKhTahl9NOmglvbmGkqGir+Zw/T4DF7dT9O0sQYjYRdg3+5LFudVsSbWeWAYMJhCz3xcSYtfMDHwcn9RRr+ZER4P3C8dJ0vbnqCr2MVr3kavZGPVGmJ6bhBuO4KSOnDcmAkyM2YHi/1OSmsBHTTVhxTk0l1uIrECAwrwWiPfhPSHdlzTF6ZUOlgW0k8K/uA5jduJ120D/ldNNme+RJ9oXqBTHI4a/zfth/F3jFfhxrwDV6OJWPxNV2X0Y74kHMM0RVk72YBcj1I8UUNJLyJt5UT4UnneSqd9RD1DGAcLVTzLwXRpjFI3kdeTeMwlYvrSFxl6+ngHWlgCaF5DVrgaCBCxVjJzIbqCITyYbTM5/Xqpxft4g6gtVj230sllBJ6C6XFkGpLrOahoo2WUkcYSIGgrQ5PuZkPikSdJ4StrvCQqWCVXNMBUslFpbfTAPcfsBIhoMEUToucjldeihBTWnoDpXQDlXzESPGHB3sRfkvTv+CLrB4zMEHLmx3Mo6DNM5oTlGaiQ4CKZPnEWXzKJ8N0c58UjBdGUP2u0tJLkQTsuFbVtQQ126OEZkwqgYYtfMyp9qlMKEgIq+N0TzubZITBt5HbW5MqyGAUMnVkOXJEb0HRIFmkaKamYeRT8EriF7NXqs4tkrLtp0yUwSCSzUx4DxGvPrH/cF/Aa+P+C4opCDRmS/AGlSKL0B8kmIxTkPlXIV0SiCkTPwwpaGPnEb7FKdX4W9b146GiKQ8HLfD2afr05iUqDoDXHtlArDVoV2mlMzzAo3L/SweX4H9kJNBL4qBASnMQp1G445QMOawCh20HSbkphTTEuPbAyHDlRXR25ahxqp6PaG2DO/gKKRKXxexWcM+h6e2vHhm6QAhwhXtzJNBApb/TW3Mc3xr7mA47ePV+BttQKsMugjzzksHyA0oeltoNWj1wGw50gOdlGXCr5iVKFpuuAPmBQwPBENzxa2H4WickgteXYQGMQ5FmDCQPfi9dEqqsWaVNo51c4CduJl1RRR2ZohYwq2yvmgY6uUeAeiv2WOLayKTGqZdD8mKFelZvkdmcybIp2DopWBHuPUF6+BJKY0swqfO8KOKRMRVlsqqYHU/udrNOysDqFTBljVsb3Rhl02UKoV4HUCuEMPE/srsM0c1Hi3jS8CSZmvAgF/g2BI2QaxLHY7AYbeCFExRsnMo2KUEFDMKOH8XxVNh7bfgm3YIrvMY5up7kNnsCm4ChnPKJpUk/QvKGoVbK/toD5byQSlEMt4hcfCef8TDz4r7IidnR0c3ncY+YKNpSML8FMHTjRCqpAVkQEj/Sjr7HDtK1YVOTMn33fliotVlfr7CuL+SPwHWH3+TY4Z/rbuFaojBustEQPi8anbbdTSAIeua4B6UMO4Dcu0KXiJJAScnomznolE0+CeX4M92xDp4mSrBaVe+eHyzsQmcFavKijvbOGGa2ah25kHCa/XrZWmYGem56ZxzskMx45VNbjxEN52DGWCglu2YHv8yMcwHGLYc6CnBqxiJnTVXutJohvnIxTqOWEdEeMggMZdRejzGw4uxJkWeeK4iNaa0GcnoZZyb2rJ+dnBlc1xB+FNrd74TeMVeBuvQNofiWudaCLw4baxA1XXUAk8HDpeQ4Awk+M1ipnQj8pKPateSWVkF4CMBAZ5/huD1jAYCr2N2AOqHrb67YzHT3BdnQh8ivRoaHrbEgiJQ2ACwgSCmzAV1EyeVrwGWLkhzdTpdt0OqfznxCPh9F8VXGI0Y1JBXjfVBZnAiI8DHQ+ly0HsQ6Y6SP0GKhKSMkhDoG5ziMZcWb6x5bXQ2xoIAExoh4GL8kwO+XweRkr9AEo87wpHU+QpjgV0GccB1EiH20lQbjC4R9KNyOx/ITRRYXWoFnKGnbWco91ZdG0/1jsXxfExGwPw6InNyMl3NrfaqM2WJEHjMXWjdqaymCR46M+/Le+bm1+EPtJQa1RQmDXh9F2UFwsyNuEsnPtgqrYEqUHoiABW7EZCzQxGKbYcG9HExPdn74cW3no547/le4WAxHBtG3q1DJUS2GGEPVEHS/tqcp0Q28LuEl0LddWWc6RFNk7uGOJBQU8GtVSQzgMD5etmUsQJjtIFsRgKFZf0xH5zhKmpCUn8ooTXQ4ySpUmXqL3ek3uhUMsj0gKkAeScl8p5DK0+CkYelpeHTjyAkYrPA5NFJtXE0bBDIYkIR3G+j+fXHewIe0UFzdiC9SaMehlqmR2UN3ASWESsNqHlrXGC8AaWbfzS8Qr8ZKxAksK/sAbrIEFpCpIghOm42KP6MGoKjFhHZbq4KyOrSvVOlLXU9Lvzff4b2/lMHNhl4MZhAR94rJYH0QAVvYLmcgeFebrZWQJQJM+/aFQELHjV7dGJHRS1ojy8GWApxcwHIaukqxurKyYVJzpxKAAAIABJREFUTuhkVfhuhXb1AS4+A2yd77Z1Rf9x1/uBpjlst7NqZrJh67YkOK3lDib21OUYNr0NAZPRl6Cea0ChfHDPky5EvVpDrmjCMLLqnR4GfOByTEGDJGc7EBvfzdVt6HkNSS2UilCwFlpB9iPzo9CEscF94LEv1g9hu7csYjqCj6DCITQEcSCjHbfvodaoSRImRlPREMOgh5xRxPLpdZx45lkUy3m8673vhJkaaC13Ebge6gcrcJtRNk4pqrAbJgLFx6AzQm/NkfNbKBQQDH24gYpWkskY0/ZbzVuw5if+RqSN/7ZuHto2k6WjNSjtnCJttnHTfh1mkeMgE0qqI0l9OEKbBQY+sS8WLu2U4Zk24s02Ek2FMVl9fbssNNcUuLSGPUsN5IsuCrkcvKYvSVp1tgTLtKTjZipkTwCDYCC/c/oj+N0QmIjQ2xjCrlnYP7MPy4PLWdesY2Lv/CJChYBUenFk6phhGqIX9ETWmRcHb5XQS/DclT7ali1yyYJJOL8GQ87nq2zOX3ZkTKjSroN06FBvGkq1iHizBWP//DhBeH1XwPhV4xX4yVqBcGUbeqUAhVbP3LbbQm+aiIeYnLPRqJOKF4mlLcGDDKgZlz4UZT+2T9maJwc/00CwxbeBgDwKApPixSpn2HQkyKblSBgJfI5SdphVcMdvSQehoJfkwZ0Jy5DO6Mro4mrlJnU1g/3ug5EPPgrTSFdjV1nuqhXuVXloQfZLYM2koikvPPRccXkk2JD9kP4VF+UlW9rubN/zmAgea+RnUDUymlsS0Yq6K5oIhSkLpXwBikaDG4Z8YiYAZ91HabKEJE5F2ImjBAZ0dmA4dpHkIKXlMZ0LmWix3e9htrYXncEW3EhByaDIkbsbQJiFJRhshdLFiARPkBlRUc2SwYF00jAg8yHNKJyKCccZ4vST52TkMnvdBDRbQ399iNZmC3E+QdAOMHvDJOyCjYncNGjxdO7MMpadTJBIMU3EpNXtdGHsmX7bXvDxRgtKpQCViogDB41BC0vHqoLRsFV2V1SMooF4YARRjJ47RFEp4XynhMCyEa82yWuFVn0Z1ZGmRvSbID3zZRsxPSn1RfbNQev2hdETlIsCZpxXI+ydLUE36Tki/o/SdUtiYMPbEIfGklZGOApFm0OtA046RF7PNBQ4ytN9A2aUR75GZ1T6oTDQZ7ok7aAln0HmA+8F/oK26OeutHEh0qHlbaSuD39lG5qhia7EyyW1SduMhiPRRDAqJai1khhXEcOgGgYMjiHHXgxv2/tgvOPjFXjTKyCUqGY3AzNxo2jKuYuoTOqIvRjzR6oo22WpyAmccqJBJqMcZ/rz1EFgi1seS4oKP/EFiS3obaQYhSOxudUiHU7HQa5hCoqcnQhGz67fFeAi0diZRDNHDBm2IOtO0L1RlxavbC9rkVKkiA9EsZLe7RjwJZIU7CYM2Xw2008gIIx0RC/yRLKYyQSDKrUKwgIFmmI0rElJftiKn7CnXqJzCtWSgk5Jik67j8pETjwMOM6gDTMFHtyOh0KVCoTsUiTYdNel2mNyxXXK5KldQaHzwU5JZA06SsUJdHpbcnBcXyYurDKp/UD65+PfPYHb7rgJoeKKLkMQunI+uN5PfPcEbrrtBpgWJZwVSeCEKUK0PYESBsGJBIyOZL8F6Bn7yFUtEdqZsCelCzN0+lhf2cFFx4YyXRf6YbzZgb709k0QkmYHKOQkQSArQWt1cd2Sjlo1L66dTEaJ+yDDg6Mxxv6CUcD5VQVdqyAgXnZTDI7gdjd+DtUKleKrZvqiXOUDVDOMIyJnX3oPO2HlOMT1dQNWQZMOFq9pJoKBEqKkFEXzgoM5MdtKI2yO1uUeEqCjlhNxpN7WEJUpinhFCGnLrfK1ZDwkyCsUAss6TFkiHSH2gdNrDratXSVIUkmHLoKtNszZhlwj9GOgpLbG4zEMqIXvdxj4e5q62dcsjBOEN/2EHb9xvAJv5xWIEwTLm7sOcKpUjanjYkqPsXBtCUOlL+1zysRW9KpU1hTrYaUqKn1IM2XBmG3arLWfcfIj6RgQmBc6AZKRhiKDqk5GQiaIxAcf1eNY4VesmqwimQzsJjAdYOJwFYTFzxRg3q4L4tUl58M2e+DyU0gzJM4gwyzwb7IMKKTEn/k7/smAgjsSsFnRKyMNUTEQ572XqIA03THLUvFdpW/mNVZ0jA8+Blsj5Es5ae0TX+H2PJiWASvHWTDBixF2/KasBwM+2SAM4ByBBCkNlPSsE5IEqJXm0Oqty+94jOzCEKjJY6Ls73/4g/8Xn/jkJ2QtaHCkGSr27tuDF54/g/+fvTd9luu8zwOfs3af3rtv333BvpEECJLgKlGiRMlWLMuxE0dxnLEr47IncT7Ol/k8f8N8mJpMlSvJ1MSe8TiJLWvfRYoUCS4gQBDEdgHcfet9OafPOvX83r4gCFkSKAEUSPdBoXABdPc5/Z7l/b3P71le/NFL+OM//kNcX14WAtv8/ByuXr2CI4ePYvHaVUxPTWN7Zwe9fgf7H9qDiA1uKZYScfXLmwUxU3rtyjYaDQ/JZEW4B1HXFcKiPXPn0cH3220Q0yUwkxIFg9btYypsYWZfFpHuS3tJODWJQmIoKWQkczldxoXlCC0rKzK/YIUkv4pCIX6RMyEHgCTbehvGbpbEzcoiwUQS4uRcTngHNAqjxwGVNyk4cr55btjiIDogUmEtESIvi9WiXgblxSvrq6gwVdOKJQRsN2LajBm/bgvp0YAtDqi87l0vwMXNHniXBWwBsqAeBAjWd4ScbI2VoKXUv9/cdhUbjJm+tg76VowQhPvt6h4dz2gEPqQRCDdqMKplaKYuMb75ZgN7D5tiY8xeP1edWSOHzcWaGK9OHKqKBJFkQW5c5XJVzgmXkyH/5OqcpDwzSomuv1ItiHGSkL1lylWkL07IWZ0rOl8+g/9OCR7JfV7sSauC/8cHOidepeOHPLTkeSxSS/5MMqMhqY5SLAwLCr5mt+3gxn244UAMadpBE02/Kd4FZs9BdoztjkTkie2wJSv4rJaDW/NFwcAQKf4b/Q4YwhM3dPgdH8XpMvLZtNjdMpOABki7+5RIZioVJJFSQz6lXAxpHc2JhN+dhjSZQgWt7rYQFyWEKg5E6cEi7PSPz6C+XUO338fe/ftw7NhRnDnzFmamp7HnwBz+7//4l3joweOY3z+LxSvXpL3R7rbx21/6J/jWN76LL/yTz+Enr5zG177yTfzP/8u/h6v1BElhsBORDhYjKS2N01fb6DjOzYmCkyv77+Y9yED4kC5rxK2uID50Q0zaPcz4dUweygvET9SA1Z5jkjiroz3oSIGVTWVw/nqEtp1VKoBGVxVUXQ+6Y8GkwdKud4goU4bXIjMu0vbPLSLMMMSpvAaTbohJqIK3Epp/FTGVUUWbEHfpwJmE6IY9eFEPbi+A0bNkX7zMxybLkk/i+lQLKXXQzmAH+VRWriFDs8WxcVftQxStttXCmZ6G0Lb/4eEnAuIOgMwtcdok9q5sI+x7owLhw7poR/sZjcD9NgJxvQONPuzZNKxuF9PFHWRzaQRNoL3WkVVOt91DcTyH5kYbEwsTmNxL2JVhLmplL7C8hAeZApMSHiWUvXRpDXsPzcE0dey4NYG1xdnP5CqZZjJsHxDcV9yCbtRBya4omD1RBEgWIJSokS/AVRw7/lFAMqLadrkJ9Ezgw5wrMCV3V4RApYZQvfuW3xDoXtoNNGuKXbjdAYxuGpmJFIKtGGE2kCyIQTfAxPg4Bn0fvhdKQZQdT2HQjJBnJoNJrwJaPLOdomFlaR0T02NIMZ1QsisUN4IP6CBOYBokXaoihzHU3HhMudwYWp0tKajYrhHjpXiArFHCf/g//gJ/8Af/AmfePAvDMvHoyYfx+ptvYn52Dj23j29/8zt4/vnPouv1sLWxhbmFObheH08+dQoXzl2QgqzdauH06dfxR//Tv5QCgeNRSBWFG8EihUXY5voOLnQMxDnVb6fVsD1ehMYkx4/oJryA7Zbkjkibqe9hKupjZo+BAWi8xfAkTdoMJPqxj68NbJxrWPANEyQ5crVtVksqgpxtG7oMeizwIOmimmkNcxNiRI2O5DoYLBIZm327T0KcwFnfwsPHighTdBtlmy0Nz7dQzUjpe5NDQGRpw1tDQAOzroP8WFbQBTp7kjvBe0fZY6ndEIFoxXXJgmBRRD7PboHA00dOwjvXGlgzU0huaX+8dxMl0KIYyS1x3+rmSqSIHSEIH9GbYHTYoxH4VUeAUKrGImFuHKbr4fBEG+72AFFTx8R8RSKZ+TCkPfvSO5swLR2Th+ngRgRBTXrsqfMhxYmXU5/figU5IFqQKaXh93ykiyrONjFj8eLnRE4YlcUFJ1NO4pzQuYomCsHVETMF5AlIJ0AWB4RIadVL2JMuh2GC1nYb5cmC8AG47T4YDcsSmaNPEl/IWNw+9HyArt9Bls6KALbdLXlP4AdI+opNwV4wJ5TyWAGlDK1zNfS8Prp1F+NTZYmf7vV6KBWLYq5D/gEf1s2dBkqVPEyLXI2uoC8sDsaccUFhhEAmdsLK4VEpLCiHq6DXa6hJjK3s2JPWBmWWG9drqM4XEfqR+Pdncw7cngstlcLS9SVkHBtzM9NYWlmVwqRSqSAMAjjZNJKBJgTTLSY0pnTYJR29oCPnKp9SJlPc4VR2Bv7Ax2trLvp0VOT5W1yFtXdG2Qx/RDfxQLi2jhRDl3hddHrYkwkwNU1XT8pmPUnbRMJMhB1MpKdxZTPGDjklLJKurcOeqQoycOu2mz5x+8hwf+Ij4XnQo0Sso81CFjqDkHbHMQiR9geYcHTMT6RgmCpQi7bg594+h6nJKczMTMvumkFD+DzSAhsEkvToFDPIUL2TYuQ3DZws8SqhsoXXP9sMNq3LdQaDMRVS3Y9MVKV6JbYtNPohrvcjxLeiBb/gHI8KhI/oTTA67NEI/KojkHg+omvrMA/PQ+v0cTDfg7sR4MDxeVhpJVlkf7zb6mNjcQezx8cR9zV0a31kxzLQGc6UoYWtBl8PhGm/cpakO10mcq5eWAjQ3S+MIpEAOgdMYeLn7aK4JPJByH59zswL7Mt9KiRAPYZ1w1QWuezxsr2QxCCIcOaHZzF3aAZjU1UM3AHstC1/ZvM5XH/3BvYc2YNeuwuv72Lp4jIOP35IChlCtH7cF84DWxhEFki+JPJBfTlX1vyTKzZViPjo1QfodfqwUpZEVYdeiMALkK/mgEjVMZmCI5M+1RBrvVX5+UDx0E1fB3lo37QVVi546WwR/W5TiiKiL4rPkaCz2RXyZM5Rq3pyGCR7QjNQd0OkLE9IjtwxjaTEIdBgIWeIbwVXfuQp5ikzHWwI/4IeEBk9IwqHRr+BltfEZH4alLi9sxjAL1dljEO6D85N3Ln2/1e9CO/F+6MI/csryBxZkLHIri1j4VBBoPjEJh8lkAJKJLmhCzvI4p1WFpFpImq2wfvCnHzPafSOD5HFH38PfMRbrSHGBRjTY0IIlC1JUGo0ceLgGNKOLahQv+eiXq/h2WefQaVcFhfRLW9D7iuiV91OH14zwMRMFalUCrmUAzNR7b1atCV8HxaRDOEqG+NSMBJ9o+FWe9NFZbIIgwhBkmB1vYEbno7YNBFIkBcL4wSWoFeaLAbS5O94HXhWdoQg3PHJH71wNAIfsxEggkCdNFe+XJ3vGXNw7MSs/H2XJMjJi2FBK5fXMbl3HCuX1yRauTRRFEShvtkSRz8n7yAJE1kZ7Ts2D528BiEcRjLBDfwBLrx2CXMPT8GxM9Ju4GqbE6OSbmlSINAUiIFFKsBJeSwIekCzJOq1kwTnX7mM/Q/uQ5IJcP47l1GdrcqqmO2Qk58+iXdPX1CBUtm0eOjTFZEFi9v3UD1ZQmC7sq+auyP7yFgZ2MgjbZpw7JQ8SFkksD1LYyb+QJtkRBqWLq1g79EFkaDxgUwbaTF1FAUDfRYigaVJgKMlLo+ZyAAhYDIwhI0wVFrsFghsMfBzdtGF2lYDmaKDXtcVNjsZ8FQ+iJW1loYfBkiMQEKeYCbo+k04RgG1jSY8t4eJPWUxSkrpDuoeOQ6+FCr0nsilitLSud66ptInN3PYNErQchnp3dMTg9D63cxE+NBvmzASN0TnyLzaNbMFUhb2hG3Yk0M3Sk3HpDMpttXrqx1sWCrgyL+8DPMgr99f3XKa5zNqdhDttJDaP/O+lMSxwMfxBQdnz5zD5taW8GCeevIUqmNV8QtpBk3x+6ALJrM5GIdejsaE++I1PJSrZfSiDoLYlXtVQtI2+pIYmqfM0jaE0EhuTi7Hwle1BKMgkhAyxqJvuaEgGPm0haJt4M2dASppDWmzLsZhk+bkqED40C/e0Q5HI3CfjEDc6UPzQ6BEX4MEj0z4KFlZkWLdalLElfv6tW106z3MHJ1AykpBt0yJDu41exJSNGgHqEyWJLmRkxpXy4Q/Ofkrt0UDF9+4ivnjU6JW4Oq867cVIVFcBnPSViBJcTevgZ+RZXIi44j9nrgg8liunV9Byslgas8U3vrRGSkEjpw8jOXLy8gUMsIdWLu6hom5cSka5g/PodfqCZLw5O88in7QQS/oCg+ApDAeH4+BSAbzJmisxHbDLp+Aq0zhWMQG1q5uYPrwpARMsXBR3g0RAo0Iii7IhLQ6NParuTaDkBxJUGTxc6srHwuEXrchBQVRDBYTnUYPpq3BKWTw6qtnUMwXUC6U0B30cGD/PnQ6Pfzd3/09fv/3fw8/+MELOPn4CWxvbmF2dgbf/sb30Wg08a//+F/i6uVFLBycg5swTbCnZKSGjUpqDB0mDHp9NK4n2ClMACSwsVW0tgOdTPnd1e59cp1+4MNgGujFZTgMXKILIdn5G1s4dsBAyiEqRpmrciC0dQcrK20sQRVFweIqTBoE3a2oaRYJ5DRs1lUAlKWQBK3n4rGKiWzextraGjLZLMarY+hEbZWUikTuHV6DLEYZgEYkr5Aew3f/8rv43Jc/h/OvnMfxTz8kJkytWgsp28Hlty5hz+G90mKoTFXguwNp5ZVKTCAl8hXC6wXIjznvkRmHPiNE/kiSpVRys78hXJVRi+EDX32jN4xG4OMxAtRG80FF/TtXtg+V+yjZauLjCpobV5luxIdGJIYsKsXWhE8WvkXrZU/SAcXGmESqofuheLnTCY5Oi9BFIn7l7DVU95akZUDWP/fJECZO0DQdKlhZxTIXTwOuxGk8ZItufBAMhOjI4sEwbGyt1JDOOYj8QD4vV8xje20LUwsTqG+3EeieeNzTW8HO2Nhe3kZprAQjSxtmRWLsiLpCxSITsqdnQdpgpgN5EKrtwOOgLI4scR5wc6MLp5yCYakWiGpLKMYY+WzKKlqwZOEn8DuwQKDtrtjq0r5akOYEmVxZCgS1DxO19ZYca76YluLl1dNnkM8U0O318Mabb+Cf/e7vYHy8iv/yl3+NhYV5GduXXn4J5XIZTz31JC688y7qzSZ+559+EadffR1b21v4/f/hi1Kc8BAlZjuM0Wi6qDWBXm5CyGlJGCLcakBPp2CUCx/Mlvc+vRXieltQMXO8LAodq17DRNlCsaQhl0tL8coVNSWfq2sdXE+K8k18Og8eZIHwqyMIN4dGoCgXdm8H/SjG+OwCOtAx7vVRHYtRzDnIWXlpgdFka7eQVBbnzFxQ6h86bEZhgh/9vy/jud97Dl//L9/AM196GmEQ4cobV5FKWXJPzB2YxdLFG3jmC0/j7VffweL5RXz29z8NK6VLe6y508HEXOVmscr7lNcgXR6JXJAobEU2rmz0RwXCfXp9jw5rNAL3fgT8AO67S3COH5BJYTKd4GhZk9V1ySrfTEKUyT6iC5yKL1bhSopxzxUH2wF0Sfx5nvX8jMVzy+CCm/17I2Ni4cAsAo1+Chp6UYKSpdoJ79uGrnEqzlgFNCnzJCVzZHGhfk7QTzpSxFDCWPfryFmFYZZDIA/esl1GFDOi2pZefTfsSIpe3s4LetH1+8IUbw3amMxMisSTkwh7+LSA9nsBGpsNVPaUxFuf/Iqbhk5DoiE1abveTrucg912DScl7psoA2Osi/kJ+F5X+f0z5rfRhcOYaEMZJr366lsSBc1AJnZcnnziceyZm8WbZ9/G3/73v8Of/tmf4Ktf+zo+97nPIl8o4Lvf/q4gCE4qjeMnj+PHL76Ef/fv/w1ag6acP5LbenUT130bCaV59JZgfDHjjUs5peH/mGzyvVa2YM9PKjSAUsJmC4dKCYpTFnbcOvJWAXaQxoVrPXQqFeErRFdWYUgehSpU79aW1hOc+cp/xcmHTuAnr/0E/+J//FO0Gg1kUyYmM5a0Algch2GIylgZjU4Nvb6LYqWAnJGWQkFaU5qBv/9P38Rv/KvP4cW/fwmf+t1P4lt/9R3M7Z3GxtI2xmfHMbt3CjcuLuH4M8fx2g9eh+/5eOwzJ+EPPMSDBIWxHNLMWRjeayxMuO1ep9u1Ni7UAriOMyoQ7tYFMPqc0Qh8FEfAO38Vqf1z0Bw67CU4WnDFMpkPT7KnafxDrj4LAzEsGsrxaoOaZBJI/56JjWCU8c9nvrPPKl4GCXDpzWsYn6mIvayGNBzTgq3TEU718gV2F+95pWbgql/+L47QDFpijxzGvigevMjH2sUtHH5ov/ACbj7olmsojBXhULpJxrffFlMkfiYREe6HMcyOnUbBTqPru1jrbsh33ZPbJ0RFbiSDdWueHEduLKWIlEydFLliIJCwuDwQDqZ5EyWcouNQ5EP1YKfjoY7uoCu5FBxHaTH0GvJ5LBKaW22lbphUvIZWvS+GTmfPv43pmUnMzcwg46SgmyYuX76GhX1TWF5cx8Url/H0J58S3wTfDUWqur65jVK5gPl9U2i2OtghS5/cD9MSZYhs7gDu8ibsqTEl0fsF5++jdn0Hm3UVKT5RkkJoor2KuUPMAJFoMGm5rF+u40aYQlwpic2wz4ySwwvvqQ/u0pdmgfDqf/t/MDFeRRz4gGXjyEMnsHjhbUmVPHXiGL733e/gU5/6FOqNJg4eOIBvffdbeOSxk5iaLQvcT8fRJDHw9//5G3jun30aF165gH0P7Mf5V96GmTYlLrw8XkF1ZgybNzax96G9+PFXXxKFzBOfP4VOrYPslI0MSY6iROJ9TZriLlqiIQhDvHG9hUZKeWOMWgx36QIYfcxoBD6SI9BkLz6BWc7D1oGnx7mKZySycie8dWXByZnkvl5ER0S+xpRJUOByPSuQ+i4Bb3csuHIlA58Eu90Cot/1cOWtazh66qD41EfDwkEFQikmeDtoo2jRRlZTFsVkh8exGBbRZc6vAeNT46hvNUTq+Mp/fx2f+fKncPnNq/JAJNTaaXQws28GZ188h5STwonnHkCs07WObQSVp8CcCcVBsKTXS118yc4jaxaHvd++ICVW35GCKFtw0A06ErCUt/IwUylcPXtd3Aplfk0U50CLoeSgXLzSpnm7jVwpB9s21HeMQqQyBbg9st3V1q63MWDAU8WGA7ZbaLZEEx1lrUub612TKRIbaaOcCA+C7HNbHvoskGi0JEmSAxdb6z0sRWlJKRSKOg9x4GPA/ADLgjle+ik530fyOv4HDlpQhBsbsPfPKHJov49Cv41DcxVBasiFeevcOnaKZQaEgP4JzC1wDqgQs7u5sUB48yv/FcceeBDbG+vo9dp4+lOfxjvn3oJtOXj8icdx7vTLeOqpx/H2+YvodpvSDjpw8AAOHJqX64ox5TzPbCnYNuWakchodzZqQqoM3ACpbAr5CttevOfo/hkgZakWWXe7iyQbopIbu5l7cvt3ZJF7ZbOJxUC1E0cFwt28CkafNRqBj9oIDAKEnT7MahGmBjw1zihmrtYBN/bEKpgPDU7ahDm58u7FPZTTeYFFWRS40UBY2Oyd7gYu3ToMu3kKnNzoO7D49gqKk1mMT1fFG59PIolHHrYROHmzCMgaWZH+7Wbex1oiCAA5A8wP6Kx2sf/RBfQJw1+r4YEnj+K1b72Byb1TuPLmFRz/5ENC3qpv1NHvuPjEl56EpseSE8GHraWrQoH73bVklhaA5B1AYHmu2shp4Ot5LIzu3XVxZPbBtbdW0Nhu4ehjh9Gqt0R10W21USyX0CGDPY4wvTCNnfVtTC5MY+P6GoJBgGNPHkE6k8V2cw1JYiFtGmhut5AZc5AyLGGlS+pf2BpO/MofgsQ1KiTo6WDSGjmKkKN8DzF6gx5MauvpTNnXcWk7QS+TVcl+5JO4A4TNrpLxlXMwiowBvrsT4f12+Yf1lkQfW5Qt6koCqrsuJvw+JstZnFvvISoXEHf7iF36ZkRI7Z2+6wiCrTFC+RoOHDmKK++cx54983jjJ69gbn4PUrksJmZmsX7jGvbOT6PfamFt6YYUhI899ggyeSIHUtrJLxaelD/yniPqxIKB91h+IoON1hr0yBJZYzFXhBVbcHvMb1DIXegHyIylkXPej/ixEFWBT4DnBTi/1ESNcV6jsKb77ZIeHc9oBD7EEbilQOCK48lqCrZJu18arnC1GyOio5rOnIMUmmGTEYfIpzkpMeBOI1gr0kQFgSZiJ2tJz/T9RC/+3413V1Gv1/HAY0ckw4DwPZEISVRg1OywjUD0goFKLE64qZwHxTkIEKKx0UW/6aJ0MANvJ8TqO2vYd/wANpc3UBovodfpIeiHGJuqyKqqvlbD5OGKtEOIFPBhKcVMnIgWPmdnxZPB1tNi2SytFH53P0aLKX2WCTNjIp2ysdnfFDWA70Z46W9ehZW2RHY5d3hOyGLl6SJ2Vmo4cGI/Ft9eFKOnA8f3o7ZeR7vRhmVb2PPgPDL5HBa3luFHIbK2A3eth9m9lSFyQC+DRFZ+YeSrMCZdh6M7MA1b+BMRUx31DNK2jb7vChGSBU5WK+Cdq01sZt8rAKJWF/7aDtJ7p6Wd9LHdiDSFqqAVsyf29Zk/kDJhjg3lm3GCpNWB1evDt0wMdjqwp6vQ6aKq6dx/AAAgAElEQVS5tgOzUhROxt3eiNAFMS3KaQ7GVA7AXdqEM1OFb9BqmeRcJpUCU1GE2XEgn8pJG8uNekIe7AZdQUPIr6FkkVHRpSqRKA+RE6AxaIqqRvNNGG4Klm2iTGMvW/F7apsN6DmglFEhT7sbC9lblUssPuq13qhAuNsXwejzRiPwkRqBOEa404I5oUKTDhcNzGW5eh7IpMzVNFcX7LlzgqZsjgVDziypHvsQVSDjX9oBNAuKXZEB7rYbCLHTaGjjxo6seMcOzSE2EowxLGa4cWVEORZXycomWZHpd0mRssqnIiAJ0O8EWLqwgn2nFlBzN5G188LAJuFQLGlpKkQFAc2IaDGbxNh0t8QLIRU5iL0IcagIj3wo+v0AxWoOhqlLRDIRCiEf8rv5nKg1aBY9CKi2iEVCZpspbK+0YI3paK50EXkh9h/fh7d+dE6+99yheSxfXhKEhXLL7dVtHP/kcWytbMHtupg4OAMnk8eNrS1M5vndYqxfr6Mwl5ZjlgAnqjsSFgmuFEosaJg6yaJNtW4MGIZKvxT+gx/Bj3S06xEu1wcA/QxYxG02xCrYmh2Hdhf0/fft9c2WwvqOGHjRBTHqudJWocdDWGvBoOQx5DgFEmesDQIhf2ZKeYQkaFLeGUbw6MK4f/ruKhl+xqCFtTY0qmrEe+K9F2lRhAP2AJMFB1sNFn/AeNFEKe+g3e4gnUqLS+Kg56MynZeWAhNBJal0eK9KK00K7fRNdC4MQtTWm3ByDvLl98tud/euinLB80YFwn17sY8ObDQCH9IIRJt1GJMq2rZsG3h83JTJmitryvI4WdG3nxMTV6kxAhSsyjByFioEh9z8YaIjWw8qgVHZC2/c2Eav48LMatDLCTKpCfRDHSkjgmNFyJiOfNZuUcCVkrQVxIBIhdkM2/tSJLDV0PbbKNlFXOssCokyY+WQtxQBkcZAXFmTV8A38rtQNbC9XJMCIOdkEKdjGLGBXDqHOIrhMbAmALotFwsHZuT1skWaZDOIbXQ8UND/8EBN05L3Ug3AAJ7WoIH53F6krLRozTeubaA8WUZlqiCSOx6MWOBqOvyABjYldLo7smKkl0R9rYnUVEqUFzYnNnG5M0WSR2SA34cIBxEQSj+pae/UPQy8BPVIh59yEJA7wpWhMVQorGxBd1KSFfCxLg4oUby+Lm0TvZiTa4+clbg/EM6F5CmQqZ9zoLNQ0HVMNuroDUKRp+rlHLo5hbgEWw0gjmBNVe/5HZj4AfzFoS30bcqJdL+veDdZynsBhj4VPBedQQSLckYjxt49FeGc8h6hM2nP76Jol6VIEM5PokLObhbrvKTDCNsrdSV1NIaOpbegCbeidqMWwz2/BEY7GI3A/T0CET37p9+L931qIoWMEaLpN8QbgK0D+gMk9O+ltI9IgUgLQ86fMBM1aZKfQMMhqra5gucDqtno4MbFZcwdnxBPg07UEVtlToJhxAeXCcckORGyEqYfAHX7RAIkllmUDEpWydcIkTFJJFJ5LFXFjrcj0cnMWOBxZcQJMUYS0UpWBdt0Wh00dhpIlWyk8qZwDyhbZKwzJ122RNhy4PtrGy2B+4tjeVUkeX3UN1oyMaezaRTLOQR6iCAZSB+Y+6DigwULH9AT6UlxRRT4NlE+EabOkB365VvyJ9sFfHCXChOotzfEgXJzbRvOeBo0lUyBLQCFYOz2hcX6mdkQ7gCNLn0hgKVejDBFUx3xY36PT0DHST9AsNMSoyDro+6MeAe3T9TsInY9WFPD65gGYCwEbt9I9hsMkE8iHK6mkc+lsbVaw41NF/1yAWEmLaTSYHkT1lQFWupnpCDewTHd6Uu8Kyuw5yeg38G+lCRWVc/pMMTjEylkM8pcjEUCbaR53bEd5SaupJTyXtvlGIi7YxijtlZHZbosBTRdN1mI8B4YeL4YdjHTg0DeqEC407M4et1oBD6mIxCv16DfUiA8WDIwldWx421Lety0MyuT9Htkvj4sndbBjHcOpHDgpPveRK584QedCI3tprjX5SfysqrjRLfrqSB8A3rIcyLXdVgme//si7IIoJWxCnG6fWOrQ1ACI4W1/iqqdlWKDz7gWEgEiSc2w5zg6ztNuEkPhVIKtUUX2VkblkWvAUtQhn7cR9bMibsgSZZsLyRdTYKZxGkvZYoePVfOwnIM0Hk50gfI5/OigKBRknAnoAvCoKKUDWiJap80mPVAu2TNFuWDsmSOMYg8ONkSmu0tJEEMrx9AK5P0qcEByZ6UbyqPCRZUre0uGi0X1+suwtnJn5aUsvfeH8Bn1HGnB53OiTNj0LIqhOljvdGn4/IKzD1Tgg4ktRbSvS4G8zM/RcLU/ABH7D7KE2k5HzJ5BjF2Nhu4sOnCnxqXoWJCY9jqIbVn8p4TOQXl6LkwxlVL6I63JMGU28OJA2PiXqqKdCW1Jeqn7h1138pdNZTfEk1gIdBpdBEFytiL1zkrTduxxSa92+xhbLo0KhDu+GSMXjgagY/pCMS02J15D049XDCwJ2+iH/bgRh3otBmmC6A4uzk3eQccjt0VviL17WYo0LxugKtnVqW3P7WnOow7lkeYeAzuFhsSn6upzAaucmzTUtkQcSQrHeY4DHmKN0efD0GiG5RBClqhGQK5MxZXEiaTGFvuBupbbXnwzY3PiU6h1tiSR2W6mBEZZcWuSEYCH6ZEAFjwMHOBUcmIVTHDoKl20IGWJHDMrCAY9Y0mcqUs7KwOX0Kp2FKhm6SvEvUMS/gDO4MdOUbZNHpFqghqIXMiQSZDQxyGKUXYul5Dbt6WfQT0ldSANOiXoGOZVsBaBtHQKOqm8iAIEW82MOj1JUWQE4yeTYlVsjgBfswVCrsXBNES78YGnINzzD9GZm0L7lQVyW2W0XoQ4kgqwOxUQVAX8agYKjwoQ333wip6YxVExYIKrtrYgVEu3nMZKLkx/vUNpPbNfGD1hB4EeLRkolpWzqe7G+8BFs+8LyYz03AMR9pju5weFqlE+XjNBt1I7hOGkSmdRITN5TqKk/lRgfAxfeaPvtZoBO54BG4vEI6VEkxlOPkFskrmRhJigZMXe7OGrch90UAmRMKUqsd5q2QuwfZKDb2Wiz0PzMnKnJsiPcby0jAK5GeudtlX1+hfIKFFkJhpk5kOhD7ZPE7YsqCtPmHUUFIYy+kxDGIfadPBIGQAU0ZifBv+JrautZCrZpBJZ5Ax8yIF29ncRHY8hUyqiESLYRKpiA3YpincCrFx1kzlnEgDJEOpKGpBTQiOtMOt2FVZvTc22ihPqbRFyh/JmxASJ2N6E/Ir0vJd2P5oBS15rzKnUWbMfG0uW8Zq45ogF621DtITlsgkKWUkIkPPh/UlF9eMDJJbrH9pkR3U24LImPmMcAxAj/+Pt2LxZ17PETNFPB86PR08H8baJsJ9czcLJI2kWn+AyayJ/ZN5lRUSq9jwXW+ObsfD4uI2NjRLxSGnbZFHelQZHLz7vgjv+zIJECxtwJgoy7kMGh1oAx9GNgMtR9Osn3NiE6Dg9nFqb0naYWEYoFJWfKJe1MNKdwnV9Li0wVjw03BJuDDk/IQ6YrHebiIphhhzqsqZNAFatY7cC6MWwx0/RkcvHI3Ax3MEIprmUFM13B4fZ/IfVxehrEBSCGWlFWgm2oOO2CpzMuaMLn1yZi0gFhkkN7YXlns3UDbHsHh6BQ8+c1jez18MZ2KxIdUANPFS4AObfxKiL1hF6Z1SzrebfEhkQXqlpoYkJERPzoB6f9d18Vd/9Tf40z/5I1y+ch03rl/Do594CF4rgFnUYfOB37dw+vTrOPXYI8IhOPPm23j40RPQEx2vvHIaTzzxqMg4CftTVujHHopmGd24I1wB2jSToFlNT8iDtZgqY1ALkM7ZYsC0a9QgttOMyA5VlLAQ5djzBf/O4oAoAosSSJzvdGUvlmpXULFK2CFpbH4CpHNYoNWyh431Pq53bSSF9yR3Yv5zeQXW3ilVGIw2UAmg2yZ0ukGGIRZ8Fzt+BC/RYRazGEsiHJvOgTEhpqGKwU7YkWtt1y2ThajvhXjrwhrqtgOtlJeMiv6VNWSPzL3nPnmPxjvYbooc1qioopPESgnNurU4kPvgp4sFkhcfSEdYXbsOx3GwME+FjCP37ra3JS0qKVT9JhZy+wQpI6KwfaMGd+AjP5NG1lHtNZqCla2K3GNEHEYFwj064aOPHY3AR2UE/GV61k8MV/gJnpogaZDFAZ361MJUp9RRz0pfPGXYEuBUtAviSsiHK5UM6WFaoRv0EEUtWFoFV88s4dgTh4YkQ6VPH+Yj32wzcAVOMhVbFFw5M02OxcaubJIreq67OQGrGGZO1wnagxZiX8df/If/C3/+7/4tvvXtb8O2TRw5cgRvnHkDxx86gUsXL6PV7SCbcrC1s4NDBw/I6vHo0WN44YUX0Wg28G/+5A/FYZFFT8dvyXcjIkJfBPYbiCKwKMiZOUEr2LcmetLc7IpdNDe6K6bN9NDgSMkWGWDFgmI3yIpKBC8cYHNlBx2rgeP7H8NqfRGxmyDoJJiaGxePBwImgd/BykUf9VIV8S1ku5DIAYl2Yx+f3IRf9T5hCqXG9oplwum7eHwugwADOBZtlUnYo821JGrJddQKunK9OaYiILI4ZeFA6+5rV7Zw1SooZ0UmIW7WlXHSPd7E5nlpC/ZU+WfyRogcSVG4q3YgYbHrInIHSCUxWl4dmmVgb76IvTN5lApFQQBZKDT9pqhsMlZWCvXZ7Bx21mtIZdLIFR34YYiM7Qh6xuudiJe4n46Mku7xmR99/GgE7vMRuLVAmMvoWMgbMLQB2n4TmmTNa8hSeaDZaAVN0eNzAixYJZlIxYUwCoQNvUuJIkRvJDouvHIFh57YJy0EPnDYfxfpYRSovALq+4cmSEQKBJmQ9boQASSplxNirLHVkEg7gkgD30dY3+uHeOGFl7G8vIzDRw/BMulJrzIUOu2uvPmhh4/h5Rdew8rKGv783/4ZvvaNr4uXwyc/+QzOn38HTz/zBLyoKy0FP/ElrIocB6IYRD4Y3lSwCyjYJUED2AMpWmVsr9cxNTsuY0BCJI9HwfwqsInFAQsq/pMUPLGOVqMD09IxSAaYmJjFlcsXACOB6VuozpeFO8D9hrqP2E+wUvNwNbBlBRt3XPibdaT3f/Be9X1+Cf5KhxdvNaBRxmnoMHsdnJjQUSkWoPNaG6Zr3mra5fM6knRL7va9Fbkf9dHr+Xh9K0GYTokSxLvxIbQYht+eDpfhdhOh5yNN2XFOJaveihpUMzYodO2EGkoW4F1fxRYlyOU85QjySVoQYsrrYu8BElQ19Noe0o6yTt4cLEuLcC67gFaviaARozKrbMV5/fL+5LWsrllrVCD8Slfm6M2jEfgYjECwui0mOtwO5BLsK/DBRM8DD41BXSb9klUS/wFC5SkG/pATMHQnUJK+WCZxEvGGFiuCLFx+4xrmT0whRKAcEzVDHjyU+kkZICFMusgpuXohe9+NaNusoItBSGWA4i5IxgF0JZEcchrCAFhcvIbXX38Tv/Ol38b15esSdsNDoge96/pizpS206jt1PCF5z+P18+9hfn5WVy+fAU9t48v/tZvIIwH6AYkZXbFV4EPS3ozpA3yGzxpjfD4SqmycAw4iQ+aPgoTeflOhHB5bJLEODRa4ngSqhWHRs1G7VpT4pyzE44883O5Ctbr14Sv0Kp3UM5UYad1+H6IWrMLHxbWQxOeZQsHIljZhjVR/ng7If4S9xM5NBrHxTSgtzs44PQxNT0G01LBWuLJMVThSPkmIJaK06JKZHejaoYYwyuLLbRSjlyb/uVlleVwG+HxlzjMO3sLXR77HoJ2D6JltU2YlD8yfdO2MJMz8Zf/+/+GP/iTP8P1dy/ikaefwtLSMkwng1w2g+bODtKJhplqFs1mDbqVxtr6NqZKRWRyKZRn8kIn5jVHO7H2dg+hFqFQzcn9yuueBTjJi0JoHCEId3beRq8ajcDHcgT6HiLXF8iaKOxMeh0PVvbLBEYp4Ya7KiuOij0mqYUqoZCPUS5sVCkQJgMM4ElWfd5UAUtc4be6LSyfWceBJ/cMIV6Vb2DoFgaxK1JGygH5aSwQqBgwNMogQ6RNWiuL2bGKuk2UiyHh0V07ZsLGJCkSYWg3OygVyhjoLvsh0BIDDb8uxzyWGlNkSmjwXA+9Zh/2mIW0rVIVETEcqoN+HCKrk3tBLbmKs2aPReRiGu1xPTj8/24KSQ/IFnKwiyxYbHmNEN/I1YhVQBUVD7SS9mJXigq2YGobNWQnHXkQF3Jj2GquyHcnERK+BqebxfX1DpDW0cqWENu2tDkGSxvSY7fGhqqIj+XF+Mt9qWijDq2Sh24riaMTBchFHg6fmBRInRuvI66Obw8Tu32PbF8tbXTwbmCIgyZbDEY2rfgNH/bGSiag62eImLLLjov52RLOvfUq63MU8yU89/xncf7iRVx8+xxmp2ekCL9y9RKOnziOfhhh8dIliQgvlsuI+w08++wT8ENFPg5ZOMcZNLfbGJstSWFAHg7HiAWE2DqPCoQP+6yP9jcagftnBPxLS7Dmp6A5nORiLGTXsb+wRx6pgzhE3dsRxj+Z9tXUhJKH3SRKaegE7Nn3YJsO7Nga9n01URX0PBerFzaw7+SCsPbJHxD1Ah0Amz0EaQ+xGaKS5gSujID4IOdKXCUZUvqodN2ibmC/mPCnplIjFTchlv7/ztUm5g5PD50TPWTsLK7XlnD25beR1lL4zGeeQ9ahhDEWe1pmF+RLGdWqMGx0/D58eMgbVBsYCBJf3BFpG023RJoqse1BguXOWg2psi2peJQ4si3C9oRMREksaIM6XtV62XTXJT+B4UreaojibE7+r1Kcht/roMdqg1p0WGhthzjnArGsWBkuFIEtICPrwKiq4mu0vX8Eoq6LmBkXcxMKjk+AVLeD47M2xvLKEpzXEltjyrJ7lwbz/rHktcXXBn3gFXoipGxxVTRSNvSiKjR+rVuSYMYGrp0/izgIceHcWzh+8iTSxbIEQO3duw8z+w/g9Is/xPz8Amb278fpF1/EeLmEyvgE/E4Nzz37jIxF069LsU7UJNXLAHneeaEQa0lgJMJHns2oQPi1nvHRzkcj8GscgShG541LyD96WIhPZTvGyaot8j/C+XxY1r2aIAiEI8v2mEp11IkQJOj4dfSjLuKEmQdZNbkapqgAmIM0aIdYvrCF/Y/MI9KUW2G/5SLxNOTKGQlB0uxEYpD5qJZV+DBzgD8TQSBawVWRQir4GUoiSaUEV/2E7rv1vvzec3QOvbgNR8/Kauj61Rt4+/V3EAQBTp58CCdPPqYmkBjYWN5CeTovskJ+z44/gKaZyJgW0ty3RjOjgfRju0FbHqYyr/QZTmUjX87JuPB4dlMW1XFFghioYJ2OFDN80LbDNgpGHmFdw/h0RQqEUn4S/X4D/ciV5EqOz+uLDdRTQ2kbkYPVLXHYs2iiMyoO/uGbha0AFlGlPIzdiTyK8VAmxtx4Qc6JshtWPhRyAQw9KdTfhzHY4lKo4cLVLSxZGUEQBourQuD9MBwV7+RJMJuxMGjWYOaLuHb2TRzYsw9L168jVyrAdV24vo9SuYLq9CyWrryLTDaParUq7Tav38fRPeOABKuZ4vIZRAOkkcPW9g6snIHYCmAatPQm+XjUYriTczJ6zWgEPpYjkLA/v74Dk6Q3AJOZAY4VGBbkKKVAEsuKfdfyWFkFq9Q3cVmUcCQDvThBNTUp7+N7WCAwbrbfd3HjzBpKh/LS/+xv+3CsFEpV8hli1DoNNDcbyI47CHuRGCRVK3RFNMSdkQWBzImUUgDoBx1k7BwGQR9e2BdDl14jQlbLA4UQ5XRVnvth4sljP+j6ePPNszIxPPjAA5iYGBOOBIubleU1jE2WYVsqZrofuohgwNYTJNKi0JSyIonEx8ALXfE7SCUpdNcHyM9k4KTTcPQ0trxtlOySML/5eiYtsi1AAySSEYV3wWKiAwwGPsanxoTb4GSL8Hqtm0S5ze0e3moHSEiQI3KwuiMmPfavqzhQTEuVIxElwpC/X/McKP8MljZhzlShp20gCLEQ9XB474QUtLsqhttTC4WJEFPGyxZRgu2tHt7uJwjZrggjDK6tK1LobTkJv64HAtuAlq7BjxJpw4VRAnPgQ3c9hP06qvMLqCX0KInhWAaCSKWhCufF9XBsykHWScGN+4LCsQhmsBrvi52NHeTHcgi09/xNRgjCr+tMj/Y7GoFf8wgEmw2YhcxN0tuxUgOzzqTyLBhmHnBVrMiIQD+kxbIl6YIr3iqy0qvMomCrCY8bV9StoAE603VWe7IKy1TTEt1cyheRyTsSY8xtrd9Gjr39Dn3zY8Az4Q085KcyiHwfXifGxFRFevvMOeD72BttbtAiNkRlqoJBy5fQIk9zkQoyyGRSSOVsOEW6Gao2hcxzsmrUpEXAiWDt6hZy42lkCo5yQNQsmMxogCJnpbS0FCgsDMgjYAQ02xnsY2+v1uWz0pNkfevo+j04loNJZ0rMpcil4FhxdcpWhT+gBDSL1XfXMffglKTrsWgo5sfh9ptyPIPuAK/vBOjT8CgB/KVNMckRzsGHjRxwvEiSbNKwJ5CiIKENdhjCJFellP/wj+kO7pW41hajIHtymMfQ9/DkpINy8WfbTasCIRYpIBUnZ67GCIrKd4Iqhv6NDWTp0Phhn4M7+L7ve0mcIBeH6K3sIMxnlZ/CrccchDik+Zibz0tLTVCtoC2IH1E63leDXohWq4nyZEGued4zowLhg56I0etHI/AxGAEypf2NocZb15AxYzxYclFJV6UPyYwFLVYwv7gcMllw6IJYd1fF153eiJTvlVPKC4CoA39tdTawdGYN+4/tg55miFCEwApRMktwkz5MzZaJuhsGKFn0VugN5Y8JAj9Eq9aS/fp+hOKUjZhphwNPDJr8NpByTFnNJz1N4o6LlSK6bg9jhTLiiJ8RoLbdQLGUl4JENw34SU9kb2xJcHJ3PRde20dxPCs5DCkjowKihsRIj+THOBZkQUyiIl8mdhZA5EhEQYzWVkf5IpoJ8tk8xiolIXYq/oSysiWJsr3dR9oxSTJALp2HZagQIaoYWu0t+F6Ed1Z6aDhZxdEYmubotz/k7+Z1R4fKMEIyCAEiBE5K5RhEMahqIaRusHikbbN4CBCZjxHVOwi7roLd77Po6AFVHrm0KmCofOm6eHIhDSedknOiPDjUxgJYXDwpUY181P0deF4flzaKiPJDYqM3QLTZgLVn6m6O/D39LJ5T5khErR7MahEGyZVEP+hj4gc4nNdQyFqw0hq6UVvuY/k/LYXOVh9B2kcmlxbezyju+Z6eqtGHj0bgPh0B9myvb8CaHruJHlBV+IlJA2nmCOgk16mJkKQ49vO5uqIjGx+ovaApyAFbDlxVS1IclMqAK+P+oI9Lry1iam5SCHmUHJIgpidKDsjPIMufhYesloU5bYpqYFdmxYm8Xx/AsPhgj+G7vrCvmcaYLWTUA0wzkTMyQh5Un8nkR/aTGRYVwesO4HkDaTmnKoaQCZnvYJmWQP3NjRaqCxXhG0g0NIOUJG3RH8ooiTiwGOlLwUKUhOUSmd6iEY91NJc7kvIodULKgJYFMnZGVmhUUDT7DbRbXaRKprRgWEwpdCZGNjeGbmcHF280sEILXKo/uq6gBzp5GdT1F7J3VdYYc9LbaSmiHnvulNCxAOgPJMeBdoORN1DXxu4KlC/2A4CvJbrQ7iKotVWQ0S0W0L/uq927ugp7li0GRRg1Bj6OF2OUyo6cC16rbT9B0R4mhMa0+dZFxsrQrv6gha0tE1tGSRCTqOdCdwfQmIb5UdpYqAchwp02kiCQCGyjlJNzp/sBnCTCQi5AdTwHQzg5VNu4wuOxy0TKiChYIwTho3TOR8c6GoG7MgJ81q9tw7Ct96XHpfQYT08YQgiUxeLQiIgrZLqwUblAa9pbV2D8mUoCMvXT1m6LQaEIhNUX31rC/APTyOVy72Pfk/invAOU0yDlgPQKYKFBKN8xGIpkoLZaR2GiIF4IpsnVuAvdMAV9INTvJZQdOoJscDIzDAubqzvSTx6bKiNOBiLl6tZd2GkLvYaLKIwQBnTOM5Aby0noUmOzIzBzebLIEkEcGwk5swihPJITO10l6bjHjX9XEdEx+u0+HD0HJ5NC33ORULpeVMiLW/Pg9yOkxgxYjinQblpnoBSNphJkcxWcf+c6FiMdMSdfOlLe2BQEJM3wrCiGv9OEPTUGPXdnqYzmcLXPsZTQKVktAxbRkNUdhD4h+IogBpRk3tyiGIMbG5I/kNo3LYWDWW/B8brI5tLotFwMCgWERQVdD1a2YOYcIQbeLxv5NPpERQorjl2u1cHxvXk5fl5jJNNK4bCLiNw8cBWVzHNea2/hYr2IMJ2WlTgtnD+yiZjDQiFYq8FgSmO1pMaGihnPxYlxyncjXF72MWj3cPCQg0I+K6iZkIH1kZPi/XJtj45jNAIfyggk7gBhrQVzdvx9k3beaOBYKSUTPR0TBZIdGslwIueElyRkN5OfQGO/f1hup2yQY/SDHjbfraEwXsD4VOWn5HmcfFUKk1Ip8O9SWIQMX0oJsXBzfQfjk/SFV8RIogJ0OpTVOzT4yUCKA/4WwxvdxoXX3sUDp47CsixcOb+I+nodR08dETLkzkYNB08cgO1YOH/6AqbnJlGerODGhRtYX97AqeceE0L7xTcuYmb/DMyxWEnmdPIRAlEysKAh2tAJusrLwC7B7/notly02m2UC2VEGscrRKJFmJyeUujJENIWkpyh8iscp4Svnb2OMKMm/2izjqDTl1S/3Qd57AfwF1eROjSvEhp/zpYydWQ6dSxfX8T+I8fQtrIyprk4Rm/pKnIHjqAdCG4jK0c6CpquJ22EgJ9NYuVOC8Y4CyUgs76Fxx6aRGLR0TLC5lIDS66NoFKiPzH89dpNi+4P5eL9eTshKrZWg0w7owYAACAASURBVM3CioiH6+FQ0cbMeB5pU4OmRYKK8TrZTXDkx3F8eK2yB89tfaONdwJLwrGijQb0cg7aLVbXv/bv+cscQBxLXkXIa4utIcsUV1LTdeU8Rsz6iGNM9Zsop+lKEiFygdK+3IfAQWBs5lYTcc+VA2O/y6QtJivi+5348cucjNF7RiNwn46A+L1fWYV94Ked4Y4UetiTrwwJiXygKt968SYQNYOapLmy4J9KT57cnPjf97MQvxJceXMR8w/OIdQT5Kz0Tf8ETpK7sbOSHieIhTJEGpozymp95eoWxmZKcLIKMZAUSEBW81z98mHvw4dNBwFGUespfO0/fR3Te6dw4pmH8dX//DU8/vxjKFXL+NZffQvPfumTWL60gkc//QjWrq/j9e+9gU988Wn85Juv4qFnjsLrBDjw0H5sLK3jzItn8fy//hQa/R0pGjJmTiZ1SzfEYZIoAw2fSPDKp0roNLvw9C6KzhiSkEmW25jcMwHfDwTRYJsjl1XER/4KBhGc9Bi+t1TDWC4FIw6xcWkdQToFe7Isk/WuC7C7uIY0H+y/wM0vYxq48L2v4vjJR3Dl3Qt46ulP4Pvf+x5OPXoKi4uX8eiTT+LlH7+MXM5Bp9HE06dOYWNzCxeuXsGpz34eWyFts9/bCNFbAU2fgIMlE4VCGpeuN7GZLYj184ARxQuTHzii+J7cHkGIYLsFa7pyc14Za7foN4WHjk4j1kL4RKI0W5ltQUM7bMp1RZIqEzSJDC3daOAiUkx1QrS8CX1m/Gaxdk+O+8P6UBbu3T6CrRasyTJ0tsVum38N18MjVRPpLFtdQK1du/cFQtTuIe70YU6NqXQzkmAIT01WRmlkH9bFMdrPaASSBMH6DgwnDZ2+7bdsac3D3nwbs/kpGIklK3Zh/BsW3NCVeWp3hcWJfdeNjq0FCXMaPmhUnLHa1q9todvvYebQLGwy4GXVqngKu+QwEvqChL4CLD5U64BKBS+k90CC7V6Mcd9FrphBOpMSL4VdZQI/MIkSsX9W/Aeu7DN466VzOPboUWTyOWze2MAr330Nz/3TZ/Hdv/4env/yc7h05irK1RL6XQ8XTl/A5778PK6+cxlHHj6M9RvbAsFbKQtnXzqHf/7nv4Mw8iX9rx/3EEShoAb8HkQFpBVCyWejjrfeOI8HnziM1144g6eefBrN7Qb2HdyHV197BUcOH8WZM2fw+c99DrV6Dd1uF5qRx8T8NF468zb2TI5j+eoi7EIF/YGH7OwcWj7PgVROGFxfh713+hdOVCwQ3v723yGXy6NSKuPg3v24sXwD7XZTUIv5vfuQNnS88MPv4Dd/8/O4+M4lTE3P4cy772JscgbOoQdvtiVuv2HMIEDZZdslQT2fv/8KhDCGv7oNe378veRFP0Q69PHsgSIGYHuJ0j+GFRmCCHFT4WAROkFH8jYW15q4EhFNSCCFGW2Wb23FfJSfJCwSPB/RVkOIi3ou8x6Jkd8rjPCQHaI8bqHlt6RourcqBvZ1rq4htaCqX+ZyJ4aOqElBcAiDlfJoG43AaATu+QiErR7iVhc2V3y3bWNGDbMFDVVHJToyN56TvaHT7jgSyR91/Ldv5B/sSiB3WeLC6k+Ad09fReXAOJDJgH1xU2c0NF2QdSEtsudrMwhq2Kno041Rp/EQWQAq08EPAuxc3xZIv7q3BJ0R1FoAMzYQ6/RbGCAFR1wMeRy6YeH7f/MCdEPDU7/xNE5/71VopoZHnjmJb//1d1AoFPDwp0/AMHS8+p03UJ0s49ipY9hc3pDVfqfeFc7C+Z9cEILlkaePAbEncCwdFekOSZ4DGwTkShDxUC0VHd/66vdw/OQRuP0I5UoRb7z2Jj7z3Gdx7txbWFndxNTkOA4ePISvf+MbOHBgH/qhjqdOPYJXz13Avrk5ed3hI0dx9rUzOHzqUbSckrL06boINxuw99Ml8ue7KLJAePf7X8NTz3wKsRvjtTd+jEeeehpXzr+FlGngwMIcZham8aMf/gjPfuKTePnl09jc2kR5YgYmnR3HD6JHiSAnxDCUAozeB/J3bqIXjRUxka0PHtcwBfSeX8B3sAPvxgbsXAb6MOlSa3UwaSR4+MgEmoMGcqmCJDYGmou8pky/diO5eS3TW2N5I8CyztjoCO71DTgHZu8PhOQOvv8dv4TcBD8Qsmro+qrtMGyjHDNDVMcMXGxdwEJm4d4WCFGnD/Y8TQZpxAmcRgtupYio6wHdHvTp6h1/p9ELRyMwGoFfcgRIQOMqdGFStflu244Ue6imVN+fK3NC+MymF9fERLkmluyykj3dNkl1Gj1sLe8gX8lh0B8ICZCvaW23cPjxQ8Ls52Ta87sYxFyxpZGl4Y7kOLx/I1GwG7K3b8qqTdwL4wT9LR/Zagp2mjHTLixY8n7+7CcBqtaYqCKUJx7tmpWagqqIXthHOIixfHoVDz//AFkO4hHpBgEKRkGQACoOuIok14LoCF0hGTkdRDr6YQjHUG6KRDyIpERahIyeEWWHE2fgdyKcvXAeSyvL+Odf/l185W+/LsE5z37q07jwzjmcees8nvv0J7F/3wF874cv4ODBI3j1tVfx7DNPo6WnYQ48vPvOOXQ6XeiWhfnZBfSdMcSDALHrwaYVtv3T5+3282gbGqpaiEGzh46TRSWlIfT6GHNSyKUSFPJUlGgIvABpJw3P9dHuNKUoyxeyuHFlEyv5McA0Ea5uiwwy9kPotHkuZZU6gNyTYXCUMVa8Y/LkL3nlfrC3DR0V7amKKC7sVhvHJoGJyrgUNwwlMqEIrdxudecUE7AwxtmrNWxncxKUNFjbQWpoIvbBDuQj8mrWewMf4eoObCpSTAOz0QAPzBdQH9REcXPPEAQ6gXmXV5E+OPueXpZ9NWqsO+6oQPiIXEOjw/yIjwBNYK6uYWLvJAqVgkyiNXcAL1T9fG6PjA1Qsh0hIjqmIy5rXJ1n9JxA7DQQIqzOAuLWAoGRzswzWr2yiVw5LZOPbjLcyISdNuFkmVqoHsYkuYWI4EdULZAAyYmX4U+q673LYWBBwPd4cgw+DFjobvZRmCISQe+EjjzaFcJBQ6KetCaKFlfcsZi/iGcDLZ/hS6x0yc7DRAq6GSBJTGlxNPwmUrqDnJaFm7hIa44gHyJhNJVjJBGNpk9fA6ZJhgK/0/CJGQ0Mwe4HAfSGjvJkHkEQ4+VXT+Mzz38KP3nxNOx0Co898ig2N9fQ67poNJs4deoULly8jHR5Ejs7Wzh1/EF89avfwAMnjqPd7WBzc0uej3N7D2CtTYUHYGRSwD9Q1P2sq9LwA4Q9Dxpth8MA44mL6aqOVrOJjJVHoZSDYZJLocaPZEr24Xt9Dz+5VENUrUhAUO/yCrJHF6RAozSSSAbcgXBLdEOHVsrCpKLhZ5BVf113jb+yBZsLT0pEu308Pp9CIUMVDRU3ikdze2m6648QhhFeu95Ay8ki7nlAvQV9/qcRt1/Xd7tX+41qLUH4GUiV9gZ4ctqRlp6YpN2rsCZBD3qucA1onGb7AwxS3KkG/p/W7Y8QhHt1xkefOxqB4QjQTpmqhZnJEi5/+yXkq2XMPnIUHidvb4CxQhZ7ChBZYnvQRveGi7GFEnL5HGzLgj8IYFkmQvZ4PR8px5a/9xmQgwTZbBbf+svv4dgjh1GdL0NLq1U873NRF4gvgSoA2NfMmTRG8iRl79YHtSJEqrRHlgxc2bO9QYa51/Xh6Blkiulh7LIvvAOZ4Khs4ErezIqvwq6iwYOLfIrWz/w35ZHAY0oSIiPMSwhEMZHTGX/L4od7p71zIMfFIoe8hl0XRgmM0tOyD+rmSYqsbTeRz2fhOI4cMzkbEiY1bD/Ekgqp3CV7fRedbgdrPRPdDAOhNJycqeLsuStIqqrVSmUI/90lvH1LAfdBLmYitgwvMqndD0Okd3YwUzbR8jrI5UsopE2UKlnxi2CPmefHCwe4eGUH6xklgwu3GoozMnFLC5iwtOgmVdLRrsrigxzbh/Ha4Po6rL3TsqtyMMBj8wWYYujEc6l8PXavRylcpZ2liLiM2f7JlSb8UgHkzqHjwpj9+KPciefDX9pC6tAstCTBdNDF0T1jsE3r3hUISasLkHfgpGD3XTw8YeHsVoBBxkHU7gPdPgxKUkbbaARGI3DPRiDpkpwVYsqx0bm6jPkTh9Fc3UCfEicvwNr5q/itP/oCfvC3P8TDz5zAD//2BTz5+Sdksjr86CG88YMz2H9sDy6+dQWZfAYb1zbx+X/1PM7++G2RA37pT76IF77yYzz87HHUV3Zw8LF9QjSUMJjIF58ETqa77oJ8GLM1QKRCJu2h54IYMkW+QPmcnJkoR8SA7yP7vN3uiiqySIJlAvTafaTy9lBCOEQpkhhb3qasiinVzNpZQRLoxJijyRFbJloikDoLB7ol6jCR0d6L8uVkzsJHUI4kFr8DFiMqpEoVO8xpoIVybaOJsYmyrMjFhAYG6n5Njp2MeOFFDOWNKysr2H/wGP6/776C9N798jnPzE/gBz95G/as4n7clS1O4F1ZRWrf1M12ktVoKxljzsHCoI1D+8el+OFGJGRtZxsXOo7KgPBDDFY2kd4zfd/kD3yQcRnc2FQGTkGIB+wI8zMlRDFbSAksI/2+AoFFXxD3oCMlZNe+28drl1wkExWE9Q60MIIx8REzSfogg7X72iTB4NIKrD2TkmOhhyEeyRkYr2bvXYEQ11pIaNeZc2D7AaaNAEtIib40pMd3mMCoFn6ZrzN6z2gERiNwhyNA45tou4mp8QKu/fA05h7aj4UHD+Ltb/4Ev/HlZ/EX/+t/xG/94W9i7do6HvrMEXzl//wmvvRHX8TV81dx/KnjeOnrL2PvkT24dOYKPv27n8CLX30ZJ589idd/8Aauv3sdv/WHX8CbL57Bs7/3FBbfvIHDp/YPV2UQm2GZiCNXer8MM+Kqn06FZI+LIkJ4DWribQQNxBEjnBNpGYRDrwSb2fRRBzu1CJYXIs0QGgSYnpmUFkPHb0nSQphkYeskO6YkC4Ex0pwX++FA2ghj1pjkJHBS5MYJgtkJbC/wZxYWLA840bMwYWFAWSL3TaRh189gt6hptJvYvlzH7IEp2DkLg8QTxQMLjGp6XL6HKoISBIMQa51VLDZyCDNKRcIC4Ycvn4c1N36HZ/OWlw2DlGSpfxvLnqox+hlYs1UljbxFu1hxu1ioWLAsA+msDj0ycP7CBrbLVfFZ8Fe2YdBY6D4yQLrTwQk269AtE0alAC0I8WAqglbswg17yNHFMj0hseK7Spwg9NDxd5C1x4QYW2v2cb6bll48pfnkfYgD4T+CjW2kcG1HIrN5zYx7Lk7uK9/DAqHngb0NiyxXyeimrldV+vT6NsZL0H+BrvdunZe474krVkLYjjBepaB0oKNtNAIf8xEQotlGHVNTRfSWN5Ac2itmR/aVRdiahqvnr+Ezv/cprC+u4/Dj+/D6988iXyyiUM5je3Uby5eX8YnffgZX316UiOOliys48cwJXH7zEuq1Jp794idw/pV38Mxvn8K7r1/E1N5JlOhzImRBrtBC6esraaOBjJkZQvh0G1R+74T3OalylU5ZZXbYfiDHQfku6KIi8PwB3ECHHdIIByhP5QV1kFaF5EcwTImkSEuIh2K8lAykWKDXvJMiKmEiRUIj3yLcfWUVTYKktDYoumSbQFoklvItED4C0Yz3EwV5vL1uHy579Mw1SGJYFU3aHcKyiPqwDLowxrANC43Qx9Kmj4ahJh0WCD96+TzMD1Ig+CECoinkGZimEAmRsmBVi+/LRlBFQhPWdFUSIW9u5BD4AcwoxAMlHSsND9uaDS2bkc8M6m3Ys5QK/nzFxH132wQRBkubQraTjIg4wZ7Yw+H5osRvs9hLmc5NREeMtmJP1DK9oCvntl738K7rsFeEcL0GLZ+RBe4/io0kzjqtmSNYUxWYno+nJtP3rkBgQeBdW5eoUrJguSVxLOSPpO+KL8Ivku3cjRPDFRS9zRkDaqQsxGEIbLeQ0Cb0Nj343djf6DNGI3A/jYAUCEubmHhgDxwdWOkr/fcnJjMwAh+ZrCN9cwOc/CLoTGsk1yBjw+16EsFM9QAlgJ1WFzfevYGnfvMJuN2+/DuDkGIW3lqItaV1DNoBFo7OipOhUgaEQnh0jAw6QQvdoIfpjIqXlmeCQL9qIuZDvBOEoFxPyPIsIBLAi1WfOIIrk3XkGxjs9FCZL0kfnS8SBYakE9OESSUo01+eq3pyDfKpPByTZk26ZEKw4JAsCW0YREVugtgSG/DjADajnmW/agF+K9qxa9ikVB2Q7xiEAbbX6yjP5JAyHAmF4rEowynFmG8km2g3A1xplxCZphQI33/hLOy58V8cfBTF0hf3txqwS3nl8GcyaCdG2OhKbgAn9lsDlGJ3AP/GJqyFCRiO4n+9VyjEMPwQEdURui7e/WJ8RMnbrQXF/XQx/6xj4eS22ZDjVpkDiSAIDzjAzGTuJg+mOahLoUb/inazh9ik0RVgpRL0og62t00s68pAKFzZFrmkznH7x7JxruT1NT8BPY7xVOUechBkTCOVpy3kFk2Xk6aXslLV/pTG6V6cBLKSF9f+f/beM9iS8zwTezr3yeHme2fmTgRmBoMMgkikSIJBpChppXXt2vKuvbZ3t1xabbn8x+VyeV3lH94fDn/sLVd5V5bXsre4siQqLcUggYCIMAhEGGRMvjmdnDp3u563z7lzZwgQM4gEcD7ULczcOadPn6+7v+8NTxDjEZWozNGgTCgfHPbpPi0iGB/G/I2P+YmfAQkQLm9Ao2XtcBgK8IVZC1HipdbL3KRVS7JrarOngoWp2txIUbHf9rG9soP9N++DblC7PqUS7h1hEOHy6yuyD+07Og9YYqYryHdu4qK+yGWBZki0bqZ6nXjRp6qN4qwXU1Ex3eg9UhJDH25Em2dF3Bb7Tg/9Os2dVBQrReSY+RLgyCoEN8skTBkXFE8inkCCB/baU8AkNwR55rUESci/kdcfAknqeEfVQy8Id1+/u2QQvKgm8nsvpLqgPmRj0CrYxaDpoae1MV2clvNhJUIQ8wRlJ4Eo+NEIioyG57dCBNlMWkF4+QLiZg/modl3TJiSMIR/aRNqIQODwMG3WbMCit/44c+2K4IAzqVNmHMTqShOGpVB3W4gHtkixwn85U1ok+VPZMbMIDN4awUGFUJ1DWa9Bb/vYLaUwe0n5+R6c+7J7SebZlY9iJeWB4gsE0rWxj5ngNkpHWeXO2hNTqfiVKvbsOYmbohB8olfLKi0utGASd2iOMbnKx92gDCsGtA4Qwa5z+QMfVQSy2GE/tkV5E4clEi72OqgX8xL9E47TMX1oY7Fmj7x9/X4C/ycGaBy6fkVGDcv7r7ocEHH4WLqKMh+u2zjlDoe2sJqCr0ORl3BNOukPLDkwTR7iiNYw80vTY9T4B89CMhu2FquI3ISzB+aQbGSBwmOfK84ObK/PwwsWCEQieQhgyA9j3StoJRxlCjQQV+IRIyauLgnHRWKnsDMM8Ch82Jq/MQc39azQ7vmWAIPoa+J0mKq76BIMMQ/xLLZJ7GKRGGLIWUrUKmRQUsU8nsqKShRyA0SsQwrFcQ6xFCGAQUbE/wete0aMiULumkgq+TQCdry3qxqY5C4KOsVOV8/CHFmzUHbtCVAeGp5S+ydeThjovIziROVZ0dJjjaUx9Xotthuo1yI0ehp8KboPwAELLEfmP5ZTAJxKOzPk/pYGJbMg1BA5Ezewo2aZN+UwP9EDgYIF9cF9M6MXxUXRhfTCb0wipiezgtG5XznHBTe54MSLgSpY2N6c0egzHBM7Y+sDVL0g9WaVHaE4/ppGxS7GrX89wab1JHgPUQWSJLgFiP6EFsMvwiT6gW7fF5e6ILjwIkShPmcCDh5azsipSly0ANmUynxSrUNiSyJ6ByP8Qx8omcgjuG8sYTMLYfSGB3AqYqGSZsAujQLFtEiShoOqWzsyTMgGInKpOX9UDbFXVT/UIxIUPrDf3OUrugW8Gfzcg2moWOSWdiwsj2qOvB4BC6ynM/PZ+VipMDIc+RndHzaQlvIGCGCQBPDndAL0Kn1UJzMwbCIIyBmwZWKAY/JikNWy+4KKaXflwFB+n/RPCRWgXoMpCrqBuJIQS/oImOmls08d2IT2l4LBbOYVh00VYIT8VQQMUECGol3SDEJrFp06j1oGQWREaKolyRQ6QQtYWvYWja1eEYieIz1rT7OhVk8eHAWT61sizphuF4X0SHaPO8dbBNE9Y4ADuX7DDzMRW0cPFwVoaOXX28h2McsWUFAkBmdGkcb354DkZ1AjQCdOggEIEqZJkaw1UxxWRSz+6gStw/hgSLmgvRO9s8lEfV8zLsd1LQMbp9SUagWUHfq6PkNGN0pvBVnJCC4agw3zbjRQUzHT87lp2xErR6ibl8KZ5Qx1Si3PLrn+Nwvb0MnCyRJMBV6n74AgRE3y6pEboddB7qtwyBl5xrQTdjuQe06Yq3K0ptWykkpSnASAw/hVkOAlMQpfJIfnE/Z/T3+Ojc6A1QifP0ysqeuBAgnSyqK1kA2LjIIolhBxrKEQSCUvqFc8mhjHX2k/H4IJiTqm5oBlGFO+/MqAniycaqBhnM/vYTDdy3Ctix5fhpRE2UtzVDltZL5q8NNNz0yB7NxbrwMUoIYWHc82KqGqh2hT02EzQj5chbFUlqZSIGJuuAGuL8x4BDHviG9kEdm5i66DKoqrIYkUgW1ziWB+IvV7hoW8guihyAiS4opbASyITgozczzkQ2ax42j3c+V+RBfCGBrpQYvcKDrBmYPpG6ZIuSkGeIIyXPqR30YsYEzb+3g5lM34amVnTSAimK4bIdOlq7CRnEtCuptWEMgo725iVM3F6FpJs6eb6JZmUwrBpyvZeINZt65QitKgztIaMJkm/D6LoyJAvQpVi4+YaDEa58DYt4ursMiKJPtZOIQBq4w6aYGPUxaKqozBWyRSdKpIM5mr1RreG0ZHEcx4nZfZKQ1YuQ+TqAmT8n3kbR6UuFApZDiId7HdYoaXcTdPnQaUJGay1bK8jbMiQKUYg7J8F4byWerUfzpCRB4cYnCjOnhnbGgTZZSlgQv8t5JTRIwihJb02JOelZaNfU43zvEVGq7AYX+858FLuyNbjzj138yZiBJMHhjCdnjB2Qj4eNw35SBnMGqQCS+AufbIQ5VTHTcBvKCsFdgaubbSiuPFA+5MUtGrmi7bQEp6ScKtpd24Ds+9p2Yv6KkOGwdCK5hmM3zmaMHg+AQEp4bxY9G2ghsN7B1AfRDSjDHKKkR+ttdlGeI2Ie8l5oDpmbBSzxxdRxhJhgopKZTbI9QXtmX78XX03SJrQVWCxgItLw2ZjIzMHQTapzOixsMJGgh4JCMiIyelaqKQS+ZkC0PAi9HCPd07WCfm0FGfacBu2gjNAKEfh8laxKkanJ+WDlhQEHZ5nJ2Ds++uYIOKZ+WKYkNs/zUIXEoMEVlxMubMI7tkzXKqDVgEGdhmujmCrvVAh47WtmG/jZeG1fdqDE3Qlpt72n5fpwb4Qf4FJGtxnV912+ErW0aBDY6EjSoDBgyFhLaaw8TwYiKiQM3ZaHoKsxSAQqTxY+5tUBxM/qnmNx7KFS23ZLvIgyT9zDk3qKT615lYyJwKI++3RQgKzUkpMK0B7z/oSkpvofv8N7eEicIai1pGbAKoJExQXTvaL8fRv6jAIAVAv/iRtpbcjyYx/aJoIjt9DFnEfkcoxkbcG1bbiJvdQcWy3vv4sX+3k5+/K7xDHzIM8AA4c1lZLnB6BosLcFdEyEyioWnTj8t2e4GCjh1yyFUzZ6wEkpaOXVWFODgUGEwDlMQ41DYiNSxQHGhxgZyWh6h4kGLDKyd25KNbPbgJHQzbR0wmOjFXZFOZgaeVfLwIg26Ri8Fvo+yv5p8JjfivRU7AaAlPjq+grjjoVgyhFmRVhvIkPClgkBZZB6bwUdARUVxeGSvldwMUhVD+Qy+NlAo4ayJaRSzqKbblmpBVs8JTdKHJ5UFLh1kMwjbgf4NsSPy0AQM7LIbmKkOpaR77gCGraO91cHEVBXdpA0z1pAxSzKPbOnwuwh9MgqQLVRQq69je3uAS0kh3Qg2Gym9bkTDHkplM2gYGeoIyLDVRZzLAkOPBrHy3qzD+gxIA/+8J4ZtFkoG7wIy3+bFsgcsb0EjSDFjCk1UM4x0T3gfGfoH9iQnCXwqQu4fUjaHmhfBRh36VPnKfXDNB0r1nPRWymLTZpwAWT4RxBxQk2OiCK2UBysDWs9BUM5DdFLWdhCzulbIQK0UpV0lNz9hNx+W1PIHNlnvcqCw2QVcXxSvKPRx7aCcbNHzENsm+lRVY/BAffFOH0GjDXNxThakmXiAIzO2qKJtbTg4S0cvZh/UbOCk7WVBfFRfbvw54xn4AGbAObeKDFVLc7Y4Kp6qqkhcF4/84Pu4cOEc7nngl/Dwlx5Cy9sSMSNuYAQPCnBRSvaUqOVjwwyZm3OCHloIokgogyyfE9y3ei5lLB24aUGy5JFanxt7Q0xDWv7nxu6GJgpGWuLn8VMRoisARj/xBSjI0dhsQVFM+AMX5ekCsjl6OESycfNY/bAvrQWRhk00cexjy4GsB278DFJGlY9QoW4CE3RWK1iaT7d6N/TluwiYMvHQ6m8iZ1fl36UVw0yU7Q9qD0jcwZAhgj8IETh0PiQSI2JEAcPXkRRDBEkfplYQeWkeR7Aewx+eTzZXQbOxjbWtAS4HGpKMncocZ+2r2ARUwwya3VT4aFhZmGo20TYsBLaJhOdECmR3AOs9ZpgfwG32C3EIYjaCdW6kpVQkahTJcZMk0DQIEfcdIGOJHs4vREBw7cx5AcJOX4IBBIF4YyBrI250kVh6mgRfGxx4gWBQ+J21bKprIQEP3899UaWL6rCaLoDbtILE+43YDVZMxMwNgBmFmCGDlsZrn+gAIY4RLW1CPTArX5CRUqnbRSefvxqAyMl52gAAIABJREFU4nioDvqYzFnYDBN0czkBJF414gTWYICcSiOvGH0akVAbfmUbBqO2MWDxF2IBGJ/Ejc8AbZ7Z41a5II5GHKP92ml0t5bxwIMP4fjRY2gEdRT0gmTb3Mht2ijvYRh0sYMcKrIJkwmQxOmGR50DZucrr28gX8xhev+kmCRxQWL1INVJS2mO/biHnFLYtdllNkfnSHoqMLsXIF+SCisRJOk0fMRRgupMSf5PloRpmbCZ+e15hLmp+xGVECntbEn1jyZTPL80wCHdMEKgeIijSD6f2ADBTEBB13PERZLnwNZFy28JRoLOkW7kiXYDN2dxACQbQ1MQBiE6qy6K8ylokroJ9fU2cpkMMmUL3bgDLWHQwwoENR1UEYoSsGMEGGYOjz93Fr1qJaXTMXNc2YE+W4V6jXujZMbMdIdMA6PbT1sw1HaxLKk8UEVwZHV843fJp+cdBGSSGaJ4BJ4PWQgEblL6n0qLBRsKKwa/qCOMQNqqcY0VAa8xAYVvtxeJ1g/dNfcKAKYCHOkY/bneBop5EYNiBd3fqKeGYFK1yiDT7+OufbYYrYVR+MkOECRqv7QBY+iVnu10cGo+g4s7Dgaxjpyuos7AkT0nluWiGAXfR1GJsRkpCPLZYSmFQup7PM85oeRVs6dVb8P8jJftflGfo/F5vfsMcH1g1aB3aQM5ArgyJgIx3QGmbGDWbGA6N7Mrd9zyOugnbcxZs9Lb58bOUj0z9R6a0JMMMgr78QEMxRIMA9kEzKrfev48Dh5fhJUnEyB9ngbRAJbgGdLNNVVUVHdL/qnngeT48CJPVO/4O8d3EG0BhUoBuVLqCikuCfQaGPhwOg7KU0XEWoqFoO6A2DyrabDB1oOlWVIJ4ZB2hOg+DEWPGCCIlHICNdbgOA4M05Q2AtkHZCZEXCCptacbYinNCkcQe8ibaRnWczxRUcyViVPwRW0x6CSgUVSxmBPsgpboaaAytKE2FB2uF6LRclCdXcCTa/U0iyWdcXlTROVE6+DaDJHUOyYrsxM/u0GwFXpxXTwdpGQ+HkN56T0a00M2yy/a1OiqgoqpiUkSdR07HinBgFFvY3Iyh6Zqwg1ChPXu0Pp7qEy894vw3lnbgbWPFFcFih8iMTSo9TbiaglqEMJutuBOVBAzUJJyYAzn4gas6TLCVh/mPG2+NShhiINmhEPzeeYAn+wAgXNEOVFG9mwDMAiwo1B85w/rIY7sr6Be72Gl66MWKIiHpRmVqFAuK7ouylGgeVTWhlHOSXmPx6G9qURxC5OpD/p4jGfgEzgDrIglzS3oxSlEjR3sO3oYa1RIpHjMxmXcdet+dH0P2z1N3A+9qI8EK5jP7UdeL4ocLfvwXF/JPBCXP9FAoNpxD1ZC6WQV3sDHuRcu49YHj++KHhGQRz8FBhGjFgI3cQYCbEkwW7/KPpoOi5EHz/fhN0MUyjlkc9mU2bAH/8CAgta8nUZXSv5eti+b9yggYIDAzyUugd4LVDkMvQiapcDrhHDCHhQ9hhaY0EwDUZ9MhARqBmg4LUR5D7ZuywKZ0/NivCTMCrYUEg8FI2Vj9N0+3MBDuVgcVkgS1NY7QDVE3iygqJZS+2jVFAU/1/Nxue5gux/CVXXcd3RBWAziprfVgFHKQS3l37HsTRVaySIni9Ck1REj8gPEnUGKv+Ia+AknI3wCH7H3dcpFS8eL3/supmfnYdg2jt5+FzqtJqYmJvD8o4/g1rvvR6fVgmllYJTzCAIPWTsLx3ehmzacfheqnUPcaANZHZGVQ9fxkewFWSaA7vswt+sYLKQAWCpvBktbUPNZYTTsiheS3ggHJ/fbQKR98gMEhDG8yxvQZypp327o+2C4HkpxiFLWgKUkcP0Eqy0H/ojSwyDA8xGs7qR+EZSZrHekyiCH0DUYpIOwFDMe4xn4hM5ATonw2o+/j8//6t9GsLWJwwf245VXX0WxXMTFN1/H1Nw8cqUyzGweOyvLmJmexPxsCZfOncXM1BwmZ0opy0CsklOaY6SwCpBSE5VYk43T81xceG4ZR+44jFyB8s0hau6OoPbns/uGqoOpvoJBDwRRN+R7hzLKDCTIiIhjrK9sYXp+ItUpUCLZZG01OwwS0lopj8/Wht+JEIYBkkwsxkNCXVQiZMwMeo0++oEj1Q5loEIpJCjaJRTzeXT6PeiaBq/noTxZQk/tgLiHbrMv5zBTmZLzEfElATsm8vle4MH3QphZXSSm+XczS+wD2Q0hvHaIwkRe2jPEcnCIomMU4ZlXNtGbrO5WKx/YP4UnXr0Mb7sh2d/1yPqSooh2X6oXxFBoXJ+KeajSchlHB5+0x7RkGfir3/8/8LVv/SouvPE6brr5OF556SXcdPw41tdWMD09jbNvvoVKuSpeJATo9rtdaaGvXL6EQ0eP4NSp2/HKy2fkHj128hTCyQX4fiqpTtyFYrGqlMDYqCGcrghmZUTr3MUlDO8dPQxxqhgjX1GgfCoChKFaI6VIFUuHyb7NtVKksrClgikySGHcaoAUl5/RHr+G9fBJu+HG5zuegb0zsDdAWHn1DO6/7Vb8m+98B7/ya7+O5597Bvd++Wt48q9/gMBx8LVf/w38i3/+3+Of/bf/DZ544gn86Ed/jf/lf/rnQ5Gg1PLYhw9TKIRpq4A7fepaqKDfcrF+YRtH7zwoWX/Tr6Fs0FExDbKFiodI2Aos5QuwUElL4m7iIqOkrYS1C5uYPjiROipSpyFhRSCULP5aeWd5nMMI9VoT2UqGStGSqdedGkr5AlQj1TDQSBGjSuKwstCLe3Dhii00KwWduCOvG/S6iOsaJveXkTVygoNgW4HhjJ2YGGwGKd3MSgGS2UkLbtJDRs/DhI3GZhe5siUS0CMthiD08eqZdWxVJgRHIHMRRLhvvorHf/rWULFvnIh8Fp9cBgg//L3/HXffeQ9O3HEXnnvmSWQLBRiKAqfXRb3RQK5cwfzsHFqNOo6cvBOnf/x93P/FX8ITjz2G3/h7fx+vnH4czW4Pt9xyJ1554TnMLNyM+kZT2nFWtQDr4GzaPggiJKI7/s7qkCXPxT1HMhj4rlB5P9kgxb131IiZUGsJj1NnqW6vohgpIEOzqLDekZKcTr7nx8x3/Sw+FOPv/NHNQE6J8fz3vosvfP0baKyt4nP33Y83XnkdL7/yEsrFPI7feQ9e+emzYq505OQtePTffRe33nILJqoV/H9/8Mf4n//H/0HYDCNJ5RGoj1k5dQTY/6fM8rYXY8KOULvQkoChMltEx+9gujQFXSMjIpVQpkMjN3purmwDMFhIPRhSyWT+9BoD6JYGK8+KQgpDl8WKio7czZPUx0EMlZJYcAu9oCcURQYYBb0ogQirDG44gGpo0BONuEB4VFDUDLSTFiKuBxSLgQc1UYQL77se7CiLnGIjXy0iDAIEHUA6HKqPXKGEvFFE6EcwDB2B6CtQL4HMihQj0a71UJrK77ZQ3MDF05f6cImFYkDT7CBsdPGlB07h9Eb9bb0VPro7ZPxJH+kM0DWUe1FEPYoQhTjG5VdO45YvfhWhpuPST5+Sttj+ffvQ73VQnpzCyy++IBUF3/NRPXwTLr74HI4euxmvv/wi7r//i1hbXpZqQ6fbwc133IVuYiPk3mewhfezduAiIlVvQ6kUUIgDzNkKljZ6sPMWFiZUVIeYGlJyPz0BwvAqC3Cx3hE6y16IiqhRsYhgGdBJW7wGJfyR3iTjDxvPwEc0A3Rw7C5fQOD7suhMz87hzDNPozwxhWypiOWlS5jdfwB2tojls6/joVuPyQa8uraKQj6HwwcXU2VF0WZNmWLSChiaOrG9ICqDxPkS2e+GuPjaktgg50t5zM1PozxF6eHUjGk0pOyexMJY4PHcVoDQjcTPgXoBXKysnDEESaYgRmIL6nFd2hYFtYAsMhJw9MOBCB+xQkEWBrEHpCZGSoRu2JUcwEIG7bgNN3Z3fSFSBcgUIBaR/sbFm9+vb6CcLULP6hjs+ChWC/A1B6ESYsKclPMTPYUkwJazidnMnAhL8fM910PgRSiUcvJdIj/Bpe0u1gaKGDSJtsrlTfFMeODQPE5Tank8PhMzQEph7AYpYJ6gW02FkbdRnS6jHzCgjVHpD5BUS2JuqPo+coGHfNaE2+1gh5U3K4e8qSOM2fIiM4f+aqnOAVtm3YAA3aH3kZSqEug+Kb8E6Sfoi3qpiiN6iFyWbCBgq9nF+maA20+UEaqeyJcTM1MxJj59AcJVd5qAEYeDpZUPwbmRGQNpZD5pNUSMk0pDSiR/RMmRFUkazGjjasVnYhn4xfuSI6G84T4OLUngUJb20JzQg4ekBuR1BfdOmzDVIbNAAXz0pXQum7tKcCDpg8ycQyTiT5D6M+ixkXL8E0VUFFfPbiJTMaGTKgkF2bwNu2jtaioQi0ANBFYQqCXQ9XrSUui3BihXirALVmqkRJ8CfhYSDAIFiuqL+yIrDjR/KmgFdN2uPGdaosI2MmBJn1RCU7fQjwaCR4jjAI2+Dcv0ALWXqihGjmz0rjuAFusoZkvIRTkMah7s6Qj9bohcvgDTpPQzhZJclIyiKDGmAUGMlf4y5nILUrVgpaW53UahmmdHQhbZ7Z0uXuqraWmXUu4DF0G9I22FBw7MpF4M4/HpngH6dzQ7iOi2SW2Dt6lac5O3HRfzRoxLsSG6Pbbr4t6FPExLw8rqOppehE5XhUtzrr3ql9e20IeBAQPfQhzhZEWHZVOpVEerORBQ4kQlJ+ZjpA6/ttFHt+/jrsWcqH8Ogr4EG1aQ/5QHCB/ybScqb+QfU5yC8pySYaW63rReBQFFpKiQduIGMOYnxJBlPMYz8HHPQFRrSSZNSfLRmM8ouKViiiyxH3MTpG1RusErWsLkV3r5SCivHMJJ+tDJcBh6KJDyF7cirF3ckmrA/rtnYWct0AqB9f3GTgsmj2cqKM/kROjI90M4dQdqRYWuk3YYCmuANElWAhhErLvryGgWimZFAItsLTB42PQ2RB6ZxY1+4sBMNOSMHGzFgq8EosVAK+a8XkAn6MrzaRmWyCtHSJBRbbg+/Vh8UVHcn18UYGG33kOn34GVsVCZ4vykNRSeU8OriQgTqwYs3zI4YrsjtXkDAn6fnoP8BLVWEmxuOXjdUXdR5f7lTWjVIrRiNnVzHAcIH/ej8OF/fhTDP7sC49gCFAIEh4Mtb4r80RTwgO/g0L4ydEPF+Yur6Ck57CuYmJ7KS7Xu3LkLMA0Ts9PzOLPeR8c0RQDJIG0/juCFMSJDQ6So0OMYeTXAVMbARDWHjGmKmNiI5SPaJGIyFqHe8PByL4YdhLjvQAHE1bL9x+A5HHwEds8f/ux/fJ+QuB78rRYsul9JWYdZwtsjiWM/EMYEQZRj0aWP75qNPzmdAbbixNp1cWYoAATcOaGjaqvogpugC98FZnJz0ttnMMwMRFFZwiR1MbVYFttjJUEYxbh0dgnxIEZ21kYhX0JkBHBimkLZsOlbECqidtjtdOE5oQQApq0LkNAzWdY00fe7gh8geJE+CIaqYRBQkpmAQlvAkNRnIHWQFQSW/RmPU9yoF/UQIICt2CjqRfnMWrAjWAS2QrggFvS8lHILWl7e44YeBoMeFouHMJmZGiouJhj4A7jdAJqpIp/NirkTWxyDuI9u0MGkPQ2d0s2gNXZathV5ZgC9Zh82VStNFc+82US/MBRdW6tBy5gSIDC6GAcIn5GnkdiWs6swbt6HJIyh1prA/JSoXypko1QLeHA2i2yW9zTZB8QoKBIQyLM6VAIlxoUVL88LsF3rIkwUTFdy0Iy0xcfBBJUaINQyYZuNgbx4iigGClZ511WUv+z1XLxY9zHQDZC9cGtBQ7FgSFsMaoQLtU8TSPFjuNf89Tq0vC2639VuB5qpo6bbqUpjGEopV7IiJlCkbLG8uNWARb/tMSXpY7hi44/cOwN0PFVpWDZE1ud14N5pi1ZF6Pgt6LBRsStSShcxIyWBotJbASKMJFbRwz5+EIe48MISygfzCLO+9PYt3RQgoIgEqRDqnwlDFjB6EVBhkCJKDKy5wTJrIRjRifpSshdjpTgQJkE/coQQaamKVASoeyAaCkmCZW9Z/tyJOkKf1KEhRxMn1RYBIzfx4CYOjCTVI6AuA1sTO0ENwcCTNsbh8lEUjVLqlSA6Dwx6IrRrA4RhKD3jQjUnYkpu6Ai+gYusIeqLhpx3SoU0BfDYb7votDy8SXEFqiSGEdw3l2CdOLhrBDQOED4jz+PQadKcm4BKnR0mk1TldFxQ26KqAnefnIGua/JsiGkZsTF79ghm/Qx0GURL0EAtED4bqoGaV0PRKEjgTJYOtUQG4QD9sJuKmTHAR4wpm4JoKesoChK8vNJGzbB23UA1qo9GYuwue1dAkOMnWmr5Y76/4q0GlGpRykaVfgfHZ3LoDgL0BpR79TAxUUGku9ioDbCqT8oC4l7egjVbhpKxP+azH3/8Z30GYuJmCNil9SsAW01wRzVC1mQZ3pHAoGiWxdZZ3BbJu1foVUAzpNR4iDRBjtXzW0I3LB9OqYrsY1LymLAfZt6sPjD7YWAsokRQBH/QD3rCChA9BLoVKqQPRuLOGCY+clpOwIAKt3VVkYCC2ZUAJZNI6JZONBCDpvVgVTAQ9ETIwIKm6shqGTSDtlQWSkpqmkQgI4GGpGF2Bh3M5uYxaU/J8ViVsKTFkZpUERDZ9JvwGj6mp6ZgGimOoht2ZKEtmDa8OAQiFTaDAQKhtQSBG+K1N7axVamkC7BkkUswTxzaTQ4+7QEC7yreWiF78Fchxn/2yRtZJrzTMzmqy5qUwt+DwbuhZ3hk6yxCude4/N7Qgd7Di/0A7uVNqTYrbA+MvlAQorK5jXvuPSzmYSMgL58BBtajvzOI5XNEbRAOBgsUHGNLTejDrOpJYKvI80B/lNHgMRg08DniPZtRs9jcGuBVJ0ZiGkh8yqJr6cXaOz4NZk3v4VJ9YG+hi6T4x7OPG8fI+D6MXh/FjIF8lq5yBtqDAL6iopPNpZEf7Vt3WjA+46YqH9hFGB/oPc9ATOdA+owMQVNEOt9a9WDQmAgJclpxN4sRnxc6JCbCW5AsPLVtBto7HWxe3sHhOw6IEyL1BrgAMhvyYhdSiNfISEhlkemGyD/zNezf87dsYwhoaijGlKqVpX1/bvSSGcFHRuHCl54f6Y3MtcTzALowFBphQwKEopoT62o/CQTXID5KlGjSNUS0jjZL8BIfbuBIZkVJ5r0ZGyeVi24raMiG3tnuYXKqggy1ESiYRCwEsQcK3SYDqIkuAZR4TqgJVlYbeG3LQ1LIpQJIDBDeXIJ5y2cjQKB88MZrL6JZq+OeL3wRfcluAT+KYZGTLwZZMUwtFbfKI4JqWmh6gdx/bkRvjvTfNAXIEpCay2N16SLs2f3wo0SOFSUJMroGLwzh8gPeYYjb5coOVJ1AVxUxP2dh6iNt98auh2inLSZIFPYbCWNlaw3cd+uMBMDCqhmKko3uJ7Etl6A6DYr5PIwwL6OvOzIjY8VNQPGj/4bHoqjYyKUxCoBnz7bgVIqyHxEXQ88KI0NJcCAOQgHV02tkXEF4z8vrsI+7tCWI5L20SXHBIoOCClZvA0nw6bs9URwDFt/H3I/f+v5nwF+vwZy9ouyX0xN8boqLrSOLEHdoLkqpBTMZQVyghO2fWsGSqpVEWHptDYXJIqZnq7KRX8lwHMEBpOV3AhxTXjaz9yvaB6xKpCJBBEd5SSDKjVJtkFCAW4l84jA4oftj6rrIysZGsCGvY6k1iDxhGvBDTKTVA/oscEMgVoFujTZxD6oN/tf2W5iwJyXwETzFNW0/VhPoJUGsRH/HgV2xJcAYCTbxe7GSwsyN88LzpMETP6s/CPDG+TY6DIyKOaZ8CM6twDix+JmoICgbl9BpNnDgljswVy7guSd+Iu6fn//8fTj95BNi0EXVwAvnzmL/gQN47ZWXcejYTcjYNlaWlnHzyRN48m/+BpWJCRxcXMRjjzyCb/+tv4Vuu4VmswUvDFCuTohd+dbqMiZm56DMHYT3NkECg4OAJliTRbGC5v1BB8Ok1YVO/4J3GwxaP6iWsMj4u4gabSi5jCSXahRiKnJxaMpGPpcdVsfSippU76DueovwnmSVjff7Vck+A1NW99h2GD47qV17WhWQlgTrbBHdRxU8s+0jtAxxc5TnZ6IEzpMAJ9M3SJAwDhDe7eb4ef/O0lm3LxLNNoGK10mjpAc3fR4YWHxgN977+R7j9372ZoCc/dUdWAtXlEeLhoLPT1uinMjNjpsznQzzRn74d3XXwpmlfUFCOxGWLqxh/vgcNGIUxD1Rk01zEPbFBCqMI/T9HkpWBVl6HHDTVyL4oS+l56wxUh1MgwsyA0ScSTZ6tinSKJsLHhfIWElLqlwIL7uXQC0lQ1HhxJ60FmRhVDUU9RK0SBUEd8WsCgaCx+SmnvISUsKRFyYwWWHdYxc/MqkSphLBh0ECrxeiPFkYWl8zg/Uk2Ol0AwwGARLVQcdToToBrEIW600HAzrHGoZ4uyTNLrQ9z/ynucXQe/1FFCcmYC0cRDVysHThgphelUt5LC+vYGH/AdTWVrC1U8Ntd9yJnY0N3P75+3D+rTdw+cIFzMzO4PHHHsM/+qf/BZ574m/gugG+9ivfwvOnn5Ig4f6Hv4Gf/PUP0Ws2Mbe4iJXlZXz+1/8OOv4eavvwAvubDeh5G2qBgVq0SzMUg6PZiXQNZsHKo7UyN0mJZuWHugV8HnTLgpq3P7j1mm0BOnROlNIqRpJgLvBQLVroez4Kho6pckYEuhhAM/Bm8MnnTjQPxI493hUYS79CWjkYPSt7gwORC6dWSKRgq+7gVUcRZo23zJb3BPAOukDjAOH9bg1cQFZ3oFby0OgOeZ3DX91JqwgsP47HeAY+6hmgYM/yNqwDdIBLswz2dx+asUSARTIOASMqsPQ0MEj78sRYs7QbyebqOgH+6A/+FNliBr/+699Glsor3OQjT7IRxw9w8dwyXnz5eZw6cRuOnzyGbJYukJoAFQnwG63HbBHQXpnBBfENiAwBBcaRN8zuU4Bkbb0Jc8YALZ47UROZdkHEZsguYIDS8BvI6DmYzYx4ThhWim3YO0aukvwdvRw07WrjKPkODEaSRNoPooPQcRGbIfJ2Xmoa9GJYXW3hgmIjZm/Y9a5UDfdknPRP8Ja2YBOcvGch/jQHCAwK/upP/hA3nbwFn//c5/Dnf/Jd8Y746te/jtfePIu5ffuwcfG8bLwXL1zAwcVDsC0Lzz17GrlyGUeP3YSfPvM0/uFv/1M88eNH0Ol2cffdn8P66hIG/R7ue/gbeOQv/wJZyxZhoPkDB2DtOyKCQ1cNyupfXIN+aD69h2h9Xi5IQOCtbEu5X/wtYpp1WVCLWahsQ7mBmGjppSxUy0JQbwt+RWdA/QFVE5KBB39tOwWtE8h61Q0aY6rXQzWjYWGhIloco8Fnj+fCYKHndwXMy+ocn0tWu9JqVmqvvothYGtQidBvD/Ds5T7iibIcjnNgTZaBd3ABHQcIH8DCzJuMCwA1r0f93Hc7rDAatlupTvZ4jGfgo54BoTluwjw4v9sGKxgKbq8w+06EmshFiCiA1KQpHWkZnghqVhkSXL64iheeP4NvfuuX0em28cyzz6JULKHv+vjc3bcJf5tL1UsvvYDbb78Tt992K3763POiuvjFL9+Pc2+dQ7FQQTZnolAopPRJZkOJjmd+8DxO3HszBt0++p0BDp5YxMr5NWytbOLkgyew8tYaKvNFOHVaLucxOTeBJEywvrwOO2/DbXvI5LMYdHrYd2RBAoW9Y1QlSSvIVzKvftgTDQUutFVrQv5N/CCiEJ0disjQJEnHeq2HFcVCdK3bKw9IGWc/RNx1EPcHqU3zNcnApzlAsDQV+cRHNOjDqkwgcQcScGp2VhhezF5Z63F6HWhWFqphgLxaodNSpMfKSCCg5vJQfAJW6aypIibgjmVw3URMHq6qI+x1oOcLaAYERF6DQ4jTBE6fLu+ydUaGfuFWU7J3qQzwHhhZIY9ukr2thTiWXr02VYZG1g+Davl5fwZZMYOE9Zoki3oxmx5zFIDQaAkJSlGA2+dysC3iZAjhiUTgiNUr+ba83fifgEED9EICf/OiFzK6r0l3JDbHHcR4lu0FzjfbelR3VFUYe/RQ9j4j4wDhA1qYaTtNAxZjbuL6jsjKw3o9VdYayz5f35yNX/WBzQCD2ni9Bu3AzO4xT5QVTNvEHahD/wRmKik+YJSNcFNNfRWG7o6Kiueeewnnzp7H9s42br39BBr1Dra3tjE3P4u77roHZ868hLW1Zdx66x04euQw1tfX8JPHn8Dv/Jf/GJurG0giFROTZeSzeflsLnbrF2rYXtpGdbaK1nYbE/NVCRyMvIraagN2xkZlsYj2Wk9KwitvrOL4PTcjDGJEYYDFkwdx+dVLsoCatonZgzPQtas3j1GWtXdSGQiQucBAhW2KkT+EtBqGPhKDvoczy210CTwe+b2EEaLeAEnPGSL2U6aGCKjRZv5t1PM+zQHC3jllfYrAQynjJ6zMsCrDfnna6CEIkQZ6rNaYRrrp8Q6T37OSEzLYCkS4iy6GpI3fSBafOJ4I2lFvgJT0d2oFEzdm+C5sne0qFcEo8IvYltDAjD9qddINmfLGw9YEAxpeYy1nvye1XD6LwVYTiKJUk0TXBJ+m8nj8jDhGNQmwmDcxU6WEeJiCGQU7c/UYYYAktB8+uzLLw1t/4Hh4bn0A105ZDnF3gKDdh8XW19uMcYDwAS25soCsbsuGr1ybUbzDZ4TtnvBNFZa8xmM8Ax/hDDC7DVe3YR6eHwYAwEOzxA7EIv4j/f4kgKVYV8RV6LoYOmJMJEhpRUGr08fypWU89cwzWDx0QJQNDx9eRD6Xx/d/9EN8+1vfwjNPP4v1zXWcPHlKsm+u/KefOo1//E/+E+gRAYspCFGwCWKGoGHplVXMHJrG+RcvYeHQvNjfd2rWAAAgAElEQVQbG1kdnVZXxGZouUzFx/m5efQGLlbfWIFlGVi8eb/4QOw/dgCD7gCNrTra9S7uefh2CRxID+NnkFXxdoMqi27oShYrpdthRYObPeeE5k4vXG6hYdi79MWw2UXY6EDP2VAny2IONeSs/dwr+lkIEBgX7MsaaG6uy7xXqhOiL9HrdmBl8/BCjTQYGLqOQrGEnZ0tZEpFTE5OYmNjAypVATMl9Pt9qcJb2QwGToStnge1UkzdMa+j5E8GgXdhA+bi9G4rWOGGTBGhMEQ5iTBbsJAv6QidAJeXWtjJ52CoKjxNR8nWYWkKtlwyLxTMmKrcCxv9AIEXIK534DsuzMkS9KEQ1g0/zvQCYeDuBimI0dBFVItKixz0VDCbLRxbKGNmpnQFmzOsmoyqe6Q/il+IAI1TcC+fV8HVJDG2N7t4Y6sHf7KKOAgQMVF9h0r2OEC44av4zm8gMjZudGDsycre8dUJBEGqFTJQKJ4xHuMZ+AhnIHY8oduaw3u1aKi4e0oB6VBZLaXkcqR0KdF2S02VAhembu5aGROE2Ow4aKzuQJuowhHwogLSqueINbBoD52BF3qit+AQuBioKFhFaFYkgksMDgg6JH2SAYmXDEgeloxTT2w5FumSPA/Hd1OqIrNPChUZOrIKwWeAruuIVQLNVPFEEcYFles0Lo7ETMRCeXT8ASydWIvUSTJdPNOMsOE2xLwpbxKMqO46MnIuGCCsLDfwBovjpDQGIbwLa9CnK9DL+esGKY/m9rMQIFA3ozRoYmt9Da36Du6+93N4/NHH8IWvfgOnH/lrfONbv4w/+qM/Riabxf333Y96t4up6jR21ldkfqv75hF6Dv7kD/8Q/+C3fwcvPHMah269E16io7Nak5aCYplyb7Hio+rMwHWAQRq9cNjqGXgIGhSyM4ReyOuseD72wcVkPotKJQvD0NALSGuN0FmqYydScGhCx8xUEa1WiIbrS+VikMkhp+vwGluiHurkq1eYE3GMYIPS+7q0It7XoDAZ2w9sg5g6zLmqBM4ixhWEuNlOsDBbkO88YtBQJUyAi4mfMo/I9InpmhqILgIrc6zQddoOTl9sANNVqdwQDyeA+bfziBgLJb2vy3j1m1lF2G5Cz9pQWMr6OUOAS2t12IeoqvgBnsP4UOMZuI4ZYGkx7A5E+pvjUEHFYk4R7kLbS8WQqlZKdRTzJgExXunTs9XgRwrOtQPsuDG6L52HffLgFbAVy8Wuh0LUw/SUgbnyhCxYlCrOaFlZvxMlFF8HNaFGAj97qLoIChYFkvGknG9gEA8EaNiNuiktkhTLOEIn7MBTAiyaB5BX8yl+YchO4PdKAV0qXAYdsSqAQ76CVtTCOydTQrUFcyCBTxreSPYl5VrpQ6ehElsZZ87XsZMryOYVrJE6V75SCr6Oed/7kl+oAGEoIkTLa/rISLvE8XfL/NQbYEd8dz4YtQlnNe2Z05WQGItr+/ijAOH5009iZmEfTt5yC956/XU063XMTE/j8JFDeOzRRwWgeOedd8GJAb84gcHKRbz87GlMzc7hq7/8TTz+6CPIZnJwnD5OnDyFF196EYdO3ILQKon0MDc6nhuvkbQoHA/K0NE3cjxYlLgvZqWEX3Uc5MMuigs69pX2716SfpCg7kYoagpqtRqmqyUsLS2hXmtiev8hnL14HmHgI1eqYGFhAWtrazBnDoriYGoDmm7gITEPfK6u3XD34iOuo+ohJ0azsmYPUbsnlEhpkSgKtDBEPo4wRziEpkDTNRQKGnKWIUJkbuRLBSytGqTPgFCXE4gOyJnX11ErlpAYOvy1mmAQRoqqe+/RcQXhBh/qd3s5Fw73whrsIwtSIkqh3n66aI1ASryJNuoiczs2b3q3GR3/+4cxA3Grh9ALYM5UZBO4payj5cWoeRQgSgFPLFkSgcB+MfvD+3MaZrLUAVBQ90Kc77Bfn4Kk3Ncuw75p4UpPnidNwFUcwwwDHMjEmCqbyJjsq6owNHojsJdKVUQ+J2nGz+2ZrY1Rxi5VC7FoZoBiyr/xfQwOWG2g1wOdJanaWNLyworgZr6XpSBKc3SETCAVgVTLgSqMKeKdao5sm1CYh3K1UjMhMDGOZA8cidf0ex6e2nYRmQaCzTrUYQn4ekrcb3cNP44AgesTKZek8zFAkl667EOJBD28Xommpe0SbkZ7qJ+7jWyJvOL0h4BB4gc8H2HXkXK4xnXNSP07GCAUnCb+9N/+v/j2b/5dVCtlnP7JY7jp5ClcvHwRX/3a1/Fvf//3UC3lcf8DD+Lc6hYm5vch6HXQaNRQKk9golTA9/7sT/Brv/JtnD37llAglzZriKMQhx/8CrrB20grMliQ0lSE4PwajGP7BECecQc4NZNH2BvApALu9BWzsiCM8OTpZ/CFBx/Ey6+8ijfeeAOrq2soFouY2beITKGAC+fPw3UdHL/5OIx8Cer8IVidDiZ1BctmBomuI9ioQa8UrrSaiVnoDRB2BjLnoi9AtgR1cq5ncJNnS3CrIWqHRpWb+VBjhwHdULNADwJMmxGOzdDgKZRAnNUDP3KR0dLgWQIYhOi1HLy46SMo5hG1ekL/3GvcNjqtcYBwPRfoBl/DCRelrumyPDz7uh2J4tYLFSl9xSxXbTbEKOe9Li43eErjl49n4KoZoAZ8WG/vthhYHHg3OVweQFeAjAb0wjSjTEJm0nWEra6AtBh0jIY9XUkXnaFnwlTo4eS+DALVRxBkkbU82FQwTKxdpgQ3ZarGiWojYnSTLkzVgDV8zUhVkQ0JZkparIkwkU7b6TCApRmpw2SSYgakRTLM1lLLZkfaJBWrkpZgie5OaDttpgGLxAYsxLLtwPX4Sh/3wqUaLuhpBuedXxP8xvWylj7uAIHmXLSa9leJmC9IYsJsenfTH4LjrgLwCRuDcpap7PS7Vjq5kTFQWN4RK3DSGtkOOrQ4idqgLfNdqlZlk2zs1JAvV9GNFUyGWyjkcigU8rhAwy9YmJ+bxaWtHcnCp+cXEPo+CgSPagn0DLC6ugnTqGJ9a4Bobloy4WGkAyUMAU1PLbYZICxvIWeqsGwF1WIMq5rFQn4GTqOHXCkD3aR6oYowSvCdP/guPnf3HXj55ddw/wP3YbI8ATNrotZxEFkZPPHojxEHPh76yldxqe8j6vQwl+lieqKCV5YD0b2Iml3EIa2dK7Ihx50Bgp0mzP0zEhwQDxFvNqHNVKCMgIjXsz7xWANX6Ml6MQd9pnyVO2T6/RMc0kLcNEdDsLQtRgYDfU9SYbMYnhvg5VfW0KxWAdtE1HWAgQNtpvozZzEOEK7nwryH13gX11OFRcOQG1ZhVkZqCbWyWWGYnxhjD97DvI7f8sHMADeMQGiO7904LGKQwWxpsixYmhFSOj3DREqXWjkPrZSX3yhcvNQB5mbzCEMCv4j0N0SMiaV/2ZRFkikQu2lJAJFK7lLcSMRekhQVQdEY4iL4HmZEHNQyEJpcrEDXGXTwtyEGA1+ol51uBxmWYPcozLGKIO0FLZWZFVvnFDieBhfDtsr2ZhuvdAIE2az0hoNGGybl0q+3VPw2l+1DrSAwIPADxEGEuNNH5HrQC1lozGwp3EQZ6Y1lWLkCcpW0zbQ72B7q9rGvqCGjAvWmCy/2YVoWwsRLXTVNHR0CRdUAGnvxehERPQYYdFxDNWQbR2zCh/PLahRNgTLRAGrUgK450PMKSlZJAr2G00IUUUiISP48QqMlDIaTC0dF8nqQb6MddhCxgrFTxCapqJoGO3Jggz37LjJBGe1OCMPSMWhvY37/JIKMB8/1UHKrmFgoI6fYaKz1UJjMIZO3EHohev0A3X4H1WpFwIIDZ4DnX30B3Z6Lm257AEkug5A25AQkIsB0xceByoJUm86vt7GUZFI5/ZVtGEcX5H4KLhEcOXN1NUao8ZswF2fTtsyNDFZsBi7iZlcCDF7TvYGd7nm4NZtgerayGxSMAmU+H2+stLCMIVWT8tekWVYLb6vJMw4QbuTC3MBrpaS004bBXpRxRV87qrWRRKRDXvNQ3sCxxy8dz8D7ngHSzbboRspFmCZDw/7yVfvEHlqgWDiygRlLOTLs9GUX1diDH6Ksrz0n4mz8lW2YbLcNN1I78HAil2B6iouXhA3DVkMaHHAhY5Y/YNlft8X2mZm9sBtYMSA6W1gWsYAMW502as0dHNx3COtrm3j+hTP4zd/8Nfz5X3wfB/Yt4PbbbsPjTz2Jrz38NXzvL7+Prz78JbTbbVRKJQTU7/d9WBZBlwoGfQeJauD11YYAHjOmhptn8wJ0fP5yE518XiII6kdQmlZK8O9jvJcAQVT+hGY6pPpJZcBDOHDTbJ9tmjCWfnJqSAQgY0EjEHq4Eal+gN6l1+HWVsT/ID91GMWF/XA0HbrvYyGrYa6gI5+z4Q08tBptFGbzEpTRCIgeG8RtrG+tw0kcaFkF0UBD5BXRVyoISaHbqw+QJLAGA1SUAGY+B1tnILeNbE7HjldHKaqIOqZiJ6iYFTHCohvhfGYBO842BpEjAdxUZhqmn4OrB3BCtp36UFoWIlVBJp+BbahQ9QSdoC3gvE47gtPtw6l3MblvAv1sG4Zr42D+EAplXjsFgR+ivdNFNm+j1xmgMJGDaiXiRNpvuaLxcXnzEgzDQFQ5gKnjt0HvD3D3XAYNbIlZ0nRmBu2Oi9e2e+jaWcE/xFtN6AdnBRPhXd6EfWReMBHFdguDbA5BNiNtZl4XpXQFFHwjtxNbQkKv9yPoU6V0gx8+x7OBg4NlG/lSZoi1SVkMruPjmY0BXCsV6BOwMqvZkij87KePA4QbuSI38lqWg7qOlJZEcIauWVTtUgFzYfp9lSZv5DTGrx3PwDvOAFH4S1upBS03D2484bCvzL7mEPglls1E7fOHm7iqwqRNND0G3kUohm0MBhVE+nNMDnq441AVupSER3oKQ8/7IV+bds/doIuCWRRXyQxplarKpkKqFkenBdosQ8eLL7+ISnUGppHFTm0T3/3TP8dv/dbfw/d/+EPccfttMHUD5869iYe/9BW8eOYMjh47gmdffBW3Hj+KF156GZpholrM4cjBRTz55GncdNe98GcPplOWJJimwI/ro1EoSrmbAT7Hbuvkfdxe1xsgMKEgYJBofIouEaXPEjarQMRzqJYOnVUaZu+C4k/9J96uukFq35zTRjDYwhtvvoV8Po+ji0cxNTkl4kWJHaJSpNulhlazi9ZOG/MHZuEpjjh7MoBr+DvotHvwtiNYExr8jCuc+7xmo7GeYNWYgEIGgexAMaxGAwtzASqlAhrrPWTtHAoT3KASYadkkhx+9MNH8dA37kHLb6NolFEwisI0aXsN+Uy6GLL79NLTr+Ouz90tTIGw30UURChN2XDDAG7goxt2RcKbbanlt7aRD3OY2T8JvaKIJ4gRWDD6NiozRWjU146B7dWGVBAyeRudeg+arqI8lZMq0ltnLuDS5kVhR5jTh2AXJrA/r2GqaqIf9UVIy/cjvLjRRVun4FKCgPiyrC3VM6G/s4Iw3IBzgwFCRYOXtRHRLM0yoLIC8F4H9xnZ5JsCltUm6M6qyTOnxRGmEWKuwMpPgkLWpIADzmwO0MukwW24XoNCttE7UO3HAcJ7vTA38r6R3NX19PFu5Ljj145n4IOYAX+IAh8pw+0qxA1TivfBshGV0fNrsJhBGTrygYf7FovQh/QsxhchpWGTBA2P+IYE3WBbQIRFg1xvVcCINJpJFDYfQpiwJThgWbfd7OGnS00YM/MwtldF3vmpxx7BF772dYSeh/rmFkIFOHpwEZcuXxY/AMr7mgrQczzcdOoUzp15AZ12G0YmCzOXR+XWe39mVqeyFlTfx+r5DRh75KnfafrzBh0sFQRRDFtTUXNTbAancirLAAc4MlHG40vbqJgqcpaJGisBCTCbs9H1KUMNuLUW6ks1qOUcjHI+bUteZ1tD8QIkfQfgBsQyf2+AfQhRymgoz+Tw5luvIvZ0TBdmML04gS464piZ07Nob/Vwbvki5hanMTeVimmxDaTTN5OVG7+BzUs1GPOKbJJ5o4AtZxPNQRtwJtHzbNCiWO33sP8gKYcRyuYEfvSXj0mb6Ctf/iIylg27YItF9x9854/w0AMPoDxRhqrq8H0flVJeRKvYPnAdB14vxr/5f76Dr3/9YVQWcwg2YhgFA26uL0A8UmOpICj23JGLaFnBbHEWi8euMBX4PbrNPqyMCd0iXVbFlhNgLkvTrfRGr603kKumpkmtzTbyEznYWQNrtW1Yponp8qRoZfAyENx6cbODs36qrMhqAbUZdgXzCApsdJEEAQz2+PdcO+/COswDaRv6/Q5WKqJGB/52E5lDs1Aye6jz0i9ToLoectQ9gIoBg3tSHFe20uDlHcY4QHi/V2b8/vEMjGfg584AKZX80cUYB1DaXexXQhw7Pp1qyA8NaGjE1/Hb6EVt8WnI6czAUhElukJqmoI47IqmgaVl0O9kcHHbRaeUBhJlpyVugG+99BLuuO9+tGrbOHv2TZGLZjVhe2sTzXYHTn+AQ4sHsFWvY2N9HZOVEpwglLbC5MJ+xDOLaTuFeAYAlcjDi48/AlU3cPTkLZhcPITAD2BZNvqDHhTDhqkrCDwfsaaj7Ucw2juYnprCwHVR31iHsnBY7I6LQR/P/tUP0G018Q//s/8UbcXEY9/7MxSLBWTyRRw5cRI/+tM/wZFjNwkY7sDR46gZuavpg7ThHS763NLEJIuCQoglCw4GDkqWhmwG6AVNBN0cEi2BpfmwEgV2NgOH7R/XRyZnQkk0GIYlipPuwIEfeFBdDUklQKB7YnFdMScF3En/C26kqq+CtsFWwZBNMg5iNIMm2vUOqpkq7KItQV1/y4WdM2DZlhgzPf7k04Ibueeuu9AfDOC4Dg4dPIh/+a9+F1/+4i/h0cd/gv/wt/4D1Bs7KOSLKJVLeOXlV9Hr9fD5e+/F7/3f/xrf/tY3cfToIbhJH51OH924BSUDZK0sykYVemDg0vklTOQmcfDYfhhXKdXGgm8YdBzkylm5JoKJ4AZKa2TKiPsxmpstwS/ohiagvupsCauX1lGeL6GQye+2zFw3xLObfTiagbDeEVCkVMv2enEQ77O6LVUVaUsxaNhpSYWBbIfrDfjedZnhLev70tom68Gg10/WokDIlfbBHnxIsFYTsCrPYxwgvOvsjl8wnoHxDHwoM8De58V1URklBY5oemN1E3ffO49itrCr1Mi+MTPGLXdTflfSi+hGPWTUDPJaEW7PxdbAg64pyCgWLnQBj7vgcBTCUChbKtt5pOsxNGC5lUY83FQJPmTB2tRRKWaxtXIJ65trOHroKBKzKMI3BPW1iTIf8v4tU8e55x/DPV/8EuzqBP63/+6/xrd/82/D83x8/r778da5s8gaJjY2VpEtlOS8KyduQ391CQvzs6LyuH75AvaduBWh62L17OvQdB3N2g6+9fWv4rGfPIHSxDRmb7kdf/av/gW+9c1v4nt//hc4cvSYBEm3PPAFtIw8dNeFBReWFsKiVLEZQFMNaIkK1+0hVzURdIHv/fkP8I/+83+An/zN0/jaw1/BxuYaSvmSbHZnz13C4SMHpI7Rd7rIFTJotrfhdzR4fR+ZQharKyu49Y5TyJlZ1DfryBQthEqA9aU6vMBHJmtislqGpWaQq2SkqkMWKjNt+l+IZkXXRXWhjD7BkRTYitUUZ6Jq6LsDrKxtoD9IPS2azbawFxqNJvbtW0C30xEwJK8fW1uMg+I4gGnbEljk8lmcuu1mdKI6OkEXZmyh1qgjdhMc3L8fXj1GZ7MDtaTi+M3HYBqm0FmjmFRYU4JLYgvIfCmXSymIjwJHbggzk2bylPa28xlYGUMCz26LgUgbPbeP6X0TME0DtpoaJF3a6OCtQJVsnEEA7aOF3v42g+wGyj7LfVnMpdLM11kNutHnki2pxHER9lOKMNsO/DzihQSg3OhKi0c8Qt5GIGn0eeMKwo3O/Pj14xkYz8ANzwD76AEBi/uJ5lZR7rZw200lMZQZ2dn2woGAENf7S6IEt5DdJ46K3XaEpZaDlmYhFDGaoRLSsCRMSnFUbyN2fBhz1RRTMQJdymu5y1AmORY6m6juaSom2YNOYnTDBP2uk0Ik2cPna1g6oIiSruH1v/oL3P2FX4KeLeB//Wf/Fb7xK9/GqXs+j+31VVy+eEECBMM0cO+XHsbf/OgHuOVLX0Nz6RJmZ6cxGDjYXrqA5eVVLF+6gFO33YlcpYzm9hZ+7Zu/jB/9+FFMzM+jfOAYfvj7v4u/8+//XTz93E9x+OgRLJ0/h+N334ck8DA/ochGbxoGDFXDtrON0I8Q1RIEWiAW2ZfOrYjAzxe/8BDOnHkdi4v7sLmzheeffQHf/MY3sLSyjFabmbGBjG3gnjvuRt/pY3JqEqV8BZ12F089/TQefOhB5EoWXM5JQP+DGCsry+i0ByiVC5grzmBmcQIxQni9QEryUwcnkLEysuFuLdeQyVkIggBVKhcOHUBbtQ40Q5GqgKqSnwKcefENzE7PYXpmQnQNOr0e8vmcCGe1N7qwcybssi7eIAww/IiaMmSxKOgHffmMna0GBr6DHLIyDww67MjGxEwJ8/vm5LqLe7iqoFPrCfaAlYFCJSf3Urvek9vFdQdQE11Ehyb3VYd7d6qnIHiMWhu5eRN5vYztTguNroGGoiM0DREyYktHHWJtbvgB+bDewEB3KN+ctHsIXDqjqjCmrogu/byPHgcIH9aFGR93PAPjGbhqBkRcSNcF4Efq76lsiGKZvXpSDGneQ5nYGA13HTkjj2lrBr4b4OlNF+4I9DY6ogiQeXApRUvJ5elKWk79gDMyxiDTiPHsoz+QAOK2uz+Hxs42Dtx0M869+jIcovNLZcmGj91+J15+9mnM3XY3nJ1NvPHCc+IAefORI9jcqWNl6TJ+9Tf+Pfz19/8dmvUd/M5v/xO0oOOvvvvHUgJePHIER246jr/47h/hxPETYA3/+PFjyBVDZDJZAQmKiuRQIbK21URk+Yj6Coyigv/rX34HB/YfQLnCqoyOjJ3BFx96EL/7f/5rUf5zvAHK1QIuX1zBN77+MILIhV408Mozb+L+++7DM6efhet6uPXUrUIJLZWL+PEjj2Jufg63nDyJpeVlFAsFzJSmUF7Iwu+Hwvyg5ffsgSnJTC3Dgut5GDQcVGYq0MksGIJb6UC4s1JHZaEo3guEnJKfX1tryvdvh00cPHAMS6vnsTh/AEqiorXTQXm6mIo6JTHotEm8Azf9QdQHNbUaOy3MzE+KoBVvhk1nA+16H/XlJg4f3o+56Xl5L4OMyI9Q26ihUC3CHwQIXB9TBybEnTNJQkQ+HSY9FKo2FEUTCixtlYm/aG53pKqz0o7QzBUQjzLvIIJ7eQM2fU1+Tjb+C7EcSIvhOjQthic7DhB+Ia7a+CTGM/DpnwHyw/2lLZiH5iVTz3gu7prNQLNiUThkGZoUOtGTj3x4PR9bm0C9PCEAML6fCHHqKUi7wLagk6bJwEBEfz6coasKsgplfGNEmi6S016UwBCTikiqB0JniyG/64YEJipQ2KSnuBQR+MQzKICXKDCJq4hC3LF/Dj9+8hVU908iFhtfXSik0/EA+6aq6LotZEhd02NYqiW9/l1balY+un10trooHyqg23Tk74uHFvD06edRLVUwOzuLMy+/jGeeeQ7/8d//j3DmtZcxPz+HQb+Pz91zFwmmCJIEP/jeI1JkIU6j3WqjUCzgsZ/8BAcPHkQxn0OrzfL6AHfdfruwBtjeMSoqejUX+TkbemRiQFtnw0I8SFCYyYsrI8WuRqZeomZJy2wnhO+HKJRz8l34e85dbaMJP/FEYnt2ehqZTNo66tS70DQtxQuwBURnRSFHxOiRahsqMHMm9BwrP5TWjmEqBi6/vg4lz3OxUTarqc4GQYSuh8ZGGzOLk7t+Ivw9h9NzBZuQncyIpwdVOQ0tg2a9hUIxh169Cz2j4cVWIpgD0niDekfuS6obqrRr/hiGCO9tt6CS7cKCmaGJYdQu7fF9nNM4QHgfkzd+63gGxjNwYzNA0R6iuo3901LynY4dFBBhsppFIZdBO2jKwnz+jfN49ZU3kNhFTN75RahRSh8zpqtQ8ilCO5VReI8UC0oLk73BQ1ynI+CNfFOLNIUE8IZSxqP3Jq4vPgekpn3h9qM4TaAY3V+TBCWnjbmigelqBl47lYZmhkvjqcos++UUjqJHhZpqEvQ8rF/YxKFT+4SuGUURtgebmM7NCqCz3wvw6iuvodGo46H770ecjQXlT+VINUnNgi9eXIXrujh56wmEkY9B28ezP30OD3/ly6AC9tLyZUzNTaJklrG1sSGOi7EXCR4hT28DXdlVm+SG7w187KzWMH90dpiopkqWKRA1FZ/auryDqf0TUsoXrwBKY7mh9P4rM2UJQqi/kC1kEFLoKYpRqOZRW61LEEnHUE1T4RkuqsWqyG+3/RZKpEZqNvwwwPnnL2Pq5iocvSfnXrFT5cyu30PYjGHlTWSp/7FnUBOhtlWHXlDR07vI61lUrTlRVdw/Oy8mXsjqeLUNxIqG/rkVaBMl/P/tfQmwHWd15td737778vb9SbJWyzbYkgzG2BgDBoPBdpiwJGQYGEIAkwnDZCYzk1DM1ExSSSbBIQtFSHBIMEsIEygyeIvxblmbJWQtT3pPy9vf3Zfu23tPnXPfk2VbBltQ4/Lk/lUqPdm3b3efe1+f85/zLUgn+LtM4E1dlmB6nSLm/8kKQ2ZOsItwonM/bDleaUDtySBc00a4yIvpFggXGbjuYd0IdCNwERFgQ7MKU9dIbGgNK5D32rikX4csC2j4VTyz9zj2P7UP2y97DdpDWyDVHHbie8n69T/h0kLPh3tqAYquIbCJPgmoEwMvX9HuAucgXwtKRAmngUI+j5mGg8DxINRasEiOWhY7Bk+JGF4/MYDHZ4tsvDPiuxgcUmFoOmzHhUf1CEUAACAASURBVF11kR/IsmTx/MkiBtYXWKLaCttICUkuonzPxuJMFf2TPZxs7cDs6CKQPuWqs6EkxBEGHuZPzSPM2tA0A6rUAdkRcE+mZCvILEzlk7mRDeTyOb4H02uiRjoEggyNipIghkQywbtxwgLYvsVaFZ0CoCNyRWv26Bz6J/shqWQQtKYS2BHdohxbnq8gmU8y1ZAKB+osNIsWazu0qhZS+RSMNMl2h2hWGsgP57iQaKw0uZNgpDqJkGyN6VroPlixMHShSRqiQMCR3VPYcMU4VKIzslz2ml+DwGOU4kIJA8NUxIQMTtVIOIg6PJ6D5dkqkHKQTWZRWwbu/NMv4GMf+RAm10/waw9Oz0JTY5AI+JrPwgpJfkJASlWwPHsaQX6QiwQu8JyO87fSkSDgn1+0pl0VIqNCjy3DFKLykhFT532ooiNGJNWefaoOxwcDNAcMFWIyjkXTPmeX3isLUJottBQVjqaiHbDVVucz+Cm/ttSlIbtzLui6bo4X8ZDrHtKNQDcCFx+BKIJLfPFkDHIuzWJLtDuTfA8ZajEnZRw9cQZTxw4jMTSB3i2XsZYCGaD9zDNeOvfMIqT+bEddkGhupsV69Mxdv9iOBFExRQFBpYieoSGsTE9heGQEy4Tul2W4Xh16/ygapIugyDA9H7uGe/HE6QWsVzyM9ad4BBGFZKAELJ8pYXCyAEGMsDBd5Ad2YSgHWaXWvcBJtdwsw2468CUXmWwGDqH6JQJ9aqx4KBOjQu/F7OkFRDETITHsAOT1HmTVDuWUtCQYJBqEWDi5iGQ+hVQuwTt0ejUxCSzbROlUHcleA6qqMnvCarSQG8hy257e1A89xpJQ63/5VBEF6hAoHfYCmWzR/4cYQYbKgMJ2pY1Mb4f1QedullpIkjiRHzGAcK3tb5oWmist6HEN8Uwc9WKD40BrzZCL7oHen/QZ6Hi77WBxehnrLxtnMOqFVuAH2P3gg6jKCUz26Dh0uoJ3vWUXysU6cqkMWpU2vvCFBMa3HcSjD0h40+0ZuNVHsXnbRswuNyGSt87sHPqHR5BJJaHGEjhzeoYtpbde91aUTAdf/byO173XxdxBCTt/0cPjf6Fj63ttDL7Q8qBzPzyucFkIK3BcBG6Iv/7jcXzsThtT96n47r0i/tPv24grEu7+LQX9lx7G2941ijMP70VhdADDm8aBVgtOKo12y4S9UGQjNjWVQHJiGHa1zlTLMsQXdLbOj9H9X/odXPvh34ZKCsDdAuHin3PdI7sR6Ebg4iKQJmZYucZ8bTWmQVEkuLS7rLchtNoIKHn5AfRLRlgVsOC7cEkwR5LhvhRXqRe7LNfn1nB889izYC3CO55ahD7ef3EFSARoUYikGEG027BqFQbg9fUNYHb+LJsNffdbdyOXL+CaN92IH+/dg8uvuwHjPTkcOnYKV00modC2EMDiTAVqTISeUBFPk9ufBM8R4ToB3BZR1sh2OoArOFhpFSH6Etq2jcGJXh4blOcqyKULEAm6kJBglzxEcsASwhW3CkOOs0ohjRqev6iVT3N423SgGxqMlM7ATIvMhhwfekKDYzrsw2DVTOQHOwUL70qpgyAIrK1AwFIjTfP4jtUwoeZpO+34IRwvQkwGFwSZnjTMuoW21UaeAI1ap/hZ88roGHeBkz6kiLsFjUqLVTjZO4FosQ2XfybsABUTuq6hWTGhKDL6J3vPYTbOv1e61nqxjvse+CfsPbqM9759C9wgwny7B+943VbubPzgaxKW+iL8yg0+KhUTv/5pBze/xcI/Pubhqg0xRIUEkv4+PDOdQlzKYmBzEbu/ux5jl7dhyYO46YMu/ufHDbz5Qw42XxrASAF3fSaO4TfZ2L4B+Ma3ZFyxDpAHfVg1EYYboTC8AikqoAURczMCdu4y8YefSuH9v+siY0q4f4+IXe9xMRnI+OYXBWy7Zi8++I5d+PKXngH0PD50Rz+++JkW5PwiensGcdXrZ2EXq0hkDRw98iQEowezM8vYdePleORkCUHpFLZccyMe+c7fYPLyHTh2fBm3feBmfPU//yquvPUTQPNMt0C4uMdb96huBLoRuNgI9Ooipvc8gVa9gcuuvJJ3YlazgXWXXgbHE7m1mvZtBLaFaqhA6smhfmoKY8NDML0IYiYDq+1AUsjgiXbdIdvsNtyXMPv1A1jHZ2FsHu30e3nrFsI+swx9vO+iwI4ketOriTh44Alsv/HtWDpyEIaiYGLTJjx4zw+RScbx1JNPMKvgqh07cPjYcVz71ptw+ZYtKC+exUhfAlEowYGF0mwVQ+M9EIiaEUkII5nR+aYfQiMlycBBvdbACmkUjMrcCahXG4isCLqqQ8wEvJN3mz58J0I6mUAqm+64+LGngc6CQGJEcswdfAD7O6z2n2kOX6NWflqHWbM4Gft+iMIQdQs6L3LaLmorDU6kVDRQ8RAKARRDht1yoKkaJJ3GHDJ7Kigk/exLKC02QZ1yVQigijKba9HIRZAEKKoEVde4c8EYCUjnAI5u0NEOoPEB2VKT/DN1Gdj4rtnmAqSBBgb6eqHLOuamlpDrzzAQ8kLLthxYzRoefuhB3L2viv/+73bAqyg4cNrCB96+C17o4Ot/piNzdYRbXhvArDv47G/F8dv/JcS3npDwS9dX8KsfViDYLfS+Lo+gLSHzGg+NezRs/8Uijt4r4y2fUuFawJM/UPHYgzL+ze9ZePyLBl7zEQt9qoDfu1PBb/9XF7u/o+KMA6QtD2LOx+EfpLHtBgtnj2h466fauOsTIv7jtwLMP6miHA/wd3+g4403hRi1fcgbFzHht3HgSBaHnpLx4T+w8eD/SGPosidw9VVvxX0zJ3D9uhZUYRn/7k/ux+c/+q9w+ug0zpYP4fWf+C04R/8P7p9SkG4exrUf/HV85ZN34LY/uRMP/d6v4W2/8SdoHr23WyBc7EOue1w3At0IvPwIKNSGn59GUjcwPjYBLWHg23/7VSR0FUsrJSiiiFvf8y5845vfxO233oYDh4+gadoY6u/lwuHAgYO46W3vxNOH9sJybCgE1rMdvOndt2O6br2kC/KWaa4OyGzHS92DBSjZFKTcRWjiWw7cYhVjG4fxd3f+Pt5+2y/g4O7duP0Dv4TZU9M4MzODa6+/HrJnIZlUUCyauOtvv4YP/PKHMTbUC9+tQZZo1hyhPFeDrIsw+uSOw6QQQ0ygJNdJzDTzP1E7geJMA2kjhcSQisn0etSdKid+QzLQDtowZIMTf71Iu/TkC3bRlaUadwIyfWlWXlw5W4JO8s41kxM0ASI1XWUjI8I20PnPJ4lQh6BearFwVaqQQCKbgFkz0WqbaLsWxsdG+ZxMbySRrBZ1HSQsz68wONFvh9DiMo8EfNfnThEVIdWlOosTZfpSKIcKj1zIgaOgdczuaNFoxfJMmCsOGXWyVXMqn0QkkZxwBFXUsHymiGQ2yVbO3N0II9RLTRjpOFRNQqva4q7VfT/8R1y6fSP2nCyicmIa7/7lD6EnSV0boDoj4NfvFPBXf+Tj6EMOvvi4hN/8JQX/69sCPvX2efzO54exY90cpKvjSAQGlkUbs/+QwpWfaOPIN2y8+dc0/NlfqPj4J13MPCWjnPWx9F0DkzfZSKcifOM7Cj77Gy4OP6ig2etjR5+Dp56KcPZABu/9TRM/uiuGy99n40sfknDLHVQcSXDHPIR7NPTsCLH0wwg91wd48ncbuP43Ytj7tRKu+IiL+z6fx/g1U7hq2zVYUo5h+5iBEw/ehz/9xj3417f+Ao6vzKO34KD/9k+i9fCXMKvvhDD3CK5536fw13fcgXf/8Z147A/vwM53fwiNldlugfCSnijdF3Uj0I3AzyUCBObyzhxH1kjy/Pv41FFUlxcxMtiPq6/eiacP/hibNm/C7NxpbNy0BQ88tJv1A3ZdfTV6cznMFktIJlOYOn4MSwtz6Mn3YPPO18FL5l7y6IH4+kGljqDV5ntiSljS6BgcvYxFbnr2iTn2mdBiGlKhA7tRR1LToOkxxKIWMukczs6exbp1I4hrOlaKddiODdHwMVJYj+LcArSYjHK5jvxICrJKuAABItMkKcGKnPAJiOdHAY4tHYNfCaFnVfRmcygYfavuitq5JEoy0LXlBkRZQH7guQNvMiwyyxaMuAEqFHJ9aThtjwsmEl4iFgKBHtcS8ouFg7X/CeQokYV9Z8RArAra0dPP+cEs/70yV4Ibc5CSUnDENssn+6HLdEYCR9K4g85FehFWuwklpsKrRkxhJU8Dam60qKvhAZsyKiQEaLp1Nl4qaL1w2x6alRayw2msWIsw5AS8FRplOMgOp6DLMXZr1HWVVTSJFULunOmeJKLQxdP7jvB5NDGBDZtHeLSytsrLwJkifUdEDPZYUJDF39wn4LqtITzvLEYn43hyr4+KkURfv4+ZYzpyIz5K+2oo7MjBqwtwyYlcAEbWh7DKIpaLQG8hwMndNUxucBFTBMwcJyfoCD19NtTRURRLErSYj5xQxcqcAb8QZ4nsQI0wNBJy4VQ6riCIRVg/BExNU/UYIPSrOHnPEPpvcpFJAZs2R3D9EEqtgYpTQ6vloDA4zM6ZU9OnIYgShsaGcfrYUeRHN6E0fRj5yU2QvRqPVTQqzLoYhJfxROi+tBuBbgR+pgjQPrBPjnDwR/fDyKTZ+twzGxjq64Pnu8y5v+6661gCORaP4eT0AuYXl3DppdsZXf/Yww8jTc6KmoZyaQW5dA5DW7ejJp1nTvMSrpCtcssNlmAOdRUyGSG9iETuBd+O2BgLq3bZq3a9gh8g3ihh3XACghYgJupYXiojZSTQ21uATRTA6grSpJGvB8jHR1GtLcGtBfAsnwuEUAwRCD70KIGW1+TigECErbYFr+Wj7djwmh6MTIwTBckjx+Kr+gjkxh0ECPwQVr3Nu/aOWmAHt+7BhYkqnAURqRQVBqSqJzBjgECQzXKTi4Xe0fxPLRDo/dZAgufHh4qC8kKVRxNEk6QuhJwVGfPQYRN0AI2mb6LaqjDIsq+XRjsRyMWzoPXThaKyUOMk3nAjzLqAabm4LK8hndaZrUCWzmklw0UUOTBS14NMmsj9cUAbxsF9hzE6OMrfIWJnZPuSPFJpuzZWTlWRK6Sh6DIXGFTsEI2SxhZUtFKxtGePjBapEZN0tB/BMW1IvoapZoSRpAMdARI5A27gwWy4KLVDtFRS8ASCxQokLswuTMENqg2WPD5nqHSePwKNy+xTS1BJJyKmdazYX9KKEDZsLB0NoU6qyKfIl9zFli11Zv4QA+hiVrdAuJiodY/pRqAbgYuOACXSTOBCTRo8D99AiEUxYBc/Qrx7kQ0RMs/h6402VhwFvqyg7YeQGg3IxPXSFYiKwrmv4floeWs0tudd1trD93zzHKI5nl6CTIqOho6oZcGntvNwAQJpEryERXoOpGevjfV1mA+uh16rjvH+NGwqOpIqmh5QNCNszMaQU4HZ04sojGagKApN2BGPZ1Gsz7EplVPz0GpaDK7L9KTYXpja6URZNOtttFttpv9RC54KAJrdt8gjoNRin4V42uDddmWBQI4q0oUkzKqJntEC2kGTRYiYjlhXELoRjx6ej/Cn+T7txiVFQpw0Di6Q30jXQRXXRIlI/Elgh3Aq9Kg7RO9B0A7CKDDQMRnjxHz+qjoV1JwqmisWxvrXoWouI5VOMWWSaYtBgMpijePQqlnw/QixlI7QDTqGWHG/g38IDZgNi4GRvcMFzsem1+Kuwclj0+jr70OKbIyJZQGf0zXtnj3XheRpMOsmjyGo25IfyvJ7PqfYWU3xNP6ZO1vGTNOHl05indhCT08MKS3FL6+ZFVTKDqaQYkYOfbfUkR5qC1zwm0RdJ33d4CrFlxoUhMRctT4nyWdyPx3IMxX2ZS0S8qo04NWI7gooMQ1COrEqPf6y3unci7sFwsXFrXtUNwLdCFxkBAjUR7t1cpHTWibecEkGghii2m4graaZGkc7UdBuOqDWdYDD1K4lMjkZzaxUEZo21PE+poS9YHk+YNnw2i4Cm2bVIaDKUMiyOW7AWShBJU2F8x7AwXIVXr0FbbQPgv7cRHGh93fIJne4j42faOn1Jq6Y1BGYEfY8U4SU0jHek4IeBUjoCtom0fpS0GMat9cpWRnxNOYq01wgJJRUx5zIJ1CcBbftQowJiMcTaDfsVaGkF2Zs2v16VDAw4BCM8qedMZ2H9AYIW0BuhESXTGQScN0AKWIYnHsrSkznjVYicNKl8Ccyz1UGJK2Dsh0ip5NQk4Aly0dWk1FzAtTOLiOpUGtcZfBnMmdAJQGqCyxy6CTw4pmVM2zStGViE+J6gs2PPNNnXwyyYtbTneMJsEjdBxqBmE0LrbqJnoE8x4mpkjSOWa1m6HtjBRYqp+pcbMUGOxTLuJLkWxZJPtl3oMoau1iWilX+nhixGLJ9HfMmWlRs+SFJQQOEfa0vVrHStFF2AqSFCGlDRiZpsAMmjXQCScT+RoRIU+AulKHmqct14ft3TpD9+cCzgFgyEytXEUgSBKL9koR2TGVjs4taL1NO+Sedo1sgXNQn0D2oG4FuBC4mAvQAd6ZmoU0O8g52o+xhdIA0AEQ23yGp5Uggvjyh2CUGnQWRj0o1wLFmAI+6BwRWM9tsa8u7L0FgR7rIDyGSYh8VDZrCO+GOsowEUNHgeTx/pkzBCnhhBHmxCE9V4ddarOAnxVQWTIpEEXIuCUFTz7ndEXaBVOr8OlHJUs+2f6MIw6GLzSMpTmLkTaAbKlRVZsT/ypkSZENCPBmHqEWIaQbfeyyeRrNZgiySX8GqihDIE0CA7/usLkgAv1hSZzAhLRIoIuogORM+K0L07CfBHgWNNu/kNYOAfhJ3G+j9fCdg1sEaeJBGBBKfeC0p0nxbPHf88wuEzvkDlB2g6QVISSLMZgN2KKDlREgkdfQlVRRIvY+27eda52vSPHQeoj6GWLQW4LoOVFVjsKJgK4h8svXW4WkmzKAFMzCREfNIGAnExDhLHmdzWVhNC0IoIZACZLNJOH6bO09EjySJbvoKnDmygJF1A1AMQi2EUASFkz+5hdp+Gxkti1K1jKbdwkhhBE0CdPalVkGZxIbpxIVBkTWbPSWImdGouZiarWHrRB6aKvEoh8CeDdPB7lqAiKiepxahDBVYc+BCK6g1WXdD7qXCmMzDzus0EKiTOgikNMpxfGVXt0B4ZePfPXs3Av+iIhBZDpylMvSJAWiBj6sKMhJJY9XLwO0o5nl1psillAwaboMLhIyawUqlgROmDJuBcWu8PJ/9C6izAMIQPG/XRr4NpJT4gn55FEGz2kjVGzg1X4OSSfDIQaKWNIHuaIRQbbJOA82BRSHinyNBhDqQ4w6IEISQPQ/xMMDmgQTSSZ2TH3H5Sb7YMT2WCaZZP7WwiZ9PNEXPCTAw2gcjkYFrk1FRuHqcCDfw0XItBI6PpJyF2TQBw2eKJGERml6TTZs0+SdjLqxWG57tMXiSigWKa3xVgbCzQw55Z03CSrQouVLxIYsqqhULkq4iG79QgvPhhxLMQMDTe/bh2JHDbFT1tnfcguVqDcm4joQioUiGViOjjCmJx2NIp9PsaJnP52AkFFi+iSce3oNrr30Dm0c988xRFmEa6hvE5GXD8CIXLbeJx36wD++97RcwP7eIb//9t/CB930A+5/eh9tvux2f+9zn8Zv/4d+zoA/dQcUuMQ4hK+Qw/8wyNr52HftgUNFDRRU5YFKBMGgMQ4SA04tzGB0YgiqpKC9XoRoqkknata91VSK4oQOr5AIJH2GsjbTQhyAQmG2z5iVBf5cbFvbWQi4sCdsStqyOc+nzxiudYEc8Cgib7U4RReJXbP0sIjTb/H1WR3p/JtGun9dDpVsg/Lwi2X2fbgS6EfipEfAXSkwnpFl/PnQx0esip5OUbshUPzuwuQVPO8hevY93cfRQp04CGTrZtoepoo8KPUy5FbDaHl/dpAph2DGtqdQQFXIYU0L4jodFWUMoiLzDEzwfRqWKS0bTaNcsHC46kIcKF5wZW4dPwVg/3NlQ0rnWJGg9H/22ifFBMiZSuJ1OpkK0SLhoeb6I7GAKST3B3QIGDvomGmYTK8fKuOTSDUgUMohsCxF8VNo1xOQkmm4NFu2sKzqDGWkpSQllaw6E+svH+jkWP41lwEVAEKK0UGUzIyEA745JNOfFFtVYUytNFBsO+nsT2JCmXff5c3QSLvKBiMYqEnY/uR8/evQRHmd89MMfwdz8LPbs3Ytrrn49lksrmJ9fwIZ16/Cjhx/BB9//fhw/OoUHfvQAPnbHr+D08Vl881v/gPXr1sFxXeQLeZY7Pn7sON77vvcw/XFpcQXf/vvvYteOHdi8ZQue2L0bb7jm9Zg5MY2RkWH80RfuxLtufgduu/09UKTObp/lnkPgxDPT3L0Z2zCCdC6FMAxghw4XWdRtoAKpvFRFrifDgErqPFTm6og0H/F8AgmZtCki1ncwKza0hMLjBAIR0kjHrrusnSxrCuM/CDdxYKaCsqbz6CBYKPH3jtQ5CZD4ogqdZFZFVM9ai4tcIRmDRKOvn0HR86f+Er6MF3QLhJcRrO5LuxHoRuBniIAfoH1qATFKuIKACa+GweEY0/+EiNrULu9kY1KMZ9QuHLb2bfs24pJxbhZNuATSRqg2SEhJQsOPIFk2CkkNaUNBJqkycr1WbaOnkISqy3DcEIulKgIo6EnGYBgia9w3mm3sPV5HRPNeQozTg9m0O12JhA7r6CyMLaPPEVCSrQZysoUBIQ7PC2HENebya4bGrAEC+omKiFQ2weh8Slhu6DN/PyEnUV1qcLLpGxmEbTV4d99y6/CINiiocCs+0oUUSxVTwqNiIAg9lNvLKMQGIJ7zN+js/Wms8Nz/9uxnRN0DAhJ6XoDyQgX9YwTmeyGWIYgiHFlosA33ZJ+OGKkaEg0BHUMl+tMRSnr22AP7fszGALVaA77vsYrh7Nwcbrn5nVhcWcKZU2ewa9dOfOlLX8YlGzdibHwEX//bu/HZT38GyUIC9zxwH974hjfi4R89ioHBXlaPfObQcdhOG+lUEtddewP+8Xvfwy3vvBkrxSK+9/3v47bbbsfep/ZwUfC5z/03fOazn0Yipp/zgaA7p0KhZlVRPFbDwCU9SCWo0OrYHBMDggpNGjt4bZ/dHbW0TkMIKHBRbzTgWBE0QeHPLdVvIPIEWLU2kvkEWzy3TQ+2ZUKPxdAyTWTjSfaHePp0CSsKdQKY9wky5nKXq+yqqFwki+Bn+G37uRzaLRB+LmHsvkk3Av9/R0AWOm51PvHfz6NlxWWRLYNJqvb81Zk2P7sI4S6YbTjVFsSBAgzfw+UDIgydnPnolSEqbRNxidwGO4qI1I4nlbx2aEKKVCSVZMe2l1vGnba8BAlNp8UnS8TiPJdfMw2iNrsPl4F+xAYg8CP9TU6IdEb6Nx1YJZpaqY1AldEMIhgCMJhSUDYdzD6zAH2sH5GmQvR9ZEQXgVxGIqthzJhgJ0JNURiEzpz8aoupff3jPZxQAwQot0urgRCRRpqZByTq0z8+ivLSIiRNghQTEXg+qvU6Cwml1BQyvR2mAWEGyLGwaVeQNfo7roKri9QRFVHjmPykRYA+VVegvAhwzgt81IlCWW0B8RC96T6OFRUn1NFpeyZq5JioZdgxURNVzC8W8fTBg8ikM9i0cTP279+PZCKJ113zOjz66CMo5AtYt24STz21F4WePJbIuzsArrz8cgYhLiyvYHhkiJ0bn3ziKTiBiyt2bsXMydNoNky8+bobMHXiJC7ZsI7/TR2EnVfuQLlaxqZNl+CRRx/Drp07IJHq5PkrAhZmllg0anCin9UVO0VWgLZvwVA64D+ScC4vV5AZSDHGgEYsfuTyd00JFS6qSPPbczyEcgB4RJOMoGVTWJ6dQTwVx+7H9+A9N78Lx06eBAbGsGB5/N0iS3CFignHgz1b7Lgtnqex8Gp5WnQLhFfLJ9W9zm4EXqEIEGI977exsjiHRCYDMdcHksenYiFeX4GWzaMSkixwBJXAgmGErAxYkYAGgdmIkjd7Cq7ZQu/EekS6gfbpKSQ0CSPjfcgm46zgZ1oB9h84gLiRwMaN6yESvpBQ55ELXeyoBJIM71qLXaNW+yqQrDP7pymAzMmSOhFEkSMKoKSt0igh8jyeEPG06yYwJBUg7BcQUSIM2CGQChFRDuH6Lk7snkN+IIN0fxqqrDCFr2SvICYbSChx/jfvrtGZ19PPRPEjep9mqDxHL7aXoSkx9Gi9MMttKLoCg4CH8RSWS7OoVVsordTYXKm3twe5vjxbKtuWBSVFCH4F9brJLXPLsrBl80aEIbX66S4lPHPkGaiKyiOEvr5+LC4uYt3kJBaXllgQiSSYz5w5i7HRUbZvHp2YgBsJiCs0SycwIWE/QtRdGwtzK8gkU6w5QXGiljzFZNleQM2p8zmpSOuL9SMXO09QaVUoKSDNAMeBzOOWjsOjFteh6RJ3YYiS2Cg2OYkyeNILOjhTkcCUMuIZjZOxKlJXYBU7QgVRBNQrJlRNZtAmz+5Xd+rP/7Wg9zy5fxqTl09Aofn+GsOBgZN0mMDFnGO7zEDQC2QOxf6J53wjfLLV9kTUF9tMoSQsAki4KohY4vvLf/mXyObyPMa55V0345/uvR9jm7cjlu+BICuoz59FvVZB7/pNqJo+3MVKh0b7IsDFV+hX+6eetlsg/NQQdV/QjcC/7AjQ7t85fRxjY+N4/Ef/jBve8hb84Pvfw+U7dqGxsoSpqSls3n45JtZfgnu//7+xY9dOfP/vv4NNW7fhshvegoVjR2AkDEihgN2PP4SNGzdjtC8PJSbi6QOHcdP1N8J2XTTsNqZPHMf2y7YhV0hBQYdC6EY2giiEIcU5AZNJD2ECiPFArWCGlJG0L3U5oMAOSYJZQaPYYj4/oc8pM1CyC6mLQO6FCLjYoKQsRgoiAgqGREePAIU8DzzEVR2RJ+HM4TkWEBpcQ7ORWQAAC9VJREFU18eCOmvgtBCd5BZSOUK2vKvzelIoTPQYMP0GWr6JlJJibAW1uP2FCL3jeT4/OQBOF4+gR+7HXX91N2699d147PEn8a5b3sm8+MWFJZRWVnDZa7dj/4FDOHjgEG647o1oOTZ0TcO2LRvh+T7u/PMvY934CIRIhKbreOKJR/DxX/0Evv71u5FMJ3Dj9Tfi0DM/xo6rX48f3vcArrzxJuR0GQMxH0LoIICGWXMeURSgVxxESGMTFmISeddtBSaoGJttnUWf0c+FA7MouGtB3Z6OHDNZNVPhlco/3wjKh0uujgIJMims1ijKETNKqKgkIGW76fDIx2zYyPR0Ynz+YkzCTJHxFD1DuRdoK5z/2pXZEoqzFWy5esML3odKqrpVRdCKkCWr5siELTQREwxoYhy20CKxBMTFNBYWSkgl0ogUDw/d/wjOzs7hiiuuQDyRwNLSAk5MneR479ixE4/u3Y+eQh7Li4sY27AJMcNAu91GPFdAkOtH0HZA9F6FwIevotUtEF5FH1b3UrsReCUiQAWCefIwTh0/zgp8N77trTi0bz8effRhXH311egbG8Ohp3Zjx67X4czMKZw6M4NEMoUtV+6EkM7h2EP3Y9trd8APJPzz97+FRDyOlC7z7n5m5gw/dK1GE1ftvApfv/sbvIt+3wdvgyapqLglZLU8CwtRYicfAHrI07GkxueENuJynKlupCVAu227bcNxXLTrDgsOyTEZWkJGXI2vAtlonk5CROFqG52SfAgPhBOwWPCnbtd5Vk0GQfBsuGURzYqL0S1DUFQqSkLuOrBmAwLGD1DxEUYC7KqDUrUEY1iDIRrIaDkuOIrtItyyj57BHCeuQnoIy7WzSAhp/M1dd+OjH/0VPPzYExjoH+CZ/sEDBzkZTUxO8D0tryzhTddfj1Mzp/HD++7Br33so4gbMSwsl/DXX/krfPrTd+Cee+/DiZNTePctt+Kuu+6CKMn4+L/9KPYfPID5hRXk+3pxzRuvx77HH8JrX3MFcvkEs0aI6pHVstxSJ2likkpeK4TYqZFFkAIeM61RAOm7SFbNJF9smx5c22GRJjJJYorpeatjB62hVKmj1WxifGKUd/Okkkn31qy3sGXzBjSrJkIa5fSk2WdhbRGm5NThWfSOFJiNseYieaHfh6VTK4glYywW9fxFn8NyZQEpLY84U0cFeHAYm+CJNlRBhYEMG0n98IGHsXnLJOpWGUf2T+PK17yWvzdU1FAHo7+/j4uAMwsrMEMBqihBVRUsLC5BVCSk8z1AOo8mtdtIDXl6oSOQ9Cpa3QLhVfRhdS+1G4FXIgKUMN2zJ7Bx02Y8/uADKOSyqLdMPL1nN65+/TWIJAWnTk5BCAL0joyguLiIwaERZHp6kBnfAGtpFotTJ6Akk2jWKtg4OYFWqwJd1eB7Lh57YjcKhR689c1vxmNPPI71GzdgbP0AUrE40/AYTEZud+Q8KIW8AyV7YE7qkcvgRd/x4VoeFFlFGARQSHFQ9SAHCjw74JY3dRM6K2AhnDUdAHreU1fCDT2cbZ5GTNaR1DLQRZVbzpokcsIoz9dRW24iP5SHkhFheU00AhNyJHK7O69leUwxX1uAWwsx2NOHVCrBibDilqHLBiqLVXiKDyUhYWPfdlhmDWIg48//4iu46e1vxZEjRxnYV63WsHfvXmzevBmTExM4deo0Gs0atm7dhvvuewBnzp7BHZ/8OOKGga9+7W4EgY/RkRFkM2lmEnzg/e/HF//0z7FtyzZctfO12LdvP659wxtwz733Ynh4BEvLi2wSdePbrmUEf0pNc/KjRUmaEjIBH2lMQpoOa3Hjvn/USdy0q6+XWzwuYVdGwivYPjzP5y4C4SaoyOKRD48EREyfnsWRwz/Gm294MxqtBpqNFlzPQ6Nex/rJDaSfCdKbYBOm3HM7EeTCSJ0GMoiikdSLrfJijS2rB9c9a/dMnQ0SYGrZLcR1A4lkvDNaIloiCHvgIBBDyJGCGOLcTSqt1HF8eoqv5Yrt2xHTO9RSam54nocTM9Ow2gHM3Ch8iTA6IuRiBQqBcfsLPIbz1qzJ/QDO7Aq0iYFX4lf4os/ZLRAuOnTdA7sR+JcRAcIg9KmAqutoN1pIxXUszS9BSxC/PYVapQbJMKDKMsxSFfFMApKmw6rX4ZApU9uB7DRZmCiRzWFTQUGlUif8PQYGetFsWmhbDhJGEmfPnuFOwfDYIEjugEYFS3MlpHriMPQY72LptU7D4Z2crMkIvQ7KPt2bgOVYvMNXJIWFl8hQCG0RSYPYDGu8/pDFiAjtTugBQiwstxfR9tswFINHAjGiq4HGEQQyoAc9ie2oKC3U0GjUofW5ECUV7dDnDoYoKh2/AaGDb1gsLqM6V0ff1hwr+9HsmkYahM+wTAdJOY2NE1sROTZfw4FDP+b7m5gYR7FYZlYEzcVL5TK2X3op2nYbrusik8ngwL79yOZzGB8f42S1d98BTnS6pmP9ukkcnzqBbVu34PTJ09BjOssYn549ja1btuLAwadxyfoNODFzEhPrxmDZNSzPV5FJJLkQ4fIp8tlIidkVNeu8RB3ADwKA8CbEJKk0eQZPDo1ri+6PgZqyBzkuIil1zJjYzMlx8ZdfuQuZdBo3v+MdXPSMDA/h7NwcGs0mkvE4Nm3cyAWZ06Yi44VKguTKSLRCtnu+wKLzLEwvswZEbiiLGFEGwxCNssmeEwTSrK3UmL5J1y5lfcZpUDfIEdpQQh26EEe7aTNAVI9fWKzIcWwcPTGNshvBLUxACgIItoOUY6IhaAhyqWfZIgTinV1h5dCLVkd8hR413QLhFQp897TdCLyaInD+RLgzHj6fpyBw238NAMayO6sYMhYKmpmHNjYAUZXR47dx2USSlQM7bATA9TvSwwrR6iIRrVYbVs1Fro/Q5TKOTZeQGlCQVzUoUmc3S5AyAo6JYYe1IJN6okDGOha3i1tBCzWrAmvFx1B8EP3Dved2yM8K4RDg0ENapSIgZAQ7zdap20BJMoALZRVsR66KdjPE8aem0bc9zbiGKPDgBiYSei+SWpYxCH7g8c7bNC2cqs8gm0oz8p926LTMlol6uQlBETAyNoHQJ2xCx8BIEsm9UMDBpw/h0ku3spcCFVFqHjDENGw0oCHOPhWddZ5C4bmPg6SpybvBYRtkNjI6JyEcoepU2QCKQIm0w58tzqK94iFUXGzbtA26GFvFZnSUB2srTaRXMQEk/0y7cJIwFiSBqZqyLL0AD0BJulKsIpVOMkODcAxUOBEQcWFxGYcOHcbi0iLHKZ6I44brr8c999zH3hu3vucW1g+gLwaDEc9bpDXQLJts4vRiOhAEPJzaM4OxrcOsPtmqkbtkiEzhWe+JNdpm4IWolRvI9afQ8OuwYUOnTpOYRWupzVLTNDK50FpcquM4uVcqMSKkIGlaMMnrImE8hxLLn5Jlw50vsevnc3yzXwUPgG6B8Cr4kLqX2I3AqyECPVKISFZQcgLkdQVqFGCh1IJba0Eb7kFOFrApRUWAizT7AYScFEigB9Tupd16SDt7wGqacBrUIZBAPkwNTUNWE5BUCYvQSaiEOqcUyWC6VZGckl1EWkmj5tfgeG2knQKy+fQ5EaPz40gjig77YQ3ESDvdDuiQzhEIDr9cooQcSXB9H7On5mD7JjIDOgscUXGST4wx9W+NPUHgu+JCFUafwh0J2o2vJTTCUNAOm2iHE1s3IAis5320pHtALfmAZZtL1SJctYl4xoAHG7EwDU80kRNIDfC5u2i6dmI7kGBTghweCTvCvgYKNE1mqiKpCRIuQhF1LoSIAkj0ypJXRE+s55yy4tpFVZbryPYkGa/RLJpIFZI8Tnj+oiKA7n/tPtn0SRMRM2IXAAp2pKR5nk+dGUVhNsPs/DzGR4dZ6pmwI7Hn7d6pWCFzJcKfXGjRrv/s1AK7Ww5fQnoRnc4FF5SroEeiOZKcM7NXggAri1Ug4UCIC6BmU17PcZzhSGhXfBbAOh90Sb4W1UoLR6sunPR5GIe1ipgrArLVDFl50680QM6h6mCeZbtfbev/Aj+2POMkfAy5AAAAAElFTkSuQmCC;" parent="1" vertex="1">
                    <mxGeometry x="83" y="70" width="104" height="50" as="geometry"/>
                </mxCell>
            </root>
        </mxGraphModel>
    </diagram>
</mxfile>